rounded-regular.ufo
<glyph name="exclam" format="2">
  <advance height="1920" width="540"/>
  <unicode hex="0021"/>
  <outline>
    <contour>
      <point x="275.0" y="-30.0" type="curve" smooth="yes"/>
      <point x="265.0" y="-30.0" type="line" smooth="yes"/>
      <point x="187.740758533" y="-30.0"/>
      <point x="135.0" y="32.7407585333"/>
      <point x="135.0" y="100.0" type="curve" smooth="yes"/>
      <point x="135.0" y="110.0" type="line" smooth="yes"/>
      <point x="135.0" y="177.259241467"/>
      <point x="187.740758533" y="240.0"/>
      <point x="265.0" y="240.0" type="curve" smooth="yes"/>
      <point x="275.0" y="240.0" type="line" smooth="yes"/>
      <point x="352.259241467" y="240.0"/>
      <point x="405.0" y="177.259241467"/>
      <point x="405.0" y="110.0" type="curve" smooth="yes"/>
      <point x="405.0" y="100.0" type="line" smooth="yes"/>
      <point x="405.0" y="32.7407585333"/>
      <point x="352.259241467" y="-30.0"/>
    </contour>
    <contour>
      <point x="175.0" y="1030.0" type="curve" smooth="yes"/>
      <point x="175.0" y="1370.0" type="line" smooth="yes"/>
      <point x="175.0" y="1447.0"/>
      <point x="218.0" y="1480.0"/>
      <point x="265.0" y="1480.0" type="curve" smooth="yes"/>
      <point x="275.0" y="1480.0" type="line" smooth="yes"/>
      <point x="322.0" y="1480.0"/>
      <point x="365.0" y="1447.0"/>
      <point x="365.0" y="1370.0" type="curve" smooth="yes"/>
      <point x="365.0" y="1030.0" type="line" smooth="yes"/>
      <point x="365.0" y="983.0"/>
      <point x="361.517122323" y="906.343827514"/>
      <point x="356.0" y="860.0" type="curve" smooth="yes"/>
      <point x="311.0" y="480.0" type="line" smooth="yes"/>
      <point x="304.343336332" y="423.788173473"/>
      <point x="288.0" y="410.0"/>
      <point x="271.0" y="410.0" type="curve" smooth="yes"/>
      <point x="269.0" y="410.0" type="line" smooth="yes"/>
      <point x="252.0" y="410.0"/>
      <point x="235.656663668" y="423.788173473"/>
      <point x="229.0" y="480.0" type="curve" smooth="yes"/>
      <point x="184.0" y="860.0" type="line" smooth="yes"/>
      <point x="178.482877677" y="906.343827514"/>
      <point x="175.0" y="983.0"/>
    </contour>
  </outline>
</glyph>
<glyph name="numbersign" format="2">
  <advance height="1920" width="1300"/>
  <unicode hex="0023"/>
  <outline>
    <contour>
      <point x="120.0" y="540.0" type="curve" smooth="yes"/>
      <point x="1100.0" y="540.0" type="line" smooth="yes"/>
      <point x="1157.0" y="540.0"/>
      <point x="1180.0" y="527.0"/>
      <point x="1180.0" y="490.0" type="curve" smooth="yes"/>
      <point x="1180.0" y="480.0" type="line" smooth="yes"/>
      <point x="1180.0" y="443.0"/>
      <point x="1158.0" y="430.0"/>
      <point x="1100.0" y="430.0" type="curve" smooth="yes"/>
      <point x="120.0" y="430.0" type="line" smooth="yes"/>
      <point x="53.0" y="430.0"/>
      <point x="40.0" y="443.0"/>
      <point x="40.0" y="480.0" type="curve" smooth="yes"/>
      <point x="40.0" y="490.0" type="line" smooth="yes"/>
      <point x="40.0" y="527.0"/>
      <point x="53.0" y="540.0"/>
    </contour>
    <contour>
      <point x="210.0" y="1050.0" type="curve" smooth="yes"/>
      <point x="1180.0" y="1050.0" type="line" smooth="yes"/>
      <point x="1237.0" y="1050.0"/>
      <point x="1260.0" y="1037.0"/>
      <point x="1260.0" y="1000.0" type="curve" smooth="yes"/>
      <point x="1260.0" y="990.0" type="line" smooth="yes"/>
      <point x="1260.0" y="953.0"/>
      <point x="1237.0" y="940.0"/>
      <point x="1180.0" y="940.0" type="curve" smooth="yes"/>
      <point x="210.0" y="940.0" type="line" smooth="yes"/>
      <point x="143.0" y="940.0"/>
      <point x="120.0" y="953.0"/>
      <point x="120.0" y="990.0" type="curve" smooth="yes"/>
      <point x="120.0" y="1000.0" type="line" smooth="yes"/>
      <point x="120.0" y="1037.0"/>
      <point x="143.0" y="1050.0"/>
    </contour>
    <contour>
      <point x="1005.0" y="1430.0" type="curve" smooth="yes"/>
      <point x="1010.0" y="1430.0" type="line" smooth="yes"/>
      <point x="1060.0" y="1430.0"/>
      <point x="1086.61959383" y="1382.82319887"/>
      <point x="1067.0" y="1300.0" type="curve" smooth="yes"/>
      <point x="778.0" y="80.0" type="line" smooth="yes"/>
      <point x="760.622725951" y="6.64264934434"/>
      <point x="745.0" y="-30.0"/>
      <point x="695.0" y="-30.0" type="curve" smooth="yes"/>
      <point x="690.0" y="-30.0" type="line" smooth="yes"/>
      <point x="640.0" y="-30.0"/>
      <point x="615.622725951" y="26.6426493443"/>
      <point x="633.0" y="100.0" type="curve" smooth="yes"/>
      <point x="922.0" y="1320.0" type="line" smooth="yes"/>
      <point x="937.146457345" y="1383.88301737"/>
      <point x="955.0" y="1430.0"/>
    </contour>
    <contour>
      <point x="585.0" y="1430.0" type="curve" smooth="yes"/>
      <point x="590.0" y="1430.0" type="line" smooth="yes"/>
      <point x="637.0" y="1430.0"/>
      <point x="666.61959383" y="1382.82319887"/>
      <point x="647.0" y="1300.0" type="curve" smooth="yes"/>
      <point x="358.0" y="80.0" type="line" smooth="yes"/>
      <point x="340.622725951" y="6.64264934434"/>
      <point x="322.0" y="-30.0"/>
      <point x="275.0" y="-30.0" type="curve" smooth="yes"/>
      <point x="270.0" y="-30.0" type="line" smooth="yes"/>
      <point x="223.0" y="-30.0"/>
      <point x="195.622725951" y="26.6426493443"/>
      <point x="213.0" y="100.0" type="curve" smooth="yes"/>
      <point x="502.0" y="1320.0" type="line" smooth="yes"/>
      <point x="517.146457345" y="1383.88301737"/>
      <point x="538.0" y="1430.0"/>
    </contour>
  </outline>
</glyph>
<glyph name="dollar" format="2">
  <advance height="1920" width="1110"/>
  <unicode hex="0024"/>
  <outline>
    <contour>
      <point x="150.0" y="538.0" type="curve" smooth="yes"/>
      <point x="160.0" y="538.0" type="line" smooth="yes"/>
      <point x="202.7734375" y="538.0"/>
      <point x="240.0" y="497.0"/>
      <point x="240.0" y="420.0" type="curve" smooth="yes"/>
      <point x="240.0" y="410.0" type="line" smooth="yes"/>
      <point x="240.0" y="266.4140625"/>
      <point x="339.641601562" y="115.0"/>
      <point x="560.0" y="115.0" type="curve" smooth="yes"/>
      <point x="778.0" y="115.0"/>
      <point x="850.0" y="197.0"/>
      <point x="850.0" y="378.0" type="curve" smooth="yes"/>
      <point x="850.0" y="494.666992188"/>
      <point x="781.085502456" y="555.261852083"/>
      <point x="538.0" y="614.0" type="curve" smooth="yes"/>
      <point x="286.41024214" y="674.793080058"/>
      <point x="110.0" y="815.0"/>
      <point x="110.0" y="1033.0" type="curve" smooth="yes"/>
      <point x="110.0" y="1273.0"/>
      <point x="253.0" y="1435.0"/>
      <point x="540.0" y="1435.0" type="curve" smooth="yes"/>
      <point x="834.0" y="1435.0"/>
      <point x="970.0" y="1256.0"/>
      <point x="970.0" y="1041.0" type="curve" smooth="yes"/>
      <point x="970.0" y="1036.0" type="line" smooth="yes"/>
      <point x="970.0" y="969.0"/>
      <point x="935.14453125" y="933.0"/>
      <point x="890.0" y="933.0" type="curve" smooth="yes"/>
      <point x="880.0" y="933.0" type="line" smooth="yes"/>
      <point x="834.85546875" y="933.0"/>
      <point x="800.0" y="964.0"/>
      <point x="800.0" y="1021.0" type="curve" smooth="yes"/>
      <point x="800.0" y="1031.0" type="line" smooth="yes"/>
      <point x="800.0" y="1166.0"/>
      <point x="735.0" y="1295.0"/>
      <point x="540.0" y="1295.0" type="curve" smooth="yes"/>
      <point x="363.0" y="1295.0"/>
      <point x="290.0" y="1203.0"/>
      <point x="290.0" y="1053.0" type="curve" smooth="yes"/>
      <point x="290.0" y="902.0"/>
      <point x="389.904463674" y="830.221599485"/>
      <point x="558.0" y="792.0" type="curve" smooth="yes"/>
      <point x="886.71875" y="717.255859375"/>
      <point x="1040.0" y="575.625976562"/>
      <point x="1040.0" y="388.0" type="curve" smooth="yes"/>
      <point x="1040.0" y="141.0"/>
      <point x="919.0" y="-35.0"/>
      <point x="560.0" y="-35.0" type="curve" smooth="yes"/>
      <point x="251.512695312" y="-35.0"/>
      <point x="71.0" y="152.553710938"/>
      <point x="71.0" y="379.0" type="curve" smooth="yes"/>
      <point x="71.0" y="419.0" type="line" smooth="yes"/>
      <point x="71.0" y="496.0"/>
      <point x="107.296875" y="538.0"/>
    </contour>
    <contour>
      <point x="545.0" y="1590.0" type="curve" smooth="yes"/>
      <point x="555.0" y="1590.0" type="line" smooth="yes"/>
      <point x="572.0" y="1590.0"/>
      <point x="590.0" y="1577.0"/>
      <point x="590.0" y="1540.0" type="curve" smooth="yes"/>
      <point x="590.0" y="-140.0" type="line" smooth="yes"/>
      <point x="590.0" y="-177.0"/>
      <point x="572.0" y="-190.0"/>
      <point x="555.0" y="-190.0" type="curve" smooth="yes"/>
      <point x="545.0" y="-190.0" type="line" smooth="yes"/>
      <point x="528.0" y="-190.0"/>
      <point x="510.0" y="-177.0"/>
      <point x="510.0" y="-140.0" type="curve" smooth="yes"/>
      <point x="510.0" y="1540.0" type="line" smooth="yes"/>
      <point x="510.0" y="1577.0"/>
      <point x="528.0" y="1590.0"/>
    </contour>
  </outline>
</glyph>
<glyph name="ampersand" format="2">
  <advance height="1920" width="1280"/>
  <unicode hex="0026"/>
  <outline>
    <contour>
      <point x="996.0" y="80.0" type="curve" smooth="yes"/>
      <point x="558.0" y="734.0" type="line" smooth="yes"/>
      <point x="433.89681864" y="919.145803085"/>
      <point x="340.0" y="1030.0"/>
      <point x="340.0" y="1163.0" type="curve" smooth="yes"/>
      <point x="340.0" y="1303.00195312"/>
      <point x="438.0" y="1435.0"/>
      <point x="645.0" y="1435.0" type="curve" smooth="yes"/>
      <point x="832.0" y="1435.0"/>
      <point x="950.0" y="1353.0"/>
      <point x="960.0" y="1183.0" type="curve"/>
      <point x="960.0" y="1015.0"/>
      <point x="865.04296875" y="877.8203125"/>
      <point x="637.0" y="776.0" type="curve" smooth="yes"/>
      <point x="383.354492188" y="662.748046875"/>
      <point x="236.0" y="592.0"/>
      <point x="236.0" y="448.0" type="curve" smooth="yes"/>
      <point x="236.0" y="389.00390625"/>
      <point x="249.98828125" y="341.438476562"/>
      <point x="284.5" y="286.0" type="curve" smooth="yes"/>
      <point x="330.0" y="212.909179688" type="line" smooth="yes"/>
      <point x="372.4921875" y="144.650390625"/>
      <point x="441.1953125" y="105.0"/>
      <point x="526.639648438" y="105.0" type="curve" smooth="yes"/>
      <point x="718.238928583" y="105.0"/>
      <point x="885.849146524" y="324.307170772"/>
      <point x="982.131835938" y="570.0" type="curve" smooth="yes"/>
      <point x="1009.6236508" y="640.153231242"/>
      <point x="1028.02246094" y="708.0"/>
      <point x="1075.0" y="708.0" type="curve" smooth="yes"/>
      <point x="1080.0" y="708.0" type="line" smooth="yes"/>
      <point x="1137.03027344" y="708.0"/>
      <point x="1152.92907" y="640.287451992"/>
      <point x="1125.38769531" y="567.0" type="curve" smooth="yes"/>
      <point x="992.240234375" y="212.6953125"/>
      <point x="798.814717401" y="-35.0"/>
      <point x="531.208984375" y="-35.0" type="curve" smooth="yes"/>
      <point x="395.288085938" y="-35.0"/>
      <point x="263.368164062" y="21.1064453125"/>
      <point x="199.0" y="118.501953125" type="curve" smooth="yes"/>
      <point x="146.0" y="198.696289062" type="line" smooth="yes"/>
      <point x="92.9755859375" y="278.927734375"/>
      <point x="66.0" y="351.583984375"/>
      <point x="66.0" y="448.0" type="curve" smooth="yes"/>
      <point x="66.0" y="657.0"/>
      <point x="282.0" y="767.0"/>
      <point x="527.0" y="862.0" type="curve" smooth="yes"/>
      <point x="687.7265625" y="924.322265625"/>
      <point x="825.0" y="1032.0"/>
      <point x="825.0" y="1163.0" type="curve" smooth="yes"/>
      <point x="825.0" y="1243.0"/>
      <point x="762.0" y="1300.0"/>
      <point x="665.0" y="1300.0" type="curve" smooth="yes"/>
      <point x="568.0" y="1300.0"/>
      <point x="510.0" y="1242.02636719"/>
      <point x="510.0" y="1153.0" type="curve" smooth="yes"/>
      <point x="510.0" y="1034.0"/>
      <point x="580.549848857" y="972.534547929"/>
      <point x="647.0" y="876.0" type="curve" smooth="yes"/>
      <point x="1163.0" y="127.0" type="line" smooth="yes"/>
      <point x="1214.39216286" y="52.4016860783"/>
      <point x="1197.0" y="-30.0"/>
      <point x="1140.0" y="-30.0" type="curve" smooth="yes"/>
      <point x="1135.0" y="-30.0" type="line" smooth="yes"/>
      <point x="1078.0" y="-30.0"/>
      <point x="1046.85498268" y="4.06584777655"/>
    </contour>
  </outline>
</glyph>
<glyph name="quotesingle" format="2">
  <advance height="1920" width="370"/>
  <unicode hex="0027"/>
  <outline>
    <contour>
      <point x="190.0" y="930.0" type="curve" smooth="yes"/>
      <point x="180.0" y="930.0" type="line" smooth="yes"/>
      <point x="163.0" y="930.0"/>
      <point x="156.480969297" y="944.969909425"/>
      <point x="148.0" y="980.0" type="curve" smooth="yes"/>
      <point x="102.0" y="1170.0" type="line" smooth="yes"/>
      <point x="88.2774992584" y="1226.67989437"/>
      <point x="80.0" y="1288.0"/>
      <point x="80.0" y="1335.0" type="curve" smooth="yes"/>
      <point x="80.0" y="1340.0" type="line" smooth="yes"/>
      <point x="80.0" y="1397.0"/>
      <point x="123.0" y="1450.0"/>
      <point x="180.0" y="1450.0" type="curve" smooth="yes"/>
      <point x="190.0" y="1450.0" type="line" smooth="yes"/>
      <point x="247.0" y="1450.0"/>
      <point x="290.0" y="1397.0"/>
      <point x="290.0" y="1340.0" type="curve" smooth="yes"/>
      <point x="290.0" y="1335.0" type="line" smooth="yes"/>
      <point x="290.0" y="1288.0"/>
      <point x="281.722500742" y="1226.67989437"/>
      <point x="268.0" y="1170.0" type="curve" smooth="yes"/>
      <point x="222.0" y="980.0" type="line" smooth="yes"/>
      <point x="213.519030703" y="944.969909425"/>
      <point x="207.0" y="930.0"/>
    </contour>
  </outline>
</glyph>
<glyph name="parenleft" format="2">
  <advance height="2048" width="535"/>
  <unicode hex="0028"/>
  <outline>
    <contour>
      <point x="70.0" y="838.0" type="line" smooth="yes"/>
      <point x="70.0" y="1243.0"/>
      <point x="204.156005275" y="1556.80356137"/>
      <point x="489.315429688" y="1618.0" type="curve" smooth="yes"/>
      <point x="516.559305141" y="1623.84665282"/>
      <point x="530.0" y="1607.13964844"/>
      <point x="530.0" y="1580.0" type="curve" smooth="yes"/>
      <point x="530.0" y="1570.0" type="line" smooth="yes"/>
      <point x="530.0" y="1543.21679688"/>
      <point x="515.20805091" y="1537.59516063"/>
      <point x="490.721679688" y="1526.0" type="curve" smooth="yes"/>
      <point x="349.113191981" y="1458.94338528"/>
      <point x="245.0" y="1259.0"/>
      <point x="245.0" y="858.0" type="curve" smooth="yes"/>
      <point x="245.0" y="392.0" type="line" smooth="yes"/>
      <point x="245.0" y="-9.0"/>
      <point x="349.11328125" y="-208.943359375"/>
      <point x="490.721679688" y="-276.0" type="curve" smooth="yes"/>
      <point x="515.208007812" y="-287.594726562"/>
      <point x="530.0" y="-293.216796875"/>
      <point x="530.0" y="-320.0" type="curve" smooth="yes"/>
      <point x="530.0" y="-330.0" type="line" smooth="yes"/>
      <point x="530.0" y="-357.139648438"/>
      <point x="516.559570312" y="-373.846679688"/>
      <point x="489.315429688" y="-368.0" type="curve" smooth="yes"/>
      <point x="204.15625" y="-306.803710938"/>
      <point x="70.0" y="7.0"/>
      <point x="70.0" y="412.0" type="curve" smooth="yes"/>
    </contour>
  </outline>
</glyph>
<glyph name="parenright" format="2">
  <advance height="2048" width="535"/>
  <unicode hex="0029"/>
  <outline>
    <contour>
      <point x="465.0" y="412.0" type="line" smooth="yes"/>
      <point x="465.0" y="7.0"/>
      <point x="330.84375" y="-306.803710938"/>
      <point x="45.6845703125" y="-368.0" type="curve" smooth="yes"/>
      <point x="18.4404296875" y="-373.846679688"/>
      <point x="5.0" y="-357.139648438"/>
      <point x="5.0" y="-330.0" type="curve" smooth="yes"/>
      <point x="5.0" y="-320.0" type="line" smooth="yes"/>
      <point x="5.0" y="-293.216796875"/>
      <point x="19.7919921875" y="-287.594726562"/>
      <point x="44.2783203125" y="-276.0" type="curve" smooth="yes"/>
      <point x="185.88671875" y="-208.943359375"/>
      <point x="290.0" y="-9.0"/>
      <point x="290.0" y="392.0" type="curve" smooth="yes"/>
      <point x="290.0" y="858.0" type="line" smooth="yes"/>
      <point x="290.0" y="1259.0"/>
      <point x="185.88671875" y="1458.94335938"/>
      <point x="44.2783203125" y="1526.0" type="curve" smooth="yes"/>
      <point x="19.7919921875" y="1537.59472656"/>
      <point x="5.0" y="1543.21679688"/>
      <point x="5.0" y="1570.0" type="curve" smooth="yes"/>
      <point x="5.0" y="1580.0" type="line" smooth="yes"/>
      <point x="5.0" y="1607.13964844"/>
      <point x="18.4404296875" y="1623.84667969"/>
      <point x="45.6845703125" y="1618.0" type="curve" smooth="yes"/>
      <point x="330.84375" y="1556.80371094"/>
      <point x="465.0" y="1243.0"/>
      <point x="465.0" y="838.0" type="curve" smooth="yes"/>
    </contour>
  </outline>
</glyph>
<glyph name="asterisk" format="2">
  <advance height="2048" width="914"/>
  <unicode hex="002A"/>
  <outline>
    <contour>
      <point x="468.0" y="986.0" type="line"/>
      <point x="446.0" y="1053.0" type="line"/>
      <point x="718.0" y="1186.0" type="line" smooth="yes"/>
      <point x="760.0" y="1206.0"/>
      <point x="784.0" y="1219.0"/>
      <point x="800.0" y="1224.0" type="curve" smooth="yes"/>
      <point x="801.0" y="1224.0" type="line" smooth="yes"/>
      <point x="836.0" y="1235.0"/>
      <point x="877.0" y="1216.0"/>
      <point x="893.0" y="1167.0" type="curve" smooth="yes"/>
      <point x="896.0" y="1157.0" type="line" smooth="yes"/>
      <point x="912.0" y="1108.0"/>
      <point x="890.0" y="1068.0"/>
      <point x="855.0" y="1057.0" type="curve" smooth="yes"/>
      <point x="854.0" y="1056.0" type="line" smooth="yes"/>
      <point x="828.0" y="1048.0"/>
      <point x="812.0" y="1048.0"/>
      <point x="766.0" y="1039.0" type="curve" smooth="yes"/>
    </contour>
    <contour>
      <point x="428.0" y="1000.0" type="line"/>
      <point x="485.0" y="1041.0" type="line"/>
      <point x="695.0" y="823.0" type="line" smooth="yes"/>
      <point x="727.0" y="789.0"/>
      <point x="746.0" y="772.0"/>
      <point x="756.0" y="758.0" type="curve" smooth="yes"/>
      <point x="757.0" y="757.0" type="line" smooth="yes"/>
      <point x="779.0" y="727.0"/>
      <point x="773.0" y="682.0"/>
      <point x="731.0" y="651.0" type="curve" smooth="yes"/>
      <point x="723.0" y="645.0" type="line" smooth="yes"/>
      <point x="681.0" y="614.0"/>
      <point x="636.0" y="623.0"/>
      <point x="614.0" y="653.0" type="curve" smooth="yes"/>
      <point x="614.0" y="654.0" type="line" smooth="yes"/>
      <point x="598.0" y="676.0"/>
      <point x="592.0" y="692.0"/>
      <point x="570.0" y="733.0" type="curve" smooth="yes"/>
    </contour>
    <contour>
      <point x="429.0" y="1041.0" type="line"/>
      <point x="486.0" y="1000.0" type="line"/>
      <point x="343.0" y="732.0" type="line" smooth="yes"/>
      <point x="321.0" y="691.0"/>
      <point x="310.0" y="668.0"/>
      <point x="300.0" y="654.0" type="curve" smooth="yes"/>
      <point x="299.0" y="653.0" type="line" smooth="yes"/>
      <point x="277.0" y="623.0"/>
      <point x="233.0" y="614.0"/>
      <point x="191.0" y="645.0" type="curve" smooth="yes"/>
      <point x="183.0" y="651.0" type="line" smooth="yes"/>
      <point x="141.0" y="682.0"/>
      <point x="135.0" y="727.0"/>
      <point x="157.0" y="757.0" type="curve" smooth="yes"/>
      <point x="157.0" y="757.0" type="line" smooth="yes"/>
      <point x="173.0" y="779.0"/>
      <point x="187.0" y="789.0"/>
      <point x="219.0" y="823.0" type="curve" smooth="yes"/>
    </contour>
    <contour>
      <point x="468.0" y="1053.0" type="line"/>
      <point x="446.0" y="986.0" type="line"/>
      <point x="148.0" y="1039.0" type="line" smooth="yes"/>
      <point x="102.0" y="1048.0"/>
      <point x="76.0" y="1051.0"/>
      <point x="60.0" y="1056.0" type="curve" smooth="yes"/>
      <point x="59.0" y="1057.0" type="line" smooth="yes"/>
      <point x="24.0" y="1068.0"/>
      <point x="2.0" y="1108.0"/>
      <point x="18.0" y="1157.0" type="curve" smooth="yes"/>
      <point x="21.0" y="1167.0" type="line" smooth="yes"/>
      <point x="37.0" y="1216.0"/>
      <point x="78.0" y="1235.0"/>
      <point x="113.0" y="1224.0" type="curve" smooth="yes"/>
      <point x="114.0" y="1224.0" type="line" smooth="yes"/>
      <point x="140.0" y="1216.0"/>
      <point x="154.0" y="1206.0"/>
      <point x="196.0" y="1186.0" type="curve" smooth="yes"/>
    </contour>
    <contour>
      <point x="492.0" y="1020.0" type="line"/>
      <point x="422.0" y="1020.0" type="line"/>
      <point x="380.0" y="1320.0" type="line" smooth="yes"/>
      <point x="374.0" y="1366.0"/>
      <point x="369.0" y="1392.0"/>
      <point x="369.0" y="1409.0" type="curve" smooth="yes"/>
      <point x="369.0" y="1410.0" type="line" smooth="yes"/>
      <point x="369.0" y="1447.0"/>
      <point x="400.0" y="1480.0"/>
      <point x="452.0" y="1480.0" type="curve" smooth="yes"/>
      <point x="462.0" y="1480.0" type="line" smooth="yes"/>
      <point x="514.0" y="1480.0"/>
      <point x="545.0" y="1447.0"/>
      <point x="545.0" y="1410.0" type="curve" smooth="yes"/>
      <point x="545.0" y="1409.0" type="line" smooth="yes"/>
      <point x="545.0" y="1382.0"/>
      <point x="540.0" y="1366.0"/>
      <point x="534.0" y="1320.0" type="curve" smooth="yes"/>
    </contour>
  </outline>
</glyph>
<glyph name="plus" format="2">
  <advance height="1920" width="1040"/>
  <unicode hex="002B"/>
  <outline>
    <contour>
      <point x="15.0" y="685.0" type="curve" smooth="yes"/>
      <point x="15.0" y="700.0" type="line" smooth="yes"/>
      <point x="15.0" y="737.0"/>
      <point x="48.0" y="770.0"/>
      <point x="115.0" y="770.0" type="curve" smooth="yes"/>
      <point x="925.0" y="770.0" type="line" smooth="yes"/>
      <point x="992.0" y="770.0"/>
      <point x="1025.0" y="737.0"/>
      <point x="1025.0" y="700.0" type="curve" smooth="yes"/>
      <point x="1025.0" y="685.0" type="line" smooth="yes"/>
      <point x="1025.0" y="648.0"/>
      <point x="992.0" y="615.0"/>
      <point x="925.0" y="615.0" type="curve" smooth="yes"/>
      <point x="115.0" y="615.0" type="line" smooth="yes"/>
      <point x="48.0" y="615.0"/>
      <point x="15.0" y="648.0"/>
    </contour>
    <contour>
      <point x="515.0" y="1220.0" type="curve" smooth="yes"/>
      <point x="525.0" y="1220.0" type="line" smooth="yes"/>
      <point x="562.0" y="1220.0"/>
      <point x="595.0" y="1187.0"/>
      <point x="595.0" y="1120.0" type="curve" smooth="yes"/>
      <point x="595.0" y="240.0" type="line" smooth="yes"/>
      <point x="595.0" y="173.0"/>
      <point x="562.0" y="140.0"/>
      <point x="525.0" y="140.0" type="curve" smooth="yes"/>
      <point x="515.0" y="140.0" type="line" smooth="yes"/>
      <point x="478.0" y="140.0"/>
      <point x="445.0" y="173.0"/>
      <point x="445.0" y="240.0" type="curve" smooth="yes"/>
      <point x="445.0" y="1120.0" type="line" smooth="yes"/>
      <point x="445.0" y="1187.0"/>
      <point x="478.0" y="1220.0"/>
    </contour>
  </outline>
</glyph>
<glyph name="comma" format="2">
  <advance height="1920" width="540"/>
  <unicode hex="002C"/>
  <outline>
    <contour>
      <point x="165.0" y="-220.0" type="curve" smooth="yes"/>
      <point x="164.0" y="-220.0" type="line" smooth="yes"/>
      <point x="147.0" y="-220.0"/>
      <point x="136.672828295" y="-208.037409297"/>
      <point x="157.0" y="-169.0" type="curve" smooth="yes"/>
      <point x="245.0" y="0.0" type="line"/>
      <point x="235.0" y="0.0" type="line" smooth="yes"/>
      <point x="186.479492188" y="0.0"/>
      <point x="145.0" y="51.404296875"/>
      <point x="145.0" y="110.0" type="curve" smooth="yes"/>
      <point x="145.0" y="120.0" type="line" smooth="yes"/>
      <point x="145.0" y="187.0"/>
      <point x="192.0" y="240.0"/>
      <point x="269.0" y="240.0" type="curve" smooth="yes"/>
      <point x="279.0" y="240.0" type="line" smooth="yes"/>
      <point x="356.0" y="240.0"/>
      <point x="405.0" y="187.0"/>
      <point x="405.0" y="120.0" type="curve" smooth="yes"/>
      <point x="405.0" y="110.0" type="line" smooth="yes"/>
      <point x="405.0" y="63.0"/>
      <point x="376.689682904" y="12.8046300551"/>
      <point x="340.0" y="-30.0" type="curve" smooth="yes"/>
      <point x="280.0" y="-100.0" type="line" smooth="yes"/>
      <point x="198.869606599" y="-193.611992386"/>
      <point x="183.0" y="-220.0"/>
    </contour>
  </outline>
</glyph>
<glyph name="hyphen" format="2">
  <advance height="1920" width="570"/>
  <unicode hex="002D"/>
  <outline>
    <contour>
      <point x="10.0" y="605.0" type="curve" smooth="yes"/>
      <point x="10.0" y="620.0" type="line" smooth="yes"/>
      <point x="10.0" y="657.0"/>
      <point x="43.0" y="690.0"/>
      <point x="110.0" y="690.0" type="curve" smooth="yes"/>
      <point x="460.0" y="690.0" type="line" smooth="yes"/>
      <point x="527.0" y="690.0"/>
      <point x="560.0" y="657.0"/>
      <point x="560.0" y="620.0" type="curve" smooth="yes"/>
      <point x="560.0" y="605.0" type="line" smooth="yes"/>
      <point x="560.0" y="568.0"/>
      <point x="527.0" y="535.0"/>
      <point x="460.0" y="535.0" type="curve" smooth="yes"/>
      <point x="110.0" y="535.0" type="line" smooth="yes"/>
      <point x="43.0" y="535.0"/>
      <point x="10.0" y="568.0"/>
    </contour>
  </outline>
</glyph>
<glyph name="period" format="2">
  <advance height="1920" width="540"/>
  <unicode hex="002E"/>
  <outline>
    <contour>
      <point x="275.0" y="-30.0" type="curve" smooth="yes"/>
      <point x="265.0" y="-30.0" type="line" smooth="yes"/>
      <point x="187.740758533" y="-30.0"/>
      <point x="135.0" y="32.7407585333"/>
      <point x="135.0" y="100.0" type="curve" smooth="yes"/>
      <point x="135.0" y="110.0" type="line" smooth="yes"/>
      <point x="135.0" y="177.259241467"/>
      <point x="187.740758533" y="240.0"/>
      <point x="265.0" y="240.0" type="curve" smooth="yes"/>
      <point x="275.0" y="240.0" type="line" smooth="yes"/>
      <point x="352.259241467" y="240.0"/>
      <point x="405.0" y="177.259241467"/>
      <point x="405.0" y="110.0" type="curve" smooth="yes"/>
      <point x="405.0" y="100.0" type="line" smooth="yes"/>
      <point x="405.0" y="32.7407585333"/>
      <point x="352.259241467" y="-30.0"/>
    </contour>
  </outline>
</glyph>
<glyph name="slash" format="2">
  <advance height="2048" width="840"/>
  <unicode hex="002F"/>
  <outline>
    <contour>
      <point x="746.0" y="1270.0" type="curve" smooth="yes"/>
      <point x="209.0" y="-20.0" type="line" smooth="yes"/>
      <point x="184.164905701" y="-79.6597237357"/>
      <point x="157.0" y="-130.0"/>
      <point x="110.0" y="-130.0" type="curve" smooth="yes"/>
      <point x="100.0" y="-130.0" type="line" smooth="yes"/>
      <point x="43.0" y="-130.0"/>
      <point x="33.5209979101" y="-55.228887702"/>
      <point x="69.0" y="30.0" type="curve" smooth="yes"/>
      <point x="606.0" y="1320.0" type="line" smooth="yes"/>
      <point x="630.835094299" y="1379.65972374"/>
      <point x="659.0" y="1430.0"/>
      <point x="705.0" y="1430.0" type="curve" smooth="yes"/>
      <point x="715.0" y="1430.0" type="line" smooth="yes"/>
      <point x="772.0" y="1430.0"/>
      <point x="781.47900209" y="1355.2288877"/>
    </contour>
  </outline>
</glyph>
<glyph name="one" format="2">
  <advance height="1920" width="600"/>
  <unicode hex="0031"/>
  <outline>
    <contour>
      <point x="246.0" y="1373.24902344" type="curve" smooth="yes"/>
      <point x="263.852539062" y="1386.11816406"/>
      <point x="279.655273438" y="1391.14160156"/>
      <point x="299.745117188" y="1415.0" type="curve" smooth="yes"/>
      <point x="311.500976562" y="1428.9609375"/>
      <point x="325.3984375" y="1450.0"/>
      <point x="352.0" y="1450.0" type="curve" smooth="yes"/>
      <point x="356.0" y="1450.0" type="line" smooth="yes"/>
      <point x="383.0" y="1450.0"/>
      <point x="395.0" y="1427.0"/>
      <point x="395.0" y="1400.0" type="curve" smooth="yes"/>
      <point x="395.0" y="80.0" type="line" smooth="yes"/>
      <point x="395.0" y="3.0"/>
      <point x="352.0" y="-30.0"/>
      <point x="305.0" y="-30.0" type="curve" smooth="yes"/>
      <point x="295.0" y="-30.0" type="line" smooth="yes"/>
      <point x="248.0" y="-30.0"/>
      <point x="205.0" y="3.0"/>
      <point x="205.0" y="80.0" type="curve" smooth="yes"/>
      <point x="205.0" y="1284.0" type="line" smooth="yes"/>
      <point x="205.0" y="1340.734375"/>
      <point x="224.0078125" y="1357.39550781"/>
    </contour>
  </outline>
</glyph>
<glyph name="two" format="2">
  <advance height="1920" width="1080"/>
  <unicode hex="0032"/>
  <outline>
    <contour>
      <point x="100.0" y="160.0" type="line" smooth="yes"/>
      <point x="100.0" y="574.034179688"/>
      <point x="785.0" y="755.631835938"/>
      <point x="785.0" y="1033.0" type="curve" smooth="yes"/>
      <point x="785.0" y="1078.0" type="line" smooth="yes"/>
      <point x="785.0" y="1188.0"/>
      <point x="706.0" y="1285.0"/>
      <point x="549.0" y="1285.0" type="curve" smooth="yes"/>
      <point x="379.0" y="1285.0"/>
      <point x="285.0" y="1174.57601869"/>
      <point x="285.0" y="1002.0" type="curve" smooth="yes"/>
      <point x="285.0" y="982.0" type="line" smooth="yes"/>
      <point x="285.0" y="905.0"/>
      <point x="247.0" y="872.0"/>
      <point x="200.0" y="872.0" type="curve" smooth="yes"/>
      <point x="190.0" y="872.0" type="line" smooth="yes"/>
      <point x="143.0" y="872.0"/>
      <point x="105.0" y="905.0"/>
      <point x="105.0" y="982.0" type="curve" smooth="yes"/>
      <point x="105.0" y="1002.0" type="line" smooth="yes"/>
      <point x="105.0" y="1275.74114594"/>
      <point x="282.0" y="1435.0"/>
      <point x="559.0" y="1435.0" type="curve" smooth="yes"/>
      <point x="806.0" y="1435.0"/>
      <point x="965.0" y="1303.0"/>
      <point x="965.0" y="1073.0" type="curve" smooth="yes"/>
      <point x="965.0" y="1028.0" type="line" smooth="yes"/>
      <point x="965.0" y="632.094726562"/>
      <point x="290.0" y="501.0"/>
      <point x="290.0" y="180.0" type="curve" smooth="yes"/>
      <point x="290.0" y="170.0" type="line"/>
      <point x="890.0" y="170.0" type="line" smooth="yes"/>
      <point x="967.0" y="170.0"/>
      <point x="1000.0" y="137.0"/>
      <point x="1000.0" y="90.0" type="curve" smooth="yes"/>
      <point x="1000.0" y="80.0" type="line" smooth="yes"/>
      <point x="1000.0" y="33.0"/>
      <point x="967.0" y="0.0"/>
      <point x="890.0" y="0.0" type="curve" smooth="yes"/>
      <point x="280.0" y="0.0" type="line" smooth="yes"/>
      <point x="153.0" y="0.0"/>
      <point x="100.0" y="48.0"/>
      <point x="100.0" y="155.0" type="curve" smooth="yes"/>
    </contour>
  </outline>
</glyph>
<glyph name="three" format="2">
  <advance height="1920" width="1100"/>
  <unicode hex="0033"/>
  <outline>
    <contour>
      <point x="170.0" y="437.0" type="curve" smooth="yes"/>
      <point x="180.0" y="437.0" type="line" smooth="yes"/>
      <point x="227.0" y="437.0"/>
      <point x="270.0" y="414.0"/>
      <point x="270.0" y="337.0" type="curve" smooth="yes"/>
      <point x="270.0" y="327.0" type="line" smooth="yes"/>
      <point x="270.0" y="207.036515383"/>
      <point x="381.0" y="115.0"/>
      <point x="540.0" y="115.0" type="curve" smooth="yes"/>
      <point x="707.0" y="115.0"/>
      <point x="825.0" y="222.0"/>
      <point x="825.0" y="352.0" type="curve" smooth="yes"/>
      <point x="825.0" y="447.0" type="line" smooth="yes"/>
      <point x="825.0" y="577.0"/>
      <point x="706.918702172" y="660.0"/>
      <point x="530.0" y="660.0" type="curve" smooth="yes"/>
      <point x="510.0" y="660.0" type="line" smooth="yes"/>
      <point x="443.0" y="660.0"/>
      <point x="410.0" y="683.0"/>
      <point x="410.0" y="730.0" type="curve" smooth="yes"/>
      <point x="410.0" y="740.0" type="line" smooth="yes"/>
      <point x="410.0" y="787.0"/>
      <point x="442.0" y="810.0"/>
      <point x="509.0" y="810.0" type="curve" smooth="yes"/>
      <point x="510.0" y="810.0" type="line" smooth="yes"/>
      <point x="676.886089058" y="810.0"/>
      <point x="770.0" y="903.0"/>
      <point x="770.0" y="1023.0" type="curve" smooth="yes"/>
      <point x="770.0" y="1088.0" type="line" smooth="yes"/>
      <point x="770.0" y="1198.0"/>
      <point x="706.0" y="1285.0"/>
      <point x="539.0" y="1285.0" type="curve" smooth="yes"/>
      <point x="389.0" y="1285.0"/>
      <point x="295.0" y="1184.8148849"/>
      <point x="295.0" y="1052.0" type="curve" smooth="yes"/>
      <point x="295.0" y="1032.0" type="line" smooth="yes"/>
      <point x="295.0" y="955.0"/>
      <point x="257.0" y="922.0"/>
      <point x="210.0" y="922.0" type="curve" smooth="yes"/>
      <point x="200.0" y="922.0" type="line" smooth="yes"/>
      <point x="153.0" y="922.0"/>
      <point x="115.0" y="955.0"/>
      <point x="115.0" y="1032.0" type="curve" smooth="yes"/>
      <point x="115.0" y="1052.0" type="line" smooth="yes"/>
      <point x="115.0" y="1286.0"/>
      <point x="297.0" y="1435.0"/>
      <point x="544.0" y="1435.0" type="curve" smooth="yes"/>
      <point x="791.0" y="1435.0"/>
      <point x="965.0" y="1313.0"/>
      <point x="965.0" y="1083.0" type="curve" smooth="yes"/>
      <point x="965.0" y="1058.0" type="line" smooth="yes"/>
      <point x="965.0" y="808.0"/>
      <point x="767.0" y="720.0"/>
      <point x="510.0" y="720.0" type="curve"/>
      <point x="530.0" y="770.0" type="line"/>
      <point x="787.0" y="770.0"/>
      <point x="1015.0" y="672.0"/>
      <point x="1015.0" y="422.0" type="curve" smooth="yes"/>
      <point x="1015.0" y="347.0" type="line" smooth="yes"/>
      <point x="1015.0" y="107.0"/>
      <point x="827.0" y="-35.0"/>
      <point x="530.0" y="-35.0" type="curve" smooth="yes"/>
      <point x="278.0" y="-35.0"/>
      <point x="80.0" y="99.0"/>
      <point x="80.0" y="327.0" type="curve" smooth="yes"/>
      <point x="80.0" y="337.0" type="line" smooth="yes"/>
      <point x="80.0" y="414.0"/>
      <point x="123.0" y="437.0"/>
    </contour>
  </outline>
</glyph>
<glyph name="four" format="2">
  <advance height="1920" width="1045"/>
  <unicode hex="0034"/>
  <outline>
    <contour>
      <point x="1040.0" y="410.0" type="curve" smooth="yes"/>
      <point x="1040.0" y="400.0" type="line" smooth="yes"/>
      <point x="1040.0" y="353.0"/>
      <point x="1007.0" y="330.0"/>
      <point x="930.0" y="330.0" type="curve" smooth="yes"/>
      <point x="820.0" y="330.0" type="line"/>
      <point x="820.0" y="80.0" type="line" smooth="yes"/>
      <point x="820.0" y="3.0"/>
      <point x="777.0" y="-30.0"/>
      <point x="730.0" y="-30.0" type="curve" smooth="yes"/>
      <point x="720.0" y="-30.0" type="line" smooth="yes"/>
      <point x="673.0" y="-30.0"/>
      <point x="630.0" y="3.0"/>
      <point x="630.0" y="80.0" type="curve" smooth="yes"/>
      <point x="630.0" y="330.0" type="line"/>
      <point x="130.0" y="330.0" type="line" smooth="yes"/>
      <point x="53.0" y="330.0"/>
      <point x="20.0" y="363.0"/>
      <point x="20.0" y="410.0" type="curve" smooth="yes"/>
      <point x="20.0" y="412.0" type="line" smooth="yes"/>
      <point x="20.0" y="449.0"/>
      <point x="41.1832276125" y="485.887528317"/>
      <point x="87.0" y="550.0" type="curve" smooth="yes"/>
      <point x="678.0" y="1377.0" type="line" smooth="yes"/>
      <point x="700.516896463" y="1408.43663323"/>
      <point x="722.5078125" y="1420.0"/>
      <point x="750.0" y="1420.0" type="curve" smooth="yes"/>
      <point x="760.0" y="1420.0" type="line" smooth="yes"/>
      <point x="797.0" y="1420.0"/>
      <point x="820.0" y="1387.0"/>
      <point x="820.0" y="1340.0" type="curve" smooth="yes"/>
      <point x="820.0" y="480.0" type="line"/>
      <point x="930.0" y="480.0" type="line" smooth="yes"/>
      <point x="1007.0" y="480.0"/>
      <point x="1040.0" y="457.0"/>
    </contour>
    <contour>
      <point x="640.0" y="480.0" type="line"/>
      <point x="640.0" y="1080.83300781" type="line"/>
      <point x="205.0" y="480.0" type="line"/>
    </contour>
  </outline>
</glyph>
<glyph name="five" format="2">
  <advance height="1920" width="1100"/>
  <unicode hex="0035"/>
  <outline>
    <contour>
      <point x="180.0" y="398.0" type="curve" smooth="yes"/>
      <point x="190.0" y="398.0" type="line" smooth="yes"/>
      <point x="246.907226562" y="398.0"/>
      <point x="265.235695516" y="360.653768972"/>
      <point x="290.643554688" y="289.0" type="curve" smooth="yes"/>
      <point x="321.698152526" y="201.42162655"/>
      <point x="387.780728992" y="105.0"/>
      <point x="535.0" y="105.0" type="curve" smooth="yes"/>
      <point x="684.0" y="105.0"/>
      <point x="810.0" y="205.0"/>
      <point x="810.0" y="398.0" type="curve" smooth="yes"/>
      <point x="810.0" y="523.0" type="line" smooth="yes"/>
      <point x="810.0" y="723.0"/>
      <point x="699.0" y="805.0"/>
      <point x="565.0" y="805.0" type="curve" smooth="yes"/>
      <point x="478.910310807" y="805.0"/>
      <point x="388.326469579" y="760.249341998"/>
      <point x="346.0" y="692.57421875" type="curve" smooth="yes"/>
      <point x="313.714096445" y="640.952797829"/>
      <point x="291.759765625" y="623.0"/>
      <point x="235.0" y="623.0" type="curve" smooth="yes"/>
      <point x="225.0" y="623.0" type="line" smooth="yes"/>
      <point x="168.0" y="623.0"/>
      <point x="130.298907375" y="666.481012702"/>
      <point x="142.0" y="743.0" type="curve" smooth="yes"/>
      <point x="218.0" y="1240.0" type="line" smooth="yes"/>
      <point x="236.723446318" y="1364.17733937"/>
      <point x="274.0" y="1400.0"/>
      <point x="401.0" y="1400.0" type="curve" smooth="yes"/>
      <point x="861.0" y="1400.0" type="line" smooth="yes"/>
      <point x="928.0" y="1400.0"/>
      <point x="961.0" y="1387.0"/>
      <point x="961.0" y="1350.0" type="curve" smooth="yes"/>
      <point x="961.0" y="1345.0" type="line" smooth="yes"/>
      <point x="961.0" y="1275.0"/>
      <point x="891.0" y="1250.0"/>
      <point x="741.0" y="1250.0" type="curve" smooth="yes"/>
      <point x="386.0" y="1250.0" type="line"/>
      <point x="292.328125" y="745.357421875" type="line"/>
      <point x="269.328125" y="745.357421875" type="line"/>
      <point x="323.97265625" y="868.810546875"/>
      <point x="449.609099591" y="955.0"/>
      <point x="610.0" y="955.0" type="curve" smooth="yes"/>
      <point x="810.0" y="955.0"/>
      <point x="1000.0" y="790.0"/>
      <point x="1000.0" y="493.0" type="curve" smooth="yes"/>
      <point x="1000.0" y="428.0" type="line" smooth="yes"/>
      <point x="1000.0" y="131.0"/>
      <point x="805.0" y="-35.0"/>
      <point x="535.0" y="-35.0" type="curve" smooth="yes"/>
      <point x="301.010559942" y="-35.0"/>
      <point x="151.969403717" y="100.523819337"/>
      <point x="120.536132812" y="288.0" type="curve" smooth="yes"/>
      <point x="107.801002436" y="363.955620735"/>
      <point x="142.916992188" y="398.0"/>
    </contour>
  </outline>
</glyph>
<glyph name="six" format="2">
  <advance height="1920" width="1229"/>
  <unicode hex="0036"/>
  <outline>
    <contour>
      <point x="630.0" y="740.0" type="curve" smooth="yes"/>
      <point x="480.0" y="740.0"/>
      <point x="310.0" y="675.0"/>
      <point x="310.0" y="492.0" type="curve" smooth="yes"/>
      <point x="310.0" y="422.0" type="line"/>
      <point x="250.0" y="522.0" type="line"/>
      <point x="250.0" y="786.0"/>
      <point x="463.0" y="890.0"/>
      <point x="670.0" y="890.0" type="curve" smooth="yes"/>
      <point x="927.0" y="890.0"/>
      <point x="1119.0" y="731.0"/>
      <point x="1119.0" y="457.0" type="curve" smooth="yes"/>
      <point x="1119.0" y="407.0" type="line" smooth="yes"/>
      <point x="1119.0" y="129.0"/>
      <point x="921.0" y="-35.0"/>
      <point x="629.0" y="-35.0" type="curve" smooth="yes"/>
      <point x="252.0" y="-35.0"/>
      <point x="125.0" y="167.0"/>
      <point x="125.0" y="527.0" type="curve" smooth="yes"/>
      <point x="125.0" y="843.0" type="line" smooth="yes"/>
      <point x="125.0" y="1223.0"/>
      <point x="293.0" y="1435.0"/>
      <point x="620.0" y="1435.0" type="curve" smooth="yes"/>
      <point x="927.0" y="1435.0"/>
      <point x="1059.0" y="1267.83496094"/>
      <point x="1059.0" y="1124.0" type="curve" smooth="yes"/>
      <point x="1059.0" y="1122.0" type="line" smooth="yes"/>
      <point x="1059.0" y="1045.0"/>
      <point x="1021.0" y="1012.0"/>
      <point x="974.0" y="1012.0" type="curve" smooth="yes"/>
      <point x="964.0" y="1012.0" type="line" smooth="yes"/>
      <point x="917.0" y="1012.0"/>
      <point x="889.0" y="1045.0"/>
      <point x="889.0" y="1102.0" type="curve" smooth="yes"/>
      <point x="889.0" y="1114.0" type="line" smooth="yes"/>
      <point x="889.0" y="1196.91113281"/>
      <point x="810.0" y="1285.0"/>
      <point x="640.0" y="1285.0" type="curve" smooth="yes"/>
      <point x="413.0" y="1285.0"/>
      <point x="310.0" y="1138.0"/>
      <point x="310.0" y="838.0" type="curve" smooth="yes"/>
      <point x="310.0" y="422.0" type="line" smooth="yes"/>
      <point x="310.0" y="232.0"/>
      <point x="432.0" y="115.0"/>
      <point x="619.0" y="115.0" type="curve" smooth="yes"/>
      <point x="818.0" y="115.0"/>
      <point x="929.0" y="237.0"/>
      <point x="929.0" y="417.0" type="curve" smooth="yes"/>
      <point x="929.0" y="457.0" type="line" smooth="yes"/>
      <point x="929.0" y="640.0"/>
      <point x="820.0" y="740.0"/>
    </contour>
  </outline>
</glyph>
<glyph name="seven" format="2">
  <advance height="1920" width="1015"/>
  <unicode hex="0037"/>
  <outline>
    <contour>
      <point x="957.0" y="1260.0" type="curve" smooth="yes"/>
      <point x="469.0" y="80.0" type="line" smooth="yes"/>
      <point x="441.222271332" y="12.8325413367"/>
      <point x="397.49609375" y="-30.0"/>
      <point x="350.0" y="-30.0" type="curve" smooth="yes"/>
      <point x="340.0" y="-30.0" type="line" smooth="yes"/>
      <point x="283.0" y="-30.0"/>
      <point x="237.185546875" y="28.5126953125"/>
      <point x="274.0" y="110.0" type="curve" smooth="yes"/>
      <point x="785.0" y="1240.0" type="line"/>
      <point x="155.0" y="1240.0" type="line" smooth="yes"/>
      <point x="78.0" y="1240.0"/>
      <point x="45.0" y="1263.0"/>
      <point x="45.0" y="1310.0" type="curve" smooth="yes"/>
      <point x="45.0" y="1330.0" type="line" smooth="yes"/>
      <point x="45.0" y="1377.0"/>
      <point x="78.0" y="1400.0"/>
      <point x="155.0" y="1400.0" type="curve" smooth="yes"/>
      <point x="855.0" y="1400.0" type="line" smooth="yes"/>
      <point x="962.372070312" y="1400.0"/>
      <point x="994.985351562" y="1351.85058594"/>
    </contour>
  </outline>
</glyph>
<glyph name="nine" format="2">
  <advance height="1920" width="1169"/>
  <unicode hex="0039"/>
  <outline>
    <contour>
      <point x="569.0" y="660.0" type="curve" smooth="yes"/>
      <point x="719.0" y="660.0"/>
      <point x="859.0" y="755.0"/>
      <point x="859.0" y="948.0" type="curve" smooth="yes"/>
      <point x="859.0" y="1018.0" type="line"/>
      <point x="919.0" y="918.0" type="line"/>
      <point x="919.0" y="644.0"/>
      <point x="736.0" y="510.0"/>
      <point x="529.0" y="510.0" type="curve" smooth="yes"/>
      <point x="292.0" y="510.0"/>
      <point x="110.0" y="669.0"/>
      <point x="110.0" y="943.0" type="curve" smooth="yes"/>
      <point x="110.0" y="993.0" type="line" smooth="yes"/>
      <point x="110.0" y="1271.0"/>
      <point x="298.0" y="1435.0"/>
      <point x="570.0" y="1435.0" type="curve" smooth="yes"/>
      <point x="927.0" y="1435.0"/>
      <point x="1044.0" y="1243.0"/>
      <point x="1044.0" y="913.0" type="curve" smooth="yes"/>
      <point x="1044.0" y="557.0" type="line" smooth="yes"/>
      <point x="1044.0" y="177.0"/>
      <point x="866.0" y="-35.0"/>
      <point x="560.0" y="-35.0" type="curve" smooth="yes"/>
      <point x="253.0" y="-35.0"/>
      <point x="121.0" y="132.165039062"/>
      <point x="121.0" y="276.0" type="curve" smooth="yes"/>
      <point x="121.0" y="278.0" type="line" smooth="yes"/>
      <point x="121.0" y="355.0"/>
      <point x="159.0" y="388.0"/>
      <point x="206.0" y="388.0" type="curve" smooth="yes"/>
      <point x="216.0" y="388.0" type="line" smooth="yes"/>
      <point x="263.0" y="388.0"/>
      <point x="291.0" y="355.0"/>
      <point x="291.0" y="298.0" type="curve" smooth="yes"/>
      <point x="291.0" y="286.0" type="line" smooth="yes"/>
      <point x="291.0" y="203.088867188"/>
      <point x="370.0" y="115.0"/>
      <point x="540.0" y="115.0" type="curve" smooth="yes"/>
      <point x="746.0" y="115.0"/>
      <point x="859.0" y="262.0"/>
      <point x="859.0" y="562.0" type="curve" smooth="yes"/>
      <point x="859.0" y="1018.0" type="line" smooth="yes"/>
      <point x="859.0" y="1168.0"/>
      <point x="747.0" y="1285.0"/>
      <point x="580.0" y="1285.0" type="curve" smooth="yes"/>
      <point x="401.0" y="1285.0"/>
      <point x="300.0" y="1163.0"/>
      <point x="300.0" y="983.0" type="curve" smooth="yes"/>
      <point x="300.0" y="943.0" type="line" smooth="yes"/>
      <point x="300.0" y="760.0"/>
      <point x="399.0" y="660.0"/>
    </contour>
  </outline>
</glyph>
<glyph name="less" format="2">
  <advance height="1920" width="1010"/>
  <unicode hex="003C"/>
  <outline>
    <contour>
      <point x="780.0" y="126.0" type="curve" smooth="yes"/>
      <point x="130.0" y="514.0" type="line" smooth="yes"/>
      <point x="85.667186235" y="540.353394849"/>
      <point x="70.0" y="558.0"/>
      <point x="70.0" y="595.0" type="curve" smooth="yes"/>
      <point x="70.0" y="605.0" type="line" smooth="yes"/>
      <point x="70.0" y="642.0"/>
      <point x="85.667186235" y="659.646605151"/>
      <point x="130.0" y="686.0" type="curve" smooth="yes"/>
      <point x="780.0" y="1074.0" type="line" smooth="yes"/>
      <point x="838.990135424" y="1109.21257315"/>
      <point x="890.0" y="1057.0"/>
      <point x="890.0" y="1010.0" type="curve" smooth="yes"/>
      <point x="890.0" y="1000.0" type="line" smooth="yes"/>
      <point x="890.0" y="953.0"/>
      <point x="840.674074139" y="928.239628675"/>
      <point x="780.0" y="894.0" type="curve" smooth="yes"/>
      <point x="259.01953125" y="600.0" type="line"/>
      <point x="780.0" y="306.0" type="line" smooth="yes"/>
      <point x="840.674074139" y="271.760371325"/>
      <point x="890.0" y="247.0"/>
      <point x="890.0" y="200.0" type="curve" smooth="yes"/>
      <point x="890.0" y="190.0" type="line" smooth="yes"/>
      <point x="890.0" y="143.0"/>
      <point x="838.990135424" y="90.7874268544"/>
    </contour>
  </outline>
</glyph>
<glyph name="equal" format="2">
  <advance height="1920" width="1180"/>
  <unicode hex="003D"/>
  <outline>
    <contour>
      <point x="120.0" y="305.0" type="curve" smooth="yes"/>
      <point x="120.0" y="320.0" type="line" smooth="yes"/>
      <point x="120.0" y="357.0"/>
      <point x="153.0" y="390.0"/>
      <point x="220.0" y="390.0" type="curve" smooth="yes"/>
      <point x="960.0" y="390.0" type="line" smooth="yes"/>
      <point x="1027.0" y="390.0"/>
      <point x="1060.0" y="357.0"/>
      <point x="1060.0" y="320.0" type="curve" smooth="yes"/>
      <point x="1060.0" y="305.0" type="line" smooth="yes"/>
      <point x="1060.0" y="268.0"/>
      <point x="1027.0" y="235.0"/>
      <point x="960.0" y="235.0" type="curve" smooth="yes"/>
      <point x="220.0" y="235.0" type="line" smooth="yes"/>
      <point x="153.0" y="235.0"/>
      <point x="120.0" y="268.0"/>
    </contour>
    <contour>
      <point x="120.0" y="675.0" type="curve" smooth="yes"/>
      <point x="120.0" y="690.0" type="line" smooth="yes"/>
      <point x="120.0" y="727.0"/>
      <point x="153.0" y="760.0"/>
      <point x="220.0" y="760.0" type="curve" smooth="yes"/>
      <point x="960.0" y="760.0" type="line" smooth="yes"/>
      <point x="1027.0" y="760.0"/>
      <point x="1060.0" y="727.0"/>
      <point x="1060.0" y="690.0" type="curve" smooth="yes"/>
      <point x="1060.0" y="675.0" type="line" smooth="yes"/>
      <point x="1060.0" y="638.0"/>
      <point x="1027.0" y="605.0"/>
      <point x="960.0" y="605.0" type="curve" smooth="yes"/>
      <point x="220.0" y="605.0" type="line" smooth="yes"/>
      <point x="153.0" y="605.0"/>
      <point x="120.0" y="638.0"/>
    </contour>
  </outline>
</glyph>
<glyph name="greater" format="2">
  <advance height="1920" width="1010"/>
  <unicode hex="003E"/>
  <outline>
    <contour>
      <point x="230.0" y="1074.0" type="curve" smooth="yes"/>
      <point x="880.0" y="686.0" type="line" smooth="yes"/>
      <point x="924.333007812" y="659.646484375"/>
      <point x="940.0" y="642.0"/>
      <point x="940.0" y="605.0" type="curve" smooth="yes"/>
      <point x="940.0" y="595.0" type="line" smooth="yes"/>
      <point x="940.0" y="558.0"/>
      <point x="924.333007812" y="540.353515625"/>
      <point x="880.0" y="514.0" type="curve" smooth="yes"/>
      <point x="230.0" y="126.0" type="line" smooth="yes"/>
      <point x="171.009765625" y="90.787109375"/>
      <point x="120.0" y="143.0"/>
      <point x="120.0" y="190.0" type="curve" smooth="yes"/>
      <point x="120.0" y="200.0" type="line" smooth="yes"/>
      <point x="120.0" y="247.0"/>
      <point x="169.326171875" y="271.760742188"/>
      <point x="230.0" y="306.0" type="curve" smooth="yes"/>
      <point x="750.98046875" y="600.0" type="line"/>
      <point x="230.0" y="894.0" type="line" smooth="yes"/>
      <point x="169.326171875" y="928.239257812"/>
      <point x="120.0" y="953.0"/>
      <point x="120.0" y="1000.0" type="curve" smooth="yes"/>
      <point x="120.0" y="1010.0" type="line" smooth="yes"/>
      <point x="120.0" y="1057.0"/>
      <point x="171.009765625" y="1109.21289062"/>
    </contour>
  </outline>
</glyph>
<glyph name="question" format="2">
  <advance height="1920" width="1080"/>
  <unicode hex="003F"/>
  <outline>
    <contour>
      <point x="565.0" y="-30.0" type="curve" smooth="yes"/>
      <point x="555.0" y="-30.0" type="line" smooth="yes"/>
      <point x="477.741210938" y="-30.0"/>
      <point x="425.0" y="32.7412109375"/>
      <point x="425.0" y="100.0" type="curve" smooth="yes"/>
      <point x="425.0" y="110.0" type="line" smooth="yes"/>
      <point x="425.0" y="177.258789062"/>
      <point x="477.741210938" y="240.0"/>
      <point x="555.0" y="240.0" type="curve" smooth="yes"/>
      <point x="565.0" y="240.0" type="line" smooth="yes"/>
      <point x="642.258789062" y="240.0"/>
      <point x="695.0" y="177.258789062"/>
      <point x="695.0" y="110.0" type="curve" smooth="yes"/>
      <point x="695.0" y="100.0" type="line" smooth="yes"/>
      <point x="695.0" y="32.7412109375"/>
      <point x="642.258789062" y="-30.0"/>
    </contour>
    <contour>
      <point x="552.0" y="370.0" type="curve" smooth="yes"/>
      <point x="550.0" y="370.0" type="line" smooth="yes"/>
      <point x="522.912109375" y="370.0"/>
      <point x="496.012028232" y="397.952204399"/>
      <point x="494.740234375" y="439.0" type="curve" smooth="yes"/>
      <point x="485.361328125" y="741.708984375"/>
      <point x="805.0" y="754.14453125"/>
      <point x="805.0" y="1023.0" type="curve" smooth="yes"/>
      <point x="805.0" y="1068.0" type="line" smooth="yes"/>
      <point x="805.0" y="1238.0"/>
      <point x="736.0" y="1335.0"/>
      <point x="579.0" y="1335.0" type="curve" smooth="yes"/>
      <point x="409.0" y="1335.0"/>
      <point x="325.0" y="1234.77148438"/>
      <point x="325.0" y="1052.0" type="curve" smooth="yes"/>
      <point x="325.0" y="1032.0" type="line" smooth="yes"/>
      <point x="325.0" y="955.0"/>
      <point x="287.0" y="922.0"/>
      <point x="240.0" y="922.0" type="curve" smooth="yes"/>
      <point x="230.0" y="922.0" type="line" smooth="yes"/>
      <point x="183.0" y="922.0"/>
      <point x="145.0" y="955.0"/>
      <point x="145.0" y="1032.0" type="curve" smooth="yes"/>
      <point x="145.0" y="1052.0" type="line" smooth="yes"/>
      <point x="145.0" y="1326.0"/>
      <point x="312.0" y="1485.0"/>
      <point x="589.0" y="1485.0" type="curve" smooth="yes"/>
      <point x="836.0" y="1485.0"/>
      <point x="1005.0" y="1343.0"/>
      <point x="1005.0" y="1073.0" type="curve" smooth="yes"/>
      <point x="1005.0" y="1048.0" type="line" smooth="yes"/>
      <point x="1005.0" y="734.727539062"/>
      <point x="694.190429688" y="728.869140625"/>
      <point x="616.556640625" y="438.0" type="curve" smooth="yes"/>
      <point x="606.196184372" y="399.182662303"/>
      <point x="578.930664062" y="370.0"/>
    </contour>
  </outline>
</glyph>
<glyph name="at" format="2">
  <advance height="1920" width="1990"/>
  <unicode hex="0040"/>
  <outline>
    <contour>
      <point x="1265.0" y="472.0" type="line"/>
      <point x="1265.0" y="182.0"/>
      <point x="1118.0" y="40.0"/>
      <point x="921.0" y="40.0" type="curve" smooth="yes"/>
      <point x="734.0" y="40.0"/>
      <point x="565.0" y="157.0"/>
      <point x="565.0" y="497.0" type="curve" smooth="yes"/>
      <point x="565.0" y="528.0" type="line" smooth="yes"/>
      <point x="565.0" y="848.0"/>
      <point x="724.0" y="985.0"/>
      <point x="911.0" y="985.0" type="curve" smooth="yes"/>
      <point x="1118.0" y="985.0"/>
      <point x="1275.0" y="843.0"/>
      <point x="1275.0" y="553.0" type="curve"/>
      <point x="1175.0" y="533.0" type="line"/>
      <point x="1175.0" y="743.0"/>
      <point x="1098.0" y="845.0"/>
      <point x="961.0" y="845.0" type="curve" smooth="yes"/>
      <point x="834.0" y="845.0"/>
      <point x="755.0" y="763.0"/>
      <point x="755.0" y="553.0" type="curve" smooth="yes"/>
      <point x="755.0" y="472.0" type="line" smooth="yes"/>
      <point x="755.0" y="262.0"/>
      <point x="834.0" y="180.0"/>
      <point x="961.0" y="180.0" type="curve" smooth="yes"/>
      <point x="1098.0" y="180.0"/>
      <point x="1175.0" y="282.0"/>
      <point x="1175.0" y="492.0" type="curve"/>
    </contour>
    <contour>
      <point x="1292.0" y="-284.827148438" type="curve" smooth="yes"/>
      <point x="1213.25585938" y="-328.194335938"/>
      <point x="1134.91626673" y="-360.0"/>
      <point x="985.0" y="-360.0" type="curve" smooth="yes"/>
      <point x="428.0" y="-360.0"/>
      <point x="100.0" y="13.0"/>
      <point x="100.0" y="493.0" type="curve" smooth="yes"/>
      <point x="100.0" y="583.0" type="line" smooth="yes"/>
      <point x="100.0" y="1093.0"/>
      <point x="488.0" y="1435.0"/>
      <point x="1025.0" y="1435.0" type="curve" smooth="yes"/>
      <point x="1632.0" y="1435.0"/>
      <point x="1890.0" y="1024.0"/>
      <point x="1890.0" y="633.0" type="curve" smooth="yes"/>
      <point x="1890.0" y="543.0" type="line" smooth="yes"/>
      <point x="1890.0" y="183.0"/>
      <point x="1697.0" y="40.0"/>
      <point x="1490.0" y="40.0" type="curve" smooth="yes"/>
      <point x="1283.0" y="40.0"/>
      <point x="1175.0" y="185.0"/>
      <point x="1175.0" y="405.0" type="curve" smooth="yes"/>
      <point x="1175.0" y="775.0" type="line"/>
      <point x="1232.0" y="895.0" type="line" smooth="yes"/>
      <point x="1260.0" y="954.0"/>
      <point x="1288.0" y="985.0"/>
      <point x="1315.0" y="985.0" type="curve" smooth="yes"/>
      <point x="1316.0" y="985.0" type="line" smooth="yes"/>
      <point x="1343.0" y="985.0"/>
      <point x="1365.0" y="972.0"/>
      <point x="1365.0" y="925.0" type="curve" smooth="yes"/>
      <point x="1365.0" y="445.0" type="line" smooth="yes"/>
      <point x="1365.0" y="250.0"/>
      <point x="1403.0" y="180.0"/>
      <point x="1510.0" y="180.0" type="curve" smooth="yes"/>
      <point x="1607.0" y="180.0"/>
      <point x="1710.0" y="303.0"/>
      <point x="1710.0" y="543.0" type="curve" smooth="yes"/>
      <point x="1710.0" y="633.0" type="line" smooth="yes"/>
      <point x="1710.0" y="973.0"/>
      <point x="1472.0" y="1295.0"/>
      <point x="1025.0" y="1295.0" type="curve" smooth="yes"/>
      <point x="618.0" y="1295.0"/>
      <point x="290.0" y="1013.0"/>
      <point x="290.0" y="593.0" type="curve" smooth="yes"/>
      <point x="290.0" y="483.0" type="line" smooth="yes"/>
      <point x="290.0" y="103.0"/>
      <point x="548.0" y="-220.0"/>
      <point x="985.0" y="-220.0" type="curve" smooth="yes"/>
      <point x="1087.12312814" y="-220.0"/>
      <point x="1172.51357297" y="-191.077452199"/>
      <point x="1237.0" y="-154.412109375" type="curve" smooth="yes"/>
      <point x="1292.15103318" y="-123.054634139"/>
      <point x="1329.55664062" y="-146.669921875"/>
      <point x="1338.0" y="-172.0" type="curve" smooth="yes"/>
      <point x="1340.0" y="-178.0" type="line" smooth="yes"/>
      <point x="1351.61650391" y="-212.849511719"/>
      <point x="1341.94801246" y="-257.31900873"/>
    </contour>
  </outline>
</glyph>
<glyph name="A" format="2">
  <advance height="1920" width="1280"/>
  <unicode hex="0041"/>
  <anchor x="625.0" y="0.0" name="bottom"/>
  <anchor x="1130.0" y="0.0" name="ogonek"/>
  <anchor x="624.0" y="1400.0" name="top"/>
  <outline>
    <contour>
      <point x="310.0" y="570.0" type="line"/>
      <point x="940.0" y="570.0" type="line"/>
      <point x="940.0" y="420.0" type="line"/>
      <point x="310.0" y="420.0" type="line"/>
    </contour>
    <contour>
      <point x="624.30859375" y="1226.3828125" type="line"/>
      <point x="253.0" y="95.0" type="line" smooth="yes"/>
      <point x="229.297391828" y="22.7778000602"/>
      <point x="203.0" y="-35.0"/>
      <point x="143.0" y="-35.0" type="curve" smooth="yes"/>
      <point x="133.0" y="-35.0" type="line" smooth="yes"/>
      <point x="63.0" y="-35.0"/>
      <point x="48.2557545238" y="23.5763928888"/>
      <point x="73.0" y="95.0" type="curve" smooth="yes"/>
      <point x="487.0" y="1290.0" type="line" smooth="yes"/>
      <point x="511.75480563" y="1361.41973262"/>
      <point x="540.0" y="1400.0"/>
      <point x="630.0" y="1400.0" type="curve" smooth="yes"/>
      <point x="640.0" y="1400.0" type="line" smooth="yes"/>
      <point x="730.0" y="1400.0"/>
      <point x="757.77386236" y="1361.04258333"/>
      <point x="783.0" y="1290.0" type="curve" smooth="yes"/>
      <point x="1207.0" y="95.0" type="line" smooth="yes"/>
      <point x="1232.20907868" y="23.9508277848"/>
      <point x="1205.0" y="-35.0"/>
      <point x="1135.0" y="-35.0" type="curve" smooth="yes"/>
      <point x="1125.0" y="-35.0" type="line" smooth="yes"/>
      <point x="1065.0" y="-35.0"/>
      <point x="1031.28159248" y="23.2142845419"/>
      <point x="1007.0" y="95.0" type="curve" smooth="yes"/>
    </contour>
  </outline>
</glyph>
<glyph name="B" format="2">
  <advance height="1920" width="1280"/>
  <unicode hex="0042"/>
  <anchor x="625.0" y="0.0" name="bottom"/>
  <anchor x="624.0" y="1400.0" name="top"/>
  <outline>
    <contour>
      <point x="360.0" y="790.0" type="line"/>
      <point x="690.0" y="790.0" type="line" smooth="yes"/>
      <point x="856.809411784" y="790.0"/>
      <point x="945.0" y="863.0"/>
      <point x="945.0" y="983.0" type="curve" smooth="yes"/>
      <point x="945.0" y="1068.0" type="line" smooth="yes"/>
      <point x="945.0" y="1188.0"/>
      <point x="856.993036662" y="1250.0"/>
      <point x="690.0" y="1250.0" type="curve" smooth="yes"/>
      <point x="360.0" y="1250.0" type="line"/>
    </contour>
    <contour>
      <point x="710.0" y="750.0" type="line"/>
      <point x="967.0" y="750.0"/>
      <point x="1195.0" y="652.0"/>
      <point x="1195.0" y="402.0" type="curve" smooth="yes"/>
      <point x="1195.0" y="347.0" type="line" smooth="yes"/>
      <point x="1195.0" y="67.0"/>
      <point x="966.995593524" y="-3.14728831004e-14"/>
      <point x="710.0" y="0.0" type="curve" smooth="yes"/>
      <point x="330.0" y="0.0" type="line" smooth="yes"/>
      <point x="223.0" y="0.0"/>
      <point x="170.0" y="53.0"/>
      <point x="170.0" y="160.0" type="curve" smooth="yes"/>
      <point x="170.0" y="1240.0" type="line" smooth="yes"/>
      <point x="170.0" y="1347.0"/>
      <point x="223.0" y="1400.0"/>
      <point x="330.0" y="1400.0" type="curve" smooth="yes"/>
      <point x="690.0" y="1400.0" type="line" smooth="yes"/>
      <point x="946.904990758" y="1400.0"/>
      <point x="1145.0" y="1313.0"/>
      <point x="1145.0" y="1063.0" type="curve" smooth="yes"/>
      <point x="1145.0" y="1038.0" type="line" smooth="yes"/>
      <point x="1145.0" y="788.0"/>
      <point x="947.0" y="700.0"/>
      <point x="690.0" y="700.0" type="curve"/>
    </contour>
    <contour>
      <point x="710.0" y="640.0" type="curve" smooth="yes"/>
      <point x="360.0" y="640.0" type="line"/>
      <point x="360.0" y="150.0" type="line"/>
      <point x="710.0" y="150.0" type="line" smooth="yes"/>
      <point x="886.808199852" y="150.0"/>
      <point x="995.0" y="222.0"/>
      <point x="995.0" y="342.0" type="curve" smooth="yes"/>
      <point x="995.0" y="437.0" type="line" smooth="yes"/>
      <point x="995.0" y="557.0"/>
      <point x="886.913284355" y="640.0"/>
    </contour>
  </outline>
</glyph>
<glyph name="C" format="2">
  <advance height="1920" width="1385"/>
  <unicode hex="0043"/>
  <anchor x="685.0" y="0.0" name="bottom"/>
  <anchor x="704.0" y="1400.0" name="top"/>
  <outline>
    <contour>
      <point x="1260.0" y="418.0" type="curve" smooth="yes"/>
      <point x="1249.0" y="366.0"/>
      <point x="1233.0" y="315.0"/>
      <point x="1211.0" y="269.0" type="curve" smooth="yes"/>
      <point x="1128.0" y="91.0"/>
      <point x="962.0" y="-35.0"/>
      <point x="695.0" y="-35.0" type="curve" smooth="yes"/>
      <point x="308.0" y="-35.0"/>
      <point x="100.0" y="238.0"/>
      <point x="100.0" y="618.0" type="curve" smooth="yes"/>
      <point x="100.0" y="783.0" type="line" smooth="yes"/>
      <point x="100.0" y="1163.0"/>
      <point x="308.0" y="1435.0"/>
      <point x="695.0" y="1435.0" type="curve" smooth="yes"/>
      <point x="953.0" y="1435.0"/>
      <point x="1105.0" y="1329.0"/>
      <point x="1183.0" y="1185.0" type="curve" smooth="yes"/>
      <point x="1204.0" y="1147.0"/>
      <point x="1219.0" y="1106.0"/>
      <point x="1230.0" y="1063.0" type="curve" smooth="yes"/>
      <point x="1247.0" y="996.0"/>
      <point x="1207.0" y="943.0"/>
      <point x="1160.0" y="943.0" type="curve" smooth="yes"/>
      <point x="1150.0" y="943.0" type="line" smooth="yes"/>
      <point x="1093.0" y="943.0"/>
      <point x="1077.0" y="997.0"/>
      <point x="1058.0" y="1063.0" type="curve" smooth="yes"/>
      <point x="1018.0" y="1199.0"/>
      <point x="882.0" y="1295.0"/>
      <point x="705.0" y="1295.0" type="curve" smooth="yes"/>
      <point x="448.0" y="1295.0"/>
      <point x="300.0" y="1063.0"/>
      <point x="300.0" y="793.0" type="curve" smooth="yes"/>
      <point x="300.0" y="608.0" type="line" smooth="yes"/>
      <point x="300.0" y="338.0"/>
      <point x="428.0" y="105.0"/>
      <point x="705.0" y="105.0" type="curve" smooth="yes"/>
      <point x="922.0" y="105.0"/>
      <point x="1050.0" y="235.0"/>
      <point x="1090.0" y="418.0" type="curve" smooth="yes"/>
      <point x="1102.0" y="475.0"/>
      <point x="1123.0" y="528.0"/>
      <point x="1180.0" y="528.0" type="curve" smooth="yes"/>
      <point x="1190.0" y="528.0" type="line" smooth="yes"/>
      <point x="1247.0" y="528.0"/>
      <point x="1272.0" y="475.0"/>
    </contour>
  </outline>
</glyph>
<glyph name="E" format="2">
  <advance height="1920" width="1280"/>
  <unicode hex="0045"/>
  <anchor x="685.0" y="0.0" name="bottom"/>
  <anchor x="1040.0" y="0.0" name="ogonek"/>
  <anchor x="684.0" y="1400.0" name="top"/>
  <outline>
    <contour>
      <point x="360.0" y="790.0" type="line"/>
      <point x="850.0" y="790.0" type="line" smooth="yes"/>
      <point x="917.0" y="790.0"/>
      <point x="940.0" y="767.0"/>
      <point x="940.0" y="720.0" type="curve" smooth="yes"/>
      <point x="940.0" y="710.0" type="line" smooth="yes"/>
      <point x="940.0" y="663.0"/>
      <point x="917.0" y="640.0"/>
      <point x="850.0" y="640.0" type="curve" smooth="yes"/>
      <point x="360.0" y="640.0" type="line"/>
      <point x="360.0" y="150.0" type="line"/>
      <point x="1120.0" y="150.0" type="line" smooth="yes"/>
      <point x="1187.0" y="150.0"/>
      <point x="1210.0" y="127.0"/>
      <point x="1210.0" y="80.0" type="curve" smooth="yes"/>
      <point x="1210.0" y="70.0" type="line" smooth="yes"/>
      <point x="1210.0" y="23.0"/>
      <point x="1187.0" y="0.0"/>
      <point x="1120.0" y="0.0" type="curve" smooth="yes"/>
      <point x="330.0" y="0.0" type="line" smooth="yes"/>
      <point x="223.0" y="0.0"/>
      <point x="170.0" y="53.0"/>
      <point x="170.0" y="160.0" type="curve" smooth="yes"/>
      <point x="170.0" y="1240.0" type="line" smooth="yes"/>
      <point x="170.0" y="1347.0"/>
      <point x="223.0" y="1400.0"/>
      <point x="330.0" y="1400.0" type="curve" smooth="yes"/>
      <point x="1100.0" y="1400.0" type="line" smooth="yes"/>
      <point x="1167.0" y="1400.0"/>
      <point x="1190.0" y="1377.0"/>
      <point x="1190.0" y="1330.0" type="curve" smooth="yes"/>
      <point x="1190.0" y="1320.0" type="line" smooth="yes"/>
      <point x="1190.0" y="1273.0"/>
      <point x="1166.99902344" y="1250.0"/>
      <point x="1100.0" y="1250.0" type="curve" smooth="yes"/>
      <point x="360.0" y="1250.0" type="line"/>
    </contour>
  </outline>
</glyph>
<glyph name="F" format="2">
  <advance height="1920" width="1170"/>
  <unicode hex="0046"/>
  <anchor x="645.0" y="0.0" name="bottom"/>
  <anchor x="644.0" y="1400.0" name="top"/>
  <outline>
    <contour>
      <point x="360.0" y="790.0" type="line"/>
      <point x="770.0" y="790.0" type="line" smooth="yes"/>
      <point x="818.518554688" y="790.0"/>
      <point x="850.0" y="768.595703125"/>
      <point x="850.0" y="720.0" type="curve" smooth="yes"/>
      <point x="850.0" y="710.0" type="line" smooth="yes"/>
      <point x="850.0" y="661.479492188"/>
      <point x="818.595703125" y="640.0"/>
      <point x="770.0" y="640.0" type="curve" smooth="yes"/>
      <point x="360.0" y="640.0" type="line"/>
      <point x="360.0" y="90.0" type="line" smooth="yes"/>
      <point x="360.0" y="11.4794921875"/>
      <point x="328.595703125" y="-30.0"/>
      <point x="270.0" y="-30.0" type="curve" smooth="yes"/>
      <point x="260.0" y="-30.0" type="line" smooth="yes"/>
      <point x="201.479492188" y="-30.0"/>
      <point x="170.0" y="11.404296875"/>
      <point x="170.0" y="90.0" type="curve" smooth="yes"/>
      <point x="170.0" y="1240.0" type="line" smooth="yes"/>
      <point x="170.0" y="1347.0"/>
      <point x="223.0" y="1400.0"/>
      <point x="330.0" y="1400.0" type="curve" smooth="yes"/>
      <point x="1060.0" y="1400.0" type="line" smooth="yes"/>
      <point x="1107.0" y="1400.0"/>
      <point x="1140.0" y="1377.0"/>
      <point x="1140.0" y="1330.0" type="curve" smooth="yes"/>
      <point x="1140.0" y="1320.0" type="line" smooth="yes"/>
      <point x="1140.0" y="1273.0"/>
      <point x="1106.99902344" y="1250.0"/>
      <point x="1060.0" y="1250.0" type="curve" smooth="yes"/>
      <point x="360.0" y="1250.0" type="line"/>
    </contour>
  </outline>
</glyph>
<glyph name="G" format="2">
  <advance height="1920" width="1385"/>
  <unicode hex="0047"/>
  <anchor x="695.0" y="0.0" name="bottom"/>
  <anchor x="694.0" y="1400.0" name="top"/>
  <outline>
    <contour>
      <point x="740.0" y="635.0" type="curve" smooth="yes"/>
      <point x="740.0" y="640.0" type="line" smooth="yes"/>
      <point x="740.0" y="677.0"/>
      <point x="773.0" y="710.0"/>
      <point x="840.0" y="710.0" type="curve" smooth="yes"/>
      <point x="1175.0" y="710.0" type="line" smooth="yes"/>
      <point x="1232.0" y="710.0"/>
      <point x="1270.0" y="667.0"/>
      <point x="1270.0" y="610.0" type="curve" smooth="yes"/>
      <point x="1270.0" y="40.0" type="line" smooth="yes"/>
      <point x="1270.0" y="-7.0"/>
      <point x="1257.0" y="-30.0"/>
      <point x="1220.0" y="-30.0" type="curve" smooth="yes"/>
      <point x="1219.0" y="-30.0" type="line" smooth="yes"/>
      <point x="1182.0" y="-30.0"/>
      <point x="1162.0" y="-5.0"/>
      <point x="1151.0" y="40.0" type="curve"/>
      <point x="1080.0" y="320.0" type="line"/>
      <point x="1170.0" y="620.0" type="line"/>
      <point x="1150.0" y="230.0"/>
      <point x="1002.0" y="-35.0"/>
      <point x="675.0" y="-35.0" type="curve" smooth="yes"/>
      <point x="298.0" y="-35.0"/>
      <point x="100.0" y="238.0"/>
      <point x="100.0" y="618.0" type="curve" smooth="yes"/>
      <point x="100.0" y="783.0" type="line" smooth="yes"/>
      <point x="100.0" y="1163.0"/>
      <point x="308.0" y="1435.0"/>
      <point x="695.0" y="1435.0" type="curve" smooth="yes"/>
      <point x="979.0" y="1435.0"/>
      <point x="1129.0" y="1308.0"/>
      <point x="1196.0" y="1154.0" type="curve" smooth="yes"/>
      <point x="1216.0" y="1109.0"/>
      <point x="1228.0" y="1061.0"/>
      <point x="1235.0" y="1013.0" type="curve" smooth="yes"/>
      <point x="1243.0" y="958.0"/>
      <point x="1217.0" y="923.0"/>
      <point x="1167.0" y="923.0" type="curve" smooth="yes"/>
      <point x="1157.0" y="923.0" type="line" smooth="yes"/>
      <point x="1111.0" y="923.0"/>
      <point x="1085.0" y="955.0"/>
      <point x="1075.0" y="1013.0" type="curve" smooth="yes"/>
      <point x="1047.0" y="1174.0"/>
      <point x="922.0" y="1295.0"/>
      <point x="705.0" y="1295.0" type="curve" smooth="yes"/>
      <point x="448.0" y="1295.0"/>
      <point x="300.0" y="1063.0"/>
      <point x="300.0" y="793.0" type="curve" smooth="yes"/>
      <point x="300.0" y="608.0" type="line" smooth="yes"/>
      <point x="300.0" y="338.0"/>
      <point x="438.0" y="105.0"/>
      <point x="715.0" y="105.0" type="curve" smooth="yes"/>
      <point x="933.0" y="105.0"/>
      <point x="1085.0" y="283.0"/>
      <point x="1106.0" y="615.0" type="curve"/>
      <point x="1116.0" y="565.0" type="line"/>
      <point x="840.0" y="565.0" type="line" smooth="yes"/>
      <point x="773.0" y="565.0"/>
      <point x="740.0" y="598.0"/>
    </contour>
  </outline>
</glyph>
<glyph name="H" format="2">
  <advance height="1920" width="1380"/>
  <unicode hex="0048"/>
  <anchor x="655.0" y="0.0" name="bottom"/>
  <anchor x="654.0" y="1400.0" name="top"/>
  <outline>
    <contour>
      <point x="1130.0" y="1430.0" type="curve" smooth="yes"/>
      <point x="1140.0" y="1430.0" type="line" smooth="yes"/>
      <point x="1197.0" y="1430.0"/>
      <point x="1230.0" y="1387.0"/>
      <point x="1230.0" y="1320.0" type="curve" smooth="yes"/>
      <point x="1230.0" y="80.0" type="line" smooth="yes"/>
      <point x="1230.0" y="13.0"/>
      <point x="1197.0" y="-30.0"/>
      <point x="1140.0" y="-30.0" type="curve" smooth="yes"/>
      <point x="1130.0" y="-30.0" type="line" smooth="yes"/>
      <point x="1073.0" y="-30.0"/>
      <point x="1040.0" y="13.0"/>
      <point x="1040.0" y="80.0" type="curve" smooth="yes"/>
      <point x="1040.0" y="640.0" type="line"/>
      <point x="340.0" y="640.0" type="line"/>
      <point x="340.0" y="80.0" type="line" smooth="yes"/>
      <point x="340.0" y="13.0"/>
      <point x="307.0" y="-30.0"/>
      <point x="250.0" y="-30.0" type="curve" smooth="yes"/>
      <point x="240.0" y="-30.0" type="line" smooth="yes"/>
      <point x="183.0" y="-30.0"/>
      <point x="150.0" y="13.0"/>
      <point x="150.0" y="80.0" type="curve" smooth="yes"/>
      <point x="150.0" y="1320.0" type="line" smooth="yes"/>
      <point x="150.0" y="1387.0"/>
      <point x="183.0" y="1430.0"/>
      <point x="240.0" y="1430.0" type="curve" smooth="yes"/>
      <point x="250.0" y="1430.0" type="line" smooth="yes"/>
      <point x="307.0" y="1430.0"/>
      <point x="340.0" y="1387.0"/>
      <point x="340.0" y="1320.0" type="curve" smooth="yes"/>
      <point x="340.0" y="790.0" type="line"/>
      <point x="1040.0" y="790.0" type="line"/>
      <point x="1040.0" y="1320.0" type="line" smooth="yes"/>
      <point x="1040.0" y="1387.0"/>
      <point x="1073.0" y="1430.0"/>
    </contour>
  </outline>
</glyph>
<glyph name="I" format="2">
  <advance height="1920" width="550"/>
  <unicode hex="0049"/>
  <anchor x="280.0" y="0.0" name="bottom"/>
  <anchor x="280.0" y="0.0" name="ogonek"/>
  <anchor x="279.0" y="1400.0" name="top"/>
  <outline>
    <contour>
      <point x="270.0" y="1430.0" type="curve" smooth="yes"/>
      <point x="280.0" y="1430.0" type="line" smooth="yes"/>
      <point x="327.0" y="1430.0"/>
      <point x="370.0" y="1397.0"/>
      <point x="370.0" y="1320.0" type="curve" smooth="yes"/>
      <point x="370.0" y="80.0" type="line" smooth="yes"/>
      <point x="370.0" y="3.0"/>
      <point x="327.0" y="-30.0"/>
      <point x="280.0" y="-30.0" type="curve" smooth="yes"/>
      <point x="270.0" y="-30.0" type="line" smooth="yes"/>
      <point x="223.0" y="-30.0"/>
      <point x="180.0" y="3.0"/>
      <point x="180.0" y="80.0" type="curve" smooth="yes"/>
      <point x="180.0" y="1320.0" type="line" smooth="yes"/>
      <point x="180.0" y="1397.0"/>
      <point x="223.0" y="1430.0"/>
    </contour>
  </outline>
</glyph>
<glyph name="J" format="2">
  <advance height="1920" width="1161"/>
  <unicode hex="004A"/>
  <anchor x="510.0" y="0.0" name="bottom"/>
  <anchor x="909.0" y="1400.0" name="top"/>
  <outline>
    <contour>
      <point x="898.0" y="1430.0" type="curve" smooth="yes"/>
      <point x="908.0" y="1430.0" type="line" smooth="yes"/>
      <point x="955.0" y="1430.0"/>
      <point x="1003.0" y="1397.0"/>
      <point x="1003.0" y="1320.0" type="curve" smooth="yes"/>
      <point x="1003.0" y="538.0" type="line" smooth="yes"/>
      <point x="1003.0" y="152.475712574"/>
      <point x="853.649414062" y="-35.0"/>
      <point x="508.575195312" y="-35.0" type="curve" smooth="yes"/>
      <point x="212.5703125" y="-35.0"/>
      <point x="53.0" y="154.524604158"/>
      <point x="53.0" y="478.0" type="curve" smooth="yes"/>
      <point x="53.0" y="583.0" type="line" smooth="yes"/>
      <point x="53.0" y="660.0"/>
      <point x="96.0" y="693.0"/>
      <point x="133.0" y="693.0" type="curve" smooth="yes"/>
      <point x="143.0" y="693.0" type="line" smooth="yes"/>
      <point x="180.0" y="693.0"/>
      <point x="223.0" y="660.0"/>
      <point x="223.0" y="583.0" type="curve" smooth="yes"/>
      <point x="223.0" y="488.0" type="line" smooth="yes"/>
      <point x="223.0" y="256.828125"/>
      <point x="322.043945312" y="125.0"/>
      <point x="495.811523438" y="125.0" type="curve" smooth="yes"/>
      <point x="700.5859375" y="125.0"/>
      <point x="803.0" y="248.626953125"/>
      <point x="803.0" y="508.0" type="curve" smooth="yes"/>
      <point x="803.0" y="1320.0" type="line" smooth="yes"/>
      <point x="803.0" y="1397.0"/>
      <point x="851.0" y="1430.0"/>
    </contour>
  </outline>
</glyph>
<glyph name="K" format="2">
  <advance height="1920" width="1280"/>
  <unicode hex="004B"/>
  <anchor x="625.0" y="0.0" name="bottom"/>
  <anchor x="624.0" y="1400.0" name="top"/>
  <outline>
    <contour>
      <point x="240.0" y="1430.0" type="curve" smooth="yes"/>
      <point x="250.0" y="1430.0" type="line" smooth="yes"/>
      <point x="297.0" y="1430.0"/>
      <point x="340.0" y="1397.0"/>
      <point x="340.0" y="1320.0" type="curve" smooth="yes"/>
      <point x="340.0" y="80.0" type="line" smooth="yes"/>
      <point x="340.0" y="3.0"/>
      <point x="297.0" y="-30.0"/>
      <point x="250.0" y="-30.0" type="curve" smooth="yes"/>
      <point x="240.0" y="-30.0" type="line" smooth="yes"/>
      <point x="193.0" y="-30.0"/>
      <point x="150.0" y="3.0"/>
      <point x="150.0" y="80.0" type="curve" smooth="yes"/>
      <point x="150.0" y="1320.0" type="line" smooth="yes"/>
      <point x="150.0" y="1397.0"/>
      <point x="193.0" y="1430.0"/>
    </contour>
    <contour>
      <point x="480.0" y="820.0" type="line"/>
      <point x="670.0" y="850.0" type="line"/>
      <point x="1178.0" y="116.0" type="line" smooth="yes"/>
      <point x="1230.63620184" y="39.9469052129"/>
      <point x="1207.0" y="-30.0"/>
      <point x="1130.0" y="-30.0" type="curve" smooth="yes"/>
      <point x="1120.0" y="-30.0" type="line" smooth="yes"/>
      <point x="1083.0" y="-30.0"/>
      <point x="1039.4333843" y="1.0575933253"/>
      <point x="1006.0" y="50.0" type="curve" smooth="yes"/>
    </contour>
    <contour>
      <point x="1010.0" y="1370.0" type="line" smooth="yes"/>
      <point x="1049.98677523" y="1410.48660992"/>
      <point x="1075.0" y="1430.0"/>
      <point x="1110.0" y="1430.0" type="curve" smooth="yes"/>
      <point x="1114.0" y="1430.0" type="line" smooth="yes"/>
      <point x="1177.0" y="1430.0"/>
      <point x="1207.15346564" y="1356.38158672"/>
      <point x="1140.0" y="1290.0" type="curve" smooth="yes"/>
      <point x="639.0" y="794.75862069" type="line"/>
      <point x="591.0" y="747.310344828" type="line"/>
      <point x="270.0" y="430.0" type="line"/>
      <point x="210.0" y="560.0" type="line"/>
    </contour>
  </outline>
</glyph>
<glyph name="L" format="2">
  <advance height="1920" width="1067"/>
  <unicode hex="004C"/>
  <anchor x="625.0" y="0.0" name="bottom"/>
  <anchor x="264.0" y="1400.0" name="top"/>
  <outline>
    <contour>
      <point x="240.0" y="1430.0" type="curve" smooth="yes"/>
      <point x="250.0" y="1430.0" type="line" smooth="yes"/>
      <point x="297.0" y="1430.0"/>
      <point x="340.0" y="1397.0"/>
      <point x="340.0" y="1310.0" type="curve" smooth="yes"/>
      <point x="340.0" y="150.0" type="line"/>
      <point x="930.0" y="150.0" type="line" smooth="yes"/>
      <point x="1007.0" y="150.0"/>
      <point x="1030.0" y="117.0"/>
      <point x="1030.0" y="80.0" type="curve" smooth="yes"/>
      <point x="1030.0" y="70.0" type="line" smooth="yes"/>
      <point x="1030.0" y="33.0"/>
      <point x="1007.0" y="0.0"/>
      <point x="930.0" y="0.0" type="curve" smooth="yes"/>
      <point x="280.0" y="0.0" type="line" smooth="yes"/>
      <point x="193.0" y="0.0"/>
      <point x="150.0" y="43.0"/>
      <point x="150.0" y="130.0" type="curve" smooth="yes"/>
      <point x="150.0" y="1310.0" type="line" smooth="yes"/>
      <point x="150.0" y="1397.0"/>
      <point x="193.0" y="1430.0"/>
    </contour>
  </outline>
</glyph>
<glyph name="M" format="2">
  <advance height="1920" width="1600"/>
  <unicode hex="004D"/>
  <anchor x="805.0" y="0.0" name="bottom"/>
  <anchor x="804.0" y="1400.0" name="top"/>
  <outline>
    <contour>
      <point x="300.0" y="1220.40816327" type="line"/>
      <point x="300.0" y="90.0" type="line" smooth="yes"/>
      <point x="300.0" y="13.0"/>
      <point x="277.0" y="-30.0"/>
      <point x="230.0" y="-30.0" type="curve" smooth="yes"/>
      <point x="220.0" y="-30.0" type="line" smooth="yes"/>
      <point x="173.0" y="-30.0"/>
      <point x="150.0" y="13.0"/>
      <point x="150.0" y="90.0" type="curve" smooth="yes"/>
      <point x="150.0" y="1300.0" type="line" smooth="yes"/>
      <point x="150.0" y="1367.0"/>
      <point x="203.0" y="1410.0"/>
      <point x="260.0" y="1410.0" type="curve" smooth="yes"/>
      <point x="320.0" y="1410.0" type="line" smooth="yes"/>
      <point x="387.0" y="1410.0"/>
      <point x="414.641488608" y="1387.37841699"/>
      <point x="444.0" y="1310.0" type="curve" smooth="yes"/>
      <point x="820.0" y="319.0" type="line"/>
      <point x="1179.0" y="1290.0" type="line" smooth="yes"/>
      <point x="1217.41621167" y="1393.90568672"/>
      <point x="1252.50390625" y="1415.0"/>
      <point x="1320.0" y="1415.0" type="curve" smooth="yes"/>
      <point x="1330.0" y="1415.0" type="line" smooth="yes"/>
      <point x="1417.0" y="1415.0"/>
      <point x="1450.0" y="1367.0"/>
      <point x="1450.0" y="1310.0" type="curve" smooth="yes"/>
      <point x="1450.0" y="80.0" type="line" smooth="yes"/>
      <point x="1450.0" y="13.0"/>
      <point x="1417.0" y="-30.0"/>
      <point x="1370.0" y="-30.0" type="curve" smooth="yes"/>
      <point x="1360.0" y="-30.0" type="line" smooth="yes"/>
      <point x="1313.0" y="-30.0"/>
      <point x="1280.0" y="13.0"/>
      <point x="1280.0" y="80.0" type="curve" smooth="yes"/>
      <point x="1280.0" y="1167.34693878" type="line"/>
      <point x="864.0" y="60.0" type="line" smooth="yes"/>
      <point x="848.159273472" y="17.8337018526"/>
      <point x="819.49609375" y="9.0"/>
      <point x="802.0" y="9.0" type="curve" smooth="yes"/>
      <point x="800.0" y="9.0" type="line" smooth="yes"/>
      <point x="785.571289062" y="9.0"/>
      <point x="751.842456238" y="17.8355148047"/>
      <point x="736.0" y="60.0" type="curve" smooth="yes"/>
    </contour>
  </outline>
</glyph>
<glyph name="N" format="2">
  <advance height="1920" width="1380"/>
  <unicode hex="004E"/>
  <anchor x="685.0" y="0.0" name="bottom"/>
  <anchor x="694.0" y="1400.0" name="top"/>
  <outline>
    <contour>
      <point x="1140.0" y="1430.0" type="curve" smooth="yes"/>
      <point x="1150.0" y="1430.0" type="line" smooth="yes"/>
      <point x="1197.0" y="1430.0"/>
      <point x="1230.0" y="1397.0"/>
      <point x="1230.0" y="1340.0" type="curve" smooth="yes"/>
      <point x="1230.0" y="30.0" type="line" smooth="yes"/>
      <point x="1230.0" y="-17.0"/>
      <point x="1207.0" y="-30.0"/>
      <point x="1185.0" y="-30.0" type="curve" smooth="yes"/>
      <point x="1181.0" y="-30.0" type="line" smooth="yes"/>
      <point x="1144.0" y="-30.0"/>
      <point x="1122.00257069" y="-1.66294583125"/>
      <point x="1093.0" y="40.0" type="curve" smooth="yes"/>
      <point x="300.0" y="1179.43457031" type="line"/>
      <point x="320.0" y="1179.43457031" type="line"/>
      <point x="320.0" y="80.0" type="line" smooth="yes"/>
      <point x="320.0" y="13.0"/>
      <point x="287.0" y="-30.0"/>
      <point x="240.0" y="-30.0" type="curve" smooth="yes"/>
      <point x="230.0" y="-30.0" type="line" smooth="yes"/>
      <point x="183.0" y="-30.0"/>
      <point x="150.0" y="13.0"/>
      <point x="150.0" y="80.0" type="curve" smooth="yes"/>
      <point x="150.0" y="1300.0" type="line" smooth="yes"/>
      <point x="150.0" y="1377.0"/>
      <point x="203.0" y="1420.0"/>
      <point x="260.0" y="1420.0" type="curve" smooth="yes"/>
      <point x="270.0" y="1420.0" type="line" smooth="yes"/>
      <point x="323.0" y="1420.0"/>
      <point x="374.816924138" y="1378.16135953"/>
      <point x="423.0" y="1310.0" type="curve" smooth="yes"/>
      <point x="1080.0" y="380.87890625" type="line"/>
      <point x="1060.0" y="380.87890625" type="line"/>
      <point x="1060.0" y="1340.0" type="line" smooth="yes"/>
      <point x="1060.0" y="1397.0"/>
      <point x="1093.0" y="1430.0"/>
    </contour>
  </outline>
</glyph>
<glyph name="O" format="2">
  <advance height="1920" width="1490"/>
  <unicode hex="004F"/>
  <anchor x="745.0" y="0.0" name="bottom"/>
  <anchor x="744.0" y="1400.0" name="top"/>
  <outline>
    <contour>
      <point x="100.0" y="618.0" type="curve" smooth="yes"/>
      <point x="100.0" y="783.0" type="line" smooth="yes"/>
      <point x="100.0" y="1168.79512682"/>
      <point x="363.346845401" y="1435.0"/>
      <point x="745.0" y="1435.0" type="curve" smooth="yes"/>
      <point x="1126.6531546" y="1435.0"/>
      <point x="1390.0" y="1168.79512682"/>
      <point x="1390.0" y="783.0" type="curve" smooth="yes"/>
      <point x="1390.0" y="618.0" type="line" smooth="yes"/>
      <point x="1390.0" y="231.891434913"/>
      <point x="1126.3782917" y="-35.0"/>
      <point x="745.0" y="-35.0" type="curve" smooth="yes"/>
      <point x="363.621708298" y="-35.0"/>
      <point x="100.0" y="231.891434913"/>
    </contour>
    <contour>
      <point x="300.0" y="608.0" type="line" smooth="yes"/>
      <point x="300.0" y="309.786901998"/>
      <point x="481.17330296" y="105.0"/>
      <point x="745.0" y="105.0" type="curve" smooth="yes"/>
      <point x="1008.82669704" y="105.0"/>
      <point x="1190.0" y="309.786901998"/>
      <point x="1190.0" y="608.0" type="curve" smooth="yes"/>
      <point x="1190.0" y="793.0" type="line" smooth="yes"/>
      <point x="1190.0" y="1090.87452593"/>
      <point x="1009.0521196" y="1295.0"/>
      <point x="745.0" y="1295.0" type="curve" smooth="yes"/>
      <point x="480.947880401" y="1295.0"/>
      <point x="300.0" y="1090.87452593"/>
      <point x="300.0" y="793.0" type="curve" smooth="yes"/>
    </contour>
  </outline>
</glyph>
<glyph name="P" format="2">
  <advance height="1920" width="1280"/>
  <unicode hex="0050"/>
  <anchor x="275.0" y="0.0" name="bottom"/>
  <anchor x="624.0" y="1400.0" name="top"/>
  <outline>
    <contour>
      <point x="360.0" y="1250.0" type="line"/>
      <point x="360.0" y="750.0" type="line"/>
      <point x="700.0" y="750.0" type="line" smooth="yes"/>
      <point x="867.0" y="750.0"/>
      <point x="975.0" y="818.0"/>
      <point x="975.0" y="938.0" type="curve" smooth="yes"/>
      <point x="975.0" y="1062.0" type="line" smooth="yes"/>
      <point x="975.0" y="1182.0"/>
      <point x="867.0" y="1250.0"/>
      <point x="700.0" y="1250.0" type="curve" smooth="yes"/>
    </contour>
    <contour>
      <point x="700.0" y="1400.0" type="line" smooth="yes"/>
      <point x="986.879430823" y="1400.0"/>
      <point x="1175.0" y="1302.0"/>
      <point x="1175.0" y="1032.0" type="curve" smooth="yes"/>
      <point x="1175.0" y="968.0" type="line" smooth="yes"/>
      <point x="1175.0" y="698.0"/>
      <point x="987.0" y="600.0"/>
      <point x="700.0" y="600.0" type="curve" smooth="yes"/>
      <point x="360.0" y="600.0" type="line"/>
      <point x="360.0" y="80.0" type="line" smooth="yes"/>
      <point x="360.0" y="13.0"/>
      <point x="317.0" y="-30.0"/>
      <point x="270.0" y="-30.0" type="curve" smooth="yes"/>
      <point x="260.0" y="-30.0" type="line" smooth="yes"/>
      <point x="213.0" y="-30.0"/>
      <point x="170.0" y="13.0"/>
      <point x="170.0" y="80.0" type="curve" smooth="yes"/>
      <point x="170.0" y="1260.0" type="line" smooth="yes"/>
      <point x="170.0" y="1347.0"/>
      <point x="223.0" y="1400.0"/>
      <point x="310.0" y="1400.0" type="curve" smooth="yes"/>
    </contour>
  </outline>
</glyph>
<glyph name="Q" format="2">
  <advance height="1920" width="1600"/>
  <unicode hex="0051"/>
  <anchor x="745.0" y="0.0" name="bottom"/>
  <anchor x="744.0" y="1400.0" name="top"/>
  <outline>
    <contour>
      <point x="1565.0" y="66.0" type="curve" smooth="yes"/>
      <point x="1565.0" y="60.0" type="line" smooth="yes"/>
      <point x="1565.0" y="22.8271484375"/>
      <point x="1548.37489173" y="5.40393228076"/>
      <point x="1513.53388983" y="-3.00000145609" type="curve" smooth="yes"/>
      <point x="1300.87181128" y="-54.2958287615"/>
      <point x="1190.0" y="92.794414002"/>
      <point x="1190.0" y="358.0" type="curve"/>
      <point x="1300.0" y="588.0" type="line"/>
      <point x="1300.0" y="238.0"/>
      <point x="1152.0" y="-35.0"/>
      <point x="725.0" y="-35.0" type="curve" smooth="yes"/>
      <point x="278.0" y="-35.0"/>
      <point x="140.0" y="238.0"/>
      <point x="140.0" y="588.0" type="curve" smooth="yes"/>
      <point x="140.0" y="813.0" type="line" smooth="yes"/>
      <point x="140.0" y="1163.0"/>
      <point x="288.0" y="1435.0"/>
      <point x="745.0" y="1435.0" type="curve" smooth="yes"/>
      <point x="1202.0" y="1435.0"/>
      <point x="1350.0" y="1163.0"/>
      <point x="1350.0" y="813.0" type="curve" smooth="yes"/>
      <point x="1350.0" y="328.0" type="line" smooth="yes"/>
      <point x="1350.0" y="184.238580001"/>
      <point x="1421.53710938" y="124.642578125"/>
      <point x="1503.0" y="120.303710938" type="curve" smooth="yes"/>
      <point x="1544.94475527" y="118.069654167"/>
      <point x="1565.0" y="97.6884765625"/>
    </contour>
    <contour>
      <point x="1150.0" y="558.0" type="curve" smooth="yes"/>
      <point x="1150.0" y="843.0" type="line" smooth="yes"/>
      <point x="1150.0" y="1113.0"/>
      <point x="1022.0" y="1295.0"/>
      <point x="745.0" y="1295.0" type="curve" smooth="yes"/>
      <point x="468.0" y="1295.0"/>
      <point x="340.0" y="1113.0"/>
      <point x="340.0" y="843.0" type="curve" smooth="yes"/>
      <point x="340.0" y="558.0" type="line" smooth="yes"/>
      <point x="340.0" y="288.0"/>
      <point x="468.0" y="105.0"/>
      <point x="745.0" y="105.0" type="curve" smooth="yes"/>
      <point x="1022.0" y="105.0"/>
      <point x="1150.0" y="288.0"/>
    </contour>
  </outline>
</glyph>
<glyph name="R" format="2">
  <advance height="1920" width="1380"/>
  <unicode hex="0052"/>
  <anchor x="675.0" y="0.0" name="bottom"/>
  <anchor x="674.0" y="1400.0" name="top"/>
  <outline>
    <contour>
      <point x="360.0" y="1250.0" type="line"/>
      <point x="360.0" y="790.0" type="line"/>
      <point x="760.0" y="790.0" type="line" smooth="yes"/>
      <point x="927.0" y="790.0"/>
      <point x="1015.0" y="858.0"/>
      <point x="1015.0" y="978.0" type="curve" smooth="yes"/>
      <point x="1015.0" y="1062.0" type="line" smooth="yes"/>
      <point x="1015.0" y="1182.0"/>
      <point x="927.0" y="1250.0"/>
      <point x="760.0" y="1250.0" type="curve" smooth="yes"/>
    </contour>
    <contour>
      <point x="760.0" y="1400.0" type="line" smooth="yes"/>
      <point x="1016.99681367" y="1400.0"/>
      <point x="1215.0" y="1282.0"/>
      <point x="1215.0" y="1042.0" type="curve" smooth="yes"/>
      <point x="1215.0" y="1018.0" type="line" smooth="yes"/>
      <point x="1215.0" y="778.0"/>
      <point x="1017.0" y="680.0"/>
      <point x="760.0" y="680.0" type="curve"/>
      <point x="760.0" y="740.0" type="line"/>
      <point x="1017.0" y="740.0"/>
      <point x="1205.0" y="662.0"/>
      <point x="1205.0" y="422.0" type="curve" smooth="yes"/>
      <point x="1205.0" y="328.0" type="line" smooth="yes"/>
      <point x="1205.0" y="214.202180376"/>
      <point x="1231.1008676" y="149.5307528"/>
      <point x="1263.37011719" y="91.0" type="curve" smooth="yes"/>
      <point x="1277.09486954" y="66.105709062"/>
      <point x="1283.0" y="45.6650390625"/>
      <point x="1283.0" y="33.0" type="curve" smooth="yes"/>
      <point x="1283.0" y="28.0" type="line" smooth="yes"/>
      <point x="1283.0" y="-8.0"/>
      <point x="1247.0" y="-30.0"/>
      <point x="1200.0" y="-30.0" type="curve" smooth="yes"/>
      <point x="1190.0" y="-30.0" type="line" smooth="yes"/>
      <point x="1137.82910156" y="-30.0"/>
      <point x="1094.89980622" y="0.516491258061"/>
      <point x="1074.77734375" y="39.0" type="curve" smooth="yes"/>
      <point x="1028.15527344" y="128.163085938"/>
      <point x="1015.0" y="240.670560611"/>
      <point x="1015.0" y="328.0" type="curve" smooth="yes"/>
      <point x="1015.0" y="452.0" type="line" smooth="yes"/>
      <point x="1015.0" y="572.0"/>
      <point x="927.0" y="640.0"/>
      <point x="760.0" y="640.0" type="curve" smooth="yes"/>
      <point x="360.0" y="640.0" type="line"/>
      <point x="360.0" y="90.0" type="line" smooth="yes"/>
      <point x="360.0" y="13.0"/>
      <point x="327.0" y="-30.0"/>
      <point x="270.0" y="-30.0" type="curve" smooth="yes"/>
      <point x="260.0" y="-30.0" type="line" smooth="yes"/>
      <point x="203.0" y="-30.0"/>
      <point x="170.0" y="13.0"/>
      <point x="170.0" y="90.0" type="curve" smooth="yes"/>
      <point x="170.0" y="1240.0" type="line" smooth="yes"/>
      <point x="170.0" y="1347.0"/>
      <point x="223.0" y="1400.0"/>
      <point x="330.0" y="1400.0" type="curve" smooth="yes"/>
    </contour>
  </outline>
</glyph>
<glyph name="S" format="2">
  <advance height="1920" width="1280"/>
  <unicode hex="0053"/>
  <anchor x="615.0" y="0.0" name="bottom"/>
  <anchor x="624.0" y="1400.0" name="top"/>
  <outline>
    <contour>
      <point x="180.0" y="538.0" type="curve" smooth="yes"/>
      <point x="190.0" y="538.0" type="line" smooth="yes"/>
      <point x="232.7734375" y="538.0"/>
      <point x="266.0" y="497.0"/>
      <point x="268.0" y="420.0" type="curve" smooth="yes"/>
      <point x="268.415039062" y="404.0078125"/>
      <point x="270.0" y="395.958007812"/>
      <point x="271.026367188" y="384.0" type="curve" smooth="yes"/>
      <point x="282.69140625" y="248.041992188"/>
      <point x="394.676429033" y="115.0"/>
      <point x="650.0" y="115.0" type="curve" smooth="yes"/>
      <point x="878.0" y="115.0"/>
      <point x="1010.0" y="197.0"/>
      <point x="1010.0" y="378.0" type="curve" smooth="yes"/>
      <point x="1010.0" y="524.442339708"/>
      <point x="842.215613164" y="563.692683903"/>
      <point x="654.012972357" y="607.719536278" type="curve" smooth="yes"/>
      <point x="413.657652459" y="663.946633525"/>
      <point x="140.0" y="727.964253121"/>
      <point x="140.0" y="1033.0" type="curve" smooth="yes"/>
      <point x="140.0" y="1273.0"/>
      <point x="313.0" y="1435.0"/>
      <point x="630.0" y="1435.0" type="curve" smooth="yes"/>
      <point x="954.0" y="1435.0"/>
      <point x="1130.0" y="1256.0"/>
      <point x="1130.0" y="1041.0" type="curve" smooth="yes"/>
      <point x="1130.0" y="1036.0" type="line" smooth="yes"/>
      <point x="1130.0" y="969.0"/>
      <point x="1095.14453125" y="933.0"/>
      <point x="1050.0" y="933.0" type="curve" smooth="yes"/>
      <point x="1040.0" y="933.0" type="line" smooth="yes"/>
      <point x="994.85546875" y="933.0"/>
      <point x="968.0" y="961.0"/>
      <point x="960.0" y="1018.0" type="curve" smooth="yes"/>
      <point x="957.79296875" y="1033.72265625"/>
      <point x="956.0" y="1042.49023438"/>
      <point x="954.698242188" y="1054.0" type="curve" smooth="yes"/>
      <point x="940.41796875" y="1180.28417969"/>
      <point x="813.886816907" y="1295.0"/>
      <point x="630.0" y="1295.0" type="curve" smooth="yes"/>
      <point x="453.0" y="1295.0"/>
      <point x="320.0" y="1203.0"/>
      <point x="320.0" y="1053.0" type="curve" smooth="yes"/>
      <point x="320.0" y="873.386181091"/>
      <point x="511.398870879" y="826.339851569"/>
      <point x="715.67215732" y="776.128957941" type="curve" smooth="yes"/>
      <point x="949.4080647" y="718.676077111"/>
      <point x="1200.0" y="657.079941725"/>
      <point x="1200.0" y="388.0" type="curve" smooth="yes"/>
      <point x="1200.0" y="141.0"/>
      <point x="1019.0" y="-35.0"/>
      <point x="650.0" y="-35.0" type="curve" smooth="yes"/>
      <point x="291.512695312" y="-35.0"/>
      <point x="101.0" y="152.553710938"/>
      <point x="101.0" y="379.0" type="curve" smooth="yes"/>
      <point x="101.0" y="419.0" type="line" smooth="yes"/>
      <point x="101.0" y="496.0"/>
      <point x="137.296875" y="538.0"/>
    </contour>
  </outline>
</glyph>
<glyph name="T" format="2">
  <advance height="1920" width="1170"/>
  <unicode hex="0054"/>
  <anchor x="535.0" y="0.0" name="bottom"/>
  <anchor x="584.0" y="1400.0" name="top"/>
  <outline>
    <contour>
      <point x="110.0" y="1400.0" type="curve" smooth="yes"/>
      <point x="1060.0" y="1400.0" type="line" smooth="yes"/>
      <point x="1137.0" y="1400.0"/>
      <point x="1160.0" y="1367.0"/>
      <point x="1160.0" y="1330.0" type="curve" smooth="yes"/>
      <point x="1160.0" y="1320.0" type="line" smooth="yes"/>
      <point x="1160.0" y="1283.0"/>
      <point x="1137.0" y="1250.0"/>
      <point x="1060.0" y="1250.0" type="curve" smooth="yes"/>
      <point x="680.0" y="1250.0" type="line"/>
      <point x="680.0" y="80.0" type="line" smooth="yes"/>
      <point x="680.0" y="3.0"/>
      <point x="637.0" y="-30.0"/>
      <point x="590.0" y="-30.0" type="curve" smooth="yes"/>
      <point x="580.0" y="-30.0" type="line" smooth="yes"/>
      <point x="533.0" y="-30.0"/>
      <point x="490.0" y="3.0"/>
      <point x="490.0" y="80.0" type="curve" smooth="yes"/>
      <point x="490.0" y="1250.0" type="line"/>
      <point x="110.0" y="1250.0" type="line" smooth="yes"/>
      <point x="33.0" y="1250.0"/>
      <point x="10.0" y="1283.0"/>
      <point x="10.0" y="1320.0" type="curve" smooth="yes"/>
      <point x="10.0" y="1330.0" type="line" smooth="yes"/>
      <point x="10.0" y="1367.0"/>
      <point x="33.0" y="1400.0"/>
    </contour>
  </outline>
</glyph>
<glyph name="U" format="2">
  <advance height="1920" width="1390"/>
  <unicode hex="0055"/>
  <anchor x="705.0" y="0.0" name="bottom"/>
  <anchor x="800.0" y="0.0" name="ogonek"/>
  <anchor x="704.0" y="1400.0" name="top"/>
  <outline>
    <contour>
      <point x="1055.0" y="488.0" type="curve" smooth="yes"/>
      <point x="1055.0" y="1320.0" type="line" smooth="yes"/>
      <point x="1055.0" y="1397.0"/>
      <point x="1092.0" y="1430.0"/>
      <point x="1139.0" y="1430.0" type="curve" smooth="yes"/>
      <point x="1141.0" y="1430.0" type="line" smooth="yes"/>
      <point x="1188.0" y="1430.0"/>
      <point x="1225.0" y="1397.0"/>
      <point x="1225.0" y="1320.0" type="curve" smooth="yes"/>
      <point x="1225.0" y="498.0" type="line" smooth="yes"/>
      <point x="1225.0" y="178.043756138"/>
      <point x="1097.0" y="-35.0"/>
      <point x="700.0" y="-35.0" type="curve" smooth="yes"/>
      <point x="243.0" y="-35.0"/>
      <point x="165.0" y="208.009967088"/>
      <point x="165.0" y="588.0" type="curve" smooth="yes"/>
      <point x="165.0" y="1320.0" type="line" smooth="yes"/>
      <point x="165.0" y="1397.0"/>
      <point x="213.0" y="1430.0"/>
      <point x="260.0" y="1430.0" type="curve" smooth="yes"/>
      <point x="270.0" y="1430.0" type="line" smooth="yes"/>
      <point x="317.0" y="1430.0"/>
      <point x="365.0" y="1397.0"/>
      <point x="365.0" y="1320.0" type="curve" smooth="yes"/>
      <point x="365.0" y="558.0" type="line" smooth="yes"/>
      <point x="365.0" y="258.067794141"/>
      <point x="433.0" y="105.0"/>
      <point x="700.0" y="105.0" type="curve" smooth="yes"/>
      <point x="927.0" y="105.0"/>
      <point x="1055.0" y="228.011928147"/>
    </contour>
  </outline>
</glyph>
<glyph name="V" format="2">
  <advance height="1920" width="1280"/>
  <unicode hex="0056"/>
  <anchor x="655.0" y="0.0" name="bottom"/>
  <anchor x="654.0" y="1400.0" name="top"/>
  <outline>
    <contour>
      <point x="655.69140625" y="173.6171875" type="line"/>
      <point x="1027.0" y="1305.0" type="line" smooth="yes"/>
      <point x="1050.70214844" y="1377.22265625"/>
      <point x="1077.0" y="1435.0"/>
      <point x="1137.0" y="1435.0" type="curve" smooth="yes"/>
      <point x="1147.0" y="1435.0" type="line" smooth="yes"/>
      <point x="1217.0" y="1435.0"/>
      <point x="1231.74414062" y="1376.42382812"/>
      <point x="1207.0" y="1305.0" type="curve" smooth="yes"/>
      <point x="793.0" y="110.0" type="line" smooth="yes"/>
      <point x="768.245117188" y="38.580078125"/>
      <point x="740.0" y="0.0"/>
      <point x="650.0" y="0.0" type="curve" smooth="yes"/>
      <point x="640.0" y="0.0" type="line" smooth="yes"/>
      <point x="550.0" y="0.0"/>
      <point x="522.2265625" y="38.95703125"/>
      <point x="497.0" y="110.0" type="curve" smooth="yes"/>
      <point x="73.0" y="1305.0" type="line" smooth="yes"/>
      <point x="47.791015625" y="1376.04882812"/>
      <point x="75.0" y="1435.0"/>
      <point x="145.0" y="1435.0" type="curve" smooth="yes"/>
      <point x="155.0" y="1435.0" type="line" smooth="yes"/>
      <point x="215.0" y="1435.0"/>
      <point x="248.71875" y="1376.78613281"/>
      <point x="273.0" y="1305.0" type="curve" smooth="yes"/>
    </contour>
  </outline>
</glyph>
<glyph name="W" format="2">
  <advance height="1920" width="1810"/>
  <unicode hex="0057"/>
  <anchor x="925.0" y="0.0" name="bottom"/>
  <anchor x="924.0" y="1400.0" name="top"/>
  <outline>
    <contour>
      <point x="529.931640625" y="210.13671875" type="line"/>
      <point x="861.0" y="1370.0" type="line" smooth="yes"/>
      <point x="873.404502663" y="1413.45787434"/>
      <point x="898.0" y="1430.0"/>
      <point x="925.0" y="1430.0" type="curve" smooth="yes"/>
      <point x="935.0" y="1430.0" type="line" smooth="yes"/>
      <point x="972.0" y="1430.0"/>
      <point x="991.164964955" y="1395.14407506"/>
      <point x="998.0" y="1370.0" type="curve" smooth="yes"/>
      <point x="1317.70800781" y="193.888671875" type="line"/>
      <point x="1589.0" y="1320.0" type="line" smooth="yes"/>
      <point x="1608.80919956" y="1402.2264006"/>
      <point x="1643.0" y="1430.0"/>
      <point x="1690.0" y="1430.0" type="curve" smooth="yes"/>
      <point x="1695.0" y="1430.0" type="line" smooth="yes"/>
      <point x="1742.0" y="1430.0"/>
      <point x="1788.79544244" y="1391.18646181"/>
      <point x="1767.0" y="1310.0" type="curve" smooth="yes"/>
      <point x="1437.0" y="80.0" type="line" smooth="yes"/>
      <point x="1417.59433962" y="7.66981132075"/>
      <point x="1382.02832031" y="-30.0"/>
      <point x="1325.0" y="-30.0" type="curve" smooth="yes"/>
      <point x="1285.0" y="-30.0" type="line" smooth="yes"/>
      <point x="1228.03417969" y="-30.0"/>
      <point x="1192.41966451" y="7.39133554061"/>
      <point x="1173.0" y="80.0" type="curve" smooth="yes"/>
      <point x="913.301757812" y="1050.9921875" type="line"/>
      <point x="647.0" y="80.0" type="line" smooth="yes"/>
      <point x="629.770388833" y="17.1772158986"/>
      <point x="582.028320312" y="-30.0"/>
      <point x="535.0" y="-30.0" type="curve" smooth="yes"/>
      <point x="500.0" y="-30.0" type="line" smooth="yes"/>
      <point x="453.0" y="-30.0"/>
      <point x="408.058539523" y="6.97195135886"/>
      <point x="389.0" y="80.0" type="curve" smooth="yes"/>
      <point x="68.0" y="1310.0" type="line" smooth="yes"/>
      <point x="49.1988596541" y="1382.09876829"/>
      <point x="108.0" y="1430.0"/>
      <point x="155.0" y="1430.0" type="curve" smooth="yes"/>
      <point x="160.0" y="1430.0" type="line" smooth="yes"/>
      <point x="217.0" y="1430.0"/>
      <point x="245.352067529" y="1382.71641859"/>
      <point x="263.0" y="1310.0" type="curve" smooth="yes"/>
    </contour>
  </outline>
</glyph>
<glyph name="X" format="2">
  <advance height="1920" width="1280"/>
  <unicode hex="0058"/>
  <anchor x="635.0" y="0.0" name="bottom"/>
  <anchor x="634.0" y="1400.0" name="top"/>
  <outline>
    <contour>
      <point x="1077.0" y="1430.0" type="curve" smooth="yes"/>
      <point x="1082.0" y="1430.0" type="line" smooth="yes"/>
      <point x="1133.0" y="1430.0"/>
      <point x="1177.60157918" y="1366.53162893"/>
      <point x="1112.0" y="1270.0" type="curve" smooth="yes"/>
      <point x="741.688476562" y="725.092773438" type="line"/>
      <point x="1143.0" y="130.0" type="line" smooth="yes"/>
      <point x="1194.63602916" y="53.4304872738"/>
      <point x="1177.0" y="-30.0"/>
      <point x="1100.0" y="-30.0" type="curve" smooth="yes"/>
      <point x="1095.0" y="-30.0" type="line" smooth="yes"/>
      <point x="1048.0" y="-30.0"/>
      <point x="1005.05230771" y="8.96815965707"/>
      <point x="959.0" y="80.0" type="curve" smooth="yes"/>
      <point x="639.657226562" y="572.559570312" type="line"/>
      <point x="300.0" y="80.0" type="line" smooth="yes"/>
      <point x="247.593050042" y="4.00119080712"/>
      <point x="212.0" y="-30.0"/>
      <point x="165.0" y="-30.0" type="curve" smooth="yes"/>
      <point x="160.0" y="-30.0" type="line" smooth="yes"/>
      <point x="113.0" y="-30.0"/>
      <point x="69.34386028" y="27.0943494154"/>
      <point x="122.0" y="102.0" type="curve" smooth="yes"/>
      <point x="548.865234375" y="709.234375" type="line"/>
      <point x="168.0" y="1271.0" type="line" smooth="yes"/>
      <point x="106.960159196" y="1361.03206705"/>
      <point x="163.0" y="1430.0"/>
      <point x="220.0" y="1430.0" type="curve" smooth="yes"/>
      <point x="225.0" y="1430.0" type="line" smooth="yes"/>
      <point x="268.0" y="1430.0"/>
      <point x="301.247402166" y="1397.80757237"/>
      <point x="352.0" y="1320.0" type="curve" smooth="yes"/>
      <point x="650.897460938" y="861.767578125" type="line"/>
      <point x="965.0" y="1340.0" type="line" smooth="yes"/>
      <point x="997.853079017" y="1390.01999535"/>
      <point x="1030.0" y="1430.0"/>
    </contour>
  </outline>
</glyph>
<glyph name="Y" format="2">
  <advance height="1920" width="1280"/>
  <unicode hex="0059"/>
  <anchor x="645.0" y="0.0" name="bottom"/>
  <anchor x="644.0" y="1400.0" name="top"/>
  <outline>
    <contour>
      <point x="1130.0" y="1430.0" type="curve" smooth="yes"/>
      <point x="1135.0" y="1430.0" type="line" smooth="yes"/>
      <point x="1202.0" y="1430.0"/>
      <point x="1222.61370609" y="1371.58108029"/>
      <point x="1192.0" y="1320.0" type="curve" smooth="yes"/>
      <point x="735.0" y="550.0" type="line"/>
      <point x="735.0" y="90.0" type="line" smooth="yes"/>
      <point x="735.0" y="13.0"/>
      <point x="692.0" y="-30.0"/>
      <point x="645.0" y="-30.0" type="curve" smooth="yes"/>
      <point x="635.0" y="-30.0" type="line" smooth="yes"/>
      <point x="588.0" y="-30.0"/>
      <point x="545.0" y="13.0"/>
      <point x="545.0" y="90.0" type="curve" smooth="yes"/>
      <point x="545.0" y="550.0" type="line"/>
      <point x="92.0" y="1312.0" type="line" smooth="yes"/>
      <point x="59.2232420063" y="1367.13441411"/>
      <point x="103.0" y="1430.0"/>
      <point x="160.0" y="1430.0" type="curve" smooth="yes"/>
      <point x="165.0" y="1430.0" type="line" smooth="yes"/>
      <point x="202.05859375" y="1430.0"/>
      <point x="244.287012165" y="1401.73510927"/>
      <point x="275.0" y="1350.0" type="curve" smooth="yes"/>
      <point x="655.0" y="709.901367188" type="line"/>
      <point x="1035.0" y="1350.0" type="line" smooth="yes"/>
      <point x="1070.10255567" y="1409.12920498"/>
      <point x="1098.890625" y="1430.0"/>
    </contour>
  </outline>
</glyph>
<glyph name="Z" format="2">
  <advance height="1920" width="1170"/>
  <unicode hex="005A"/>
  <anchor x="615.0" y="0.0" name="bottom"/>
  <anchor x="614.0" y="1400.0" name="top"/>
  <outline>
    <contour>
      <point x="62.0" y="130.0" type="curve" smooth="yes"/>
      <point x="856.071289062" y="1250.0" type="line"/>
      <point x="160.0" y="1250.0" type="line" smooth="yes"/>
      <point x="113.0" y="1250.0"/>
      <point x="80.0" y="1273.0"/>
      <point x="80.0" y="1320.0" type="curve" smooth="yes"/>
      <point x="80.0" y="1330.0" type="line" smooth="yes"/>
      <point x="80.0" y="1377.0"/>
      <point x="113.0" y="1400.0"/>
      <point x="160.0" y="1400.0" type="curve" smooth="yes"/>
      <point x="1020.0" y="1400.0" type="line" smooth="yes"/>
      <point x="1107.0" y="1400.0"/>
      <point x="1106.69365596" y="1324.30477492"/>
      <point x="1054.0" y="1250.0" type="curve" smooth="yes"/>
      <point x="273.928710938" y="150.0" type="line"/>
      <point x="1040.0" y="150.0" type="line" smooth="yes"/>
      <point x="1097.0" y="150.0"/>
      <point x="1130.0" y="127.0"/>
      <point x="1130.0" y="80.0" type="curve" smooth="yes"/>
      <point x="1130.0" y="70.0" type="line" smooth="yes"/>
      <point x="1130.0" y="23.0"/>
      <point x="1097.0" y="-6.98048675514e-15"/>
      <point x="1040.0" y="0.0" type="curve" smooth="yes"/>
      <point x="110.0" y="0.0" type="line" smooth="yes"/>
      <point x="33.0" y="0.0"/>
      <point x="17.4120487547" y="67.110803422"/>
    </contour>
  </outline>
</glyph>
<glyph name="bracketleft" format="2">
  <advance height="1920" width="550"/>
  <unicode hex="005B"/>
  <outline>
    <contour>
      <point x="260.0" y="1450.0" type="line"/>
      <point x="260.0" y="-210.0" type="line"/>
      <point x="410.0" y="-210.0" type="line" smooth="yes"/>
      <point x="487.0" y="-210.0"/>
      <point x="520.0" y="-233.0"/>
      <point x="520.0" y="-280.0" type="curve" smooth="yes"/>
      <point x="520.0" y="-290.0" type="line" smooth="yes"/>
      <point x="520.0" y="-337.0"/>
      <point x="487.0" y="-360.0"/>
      <point x="410.0" y="-360.0" type="curve" smooth="yes"/>
      <point x="230.0" y="-360.0" type="line" smooth="yes"/>
      <point x="123.0" y="-360.0"/>
      <point x="70.0" y="-307.0"/>
      <point x="70.0" y="-200.0" type="curve" smooth="yes"/>
      <point x="70.0" y="1440.0" type="line" smooth="yes"/>
      <point x="70.0" y="1547.0"/>
      <point x="123.0" y="1600.0"/>
      <point x="230.0" y="1600.0" type="curve" smooth="yes"/>
      <point x="410.0" y="1600.0" type="line" smooth="yes"/>
      <point x="487.0" y="1600.0"/>
      <point x="520.0" y="1577.0"/>
      <point x="520.0" y="1530.0" type="curve" smooth="yes"/>
      <point x="520.0" y="1520.0" type="line" smooth="yes"/>
      <point x="520.0" y="1473.0"/>
      <point x="487.0" y="1450.0"/>
      <point x="410.0" y="1450.0" type="curve" smooth="yes"/>
    </contour>
  </outline>
</glyph>
<glyph name="backslash" format="2">
  <advance height="2048" width="840"/>
  <unicode hex="005C"/>
  <outline>
    <contour>
      <point x="791.0" y="-18.0" type="line" smooth="yes"/>
      <point x="826.478515625" y="-103.228515625"/>
      <point x="817.0" y="-178.0"/>
      <point x="760.0" y="-178.0" type="curve" smooth="yes"/>
      <point x="750.0" y="-178.0" type="line" smooth="yes"/>
      <point x="704.0" y="-178.0"/>
      <point x="675.834960938" y="-127.66015625"/>
      <point x="651.0" y="-68.0" type="curve" smooth="yes"/>
      <point x="114.0" y="1222.0" type="line" smooth="yes"/>
      <point x="78.521484375" y="1307.22851562"/>
      <point x="88.0" y="1382.0"/>
      <point x="145.0" y="1382.0" type="curve" smooth="yes"/>
      <point x="155.0" y="1382.0" type="line" smooth="yes"/>
      <point x="202.0" y="1382.0"/>
      <point x="229.165039062" y="1331.66015625"/>
      <point x="254.0" y="1272.0" type="curve" smooth="yes"/>
    </contour>
  </outline>
</glyph>
<glyph name="bracketright" format="2">
  <advance height="1920" width="550"/>
  <unicode hex="005D"/>
  <outline>
    <contour>
      <point x="290.0" y="-210.0" type="line"/>
      <point x="290.0" y="1450.0" type="line"/>
      <point x="140.0" y="1450.0" type="line" smooth="yes"/>
      <point x="63.0" y="1450.0"/>
      <point x="30.0" y="1473.0"/>
      <point x="30.0" y="1520.0" type="curve" smooth="yes"/>
      <point x="30.0" y="1530.0" type="line" smooth="yes"/>
      <point x="30.0" y="1577.0"/>
      <point x="63.0" y="1600.0"/>
      <point x="140.0" y="1600.0" type="curve" smooth="yes"/>
      <point x="320.0" y="1600.0" type="line" smooth="yes"/>
      <point x="427.0" y="1600.0"/>
      <point x="480.0" y="1547.0"/>
      <point x="480.0" y="1440.0" type="curve" smooth="yes"/>
      <point x="480.0" y="-200.0" type="line" smooth="yes"/>
      <point x="480.0" y="-307.0"/>
      <point x="427.0" y="-360.0"/>
      <point x="320.0" y="-360.0" type="curve" smooth="yes"/>
      <point x="140.0" y="-360.0" type="line" smooth="yes"/>
      <point x="63.0" y="-360.0"/>
      <point x="30.0" y="-337.0"/>
      <point x="30.0" y="-290.0" type="curve" smooth="yes"/>
      <point x="30.0" y="-280.0" type="line" smooth="yes"/>
      <point x="30.0" y="-233.0"/>
      <point x="63.0" y="-210.0"/>
      <point x="140.0" y="-210.0" type="curve" smooth="yes"/>
    </contour>
  </outline>
</glyph>
<glyph name="asciicircum" format="2">
  <advance height="1920" width="820"/>
  <unicode hex="005E"/>
  <outline>
    <contour>
      <point x="410.0" y="1191.48144531" type="line"/>
      <point x="261.0" y="810.0" type="line" smooth="yes"/>
      <point x="238.332381521" y="751.964591549"/>
      <point x="217.0" y="700.0"/>
      <point x="170.0" y="700.0" type="curve" smooth="yes"/>
      <point x="160.0" y="700.0" type="line" smooth="yes"/>
      <point x="103.0" y="700.0"/>
      <point x="77.3272504441" y="771.892636374"/>
      <point x="112.0" y="855.0" type="curve" smooth="yes"/>
      <point x="306.0" y="1320.0" type="line" smooth="yes"/>
      <point x="334.428433381" y="1388.13426182"/>
      <point x="358.0" y="1420.0"/>
      <point x="405.0" y="1420.0" type="curve" smooth="yes"/>
      <point x="415.0" y="1420.0" type="line" smooth="yes"/>
      <point x="462.0" y="1420.0"/>
      <point x="485.571566619" y="1388.13426182"/>
      <point x="514.0" y="1320.0" type="curve" smooth="yes"/>
      <point x="708.0" y="855.0" type="line" smooth="yes"/>
      <point x="742.638387524" y="771.974998975"/>
      <point x="722.494140625" y="700.0"/>
      <point x="660.0" y="700.0" type="curve" smooth="yes"/>
      <point x="650.0" y="700.0" type="line" smooth="yes"/>
      <point x="599.571289062" y="700.0"/>
      <point x="581.678676901" y="751.936278913"/>
      <point x="559.0" y="810.0" type="curve" smooth="yes"/>
    </contour>
  </outline>
</glyph>
<glyph name="underscore" format="2">
  <advance height="1920" width="900"/>
  <unicode hex="005F"/>
  <outline>
    <contour>
      <point x="-30.0" y="-85.0" type="curve" smooth="yes"/>
      <point x="-30.0" y="-70.0" type="line" smooth="yes"/>
      <point x="-30.0" y="-33.0"/>
      <point x="3.0" y="0.0"/>
      <point x="70.0" y="0.0" type="curve" smooth="yes"/>
      <point x="830.0" y="0.0" type="line" smooth="yes"/>
      <point x="897.0" y="0.0"/>
      <point x="930.0" y="-33.0"/>
      <point x="930.0" y="-70.0" type="curve" smooth="yes"/>
      <point x="930.0" y="-85.0" type="line" smooth="yes"/>
      <point x="930.0" y="-122.0"/>
      <point x="897.0" y="-155.0"/>
      <point x="830.0" y="-155.0" type="curve" smooth="yes"/>
      <point x="70.0" y="-155.0" type="line" smooth="yes"/>
      <point x="3.0" y="-155.0"/>
      <point x="-30.0" y="-122.0"/>
    </contour>
  </outline>
</glyph>
<glyph name="grave" format="2">
  <advance width="623"/>
  <unicode hex="0060"/>
  <outline>
    <contour>
      <point x="401.0" y="1084.0" type="curve" smooth="yes"/>
      <point x="396.0" y="1084.0" type="line" smooth="yes"/>
      <point x="369.0" y="1084.0"/>
      <point x="342.423480821" y="1105.5919397"/>
      <point x="286.0" y="1157.0" type="curve" smooth="yes"/>
      <point x="151.0" y="1280.0" type="line" smooth="yes"/>
      <point x="99.1344231813" y="1327.25530332"/>
      <point x="149.0" y="1430.0"/>
      <point x="216.0" y="1430.0" type="curve" smooth="yes"/>
      <point x="221.0" y="1430.0" type="line" smooth="yes"/>
      <point x="268.0" y="1430.0"/>
      <point x="300.403496451" y="1411.8725673"/>
      <point x="327.0" y="1359.0" type="curve" smooth="yes"/>
      <point x="410.0" y="1194.0" type="line" smooth="yes"/>
      <point x="450.201961199" y="1129.59880002"/>
      <point x="428.0" y="1084.0"/>
    </contour>
  </outline>
</glyph>
<glyph name="a" format="2">
  <advance height="1920" width="1110"/>
  <unicode hex="0061"/>
  <anchor x="525.0" y="0.0" name="bottom"/>
  <anchor x="930.0" y="0.0" name="ogonek"/>
  <anchor x="554.0" y="1050.0" name="top"/>
  <outline>
    <contour>
      <point x="260.0" y="270.0" type="curve" smooth="yes"/>
      <point x="260.0" y="176.396484375"/>
      <point x="312.181787539" y="95.0"/>
      <point x="460.0" y="95.0" type="curve" smooth="yes"/>
      <point x="624.0" y="95.0"/>
      <point x="778.0" y="222.0"/>
      <point x="778.0" y="398.0" type="curve"/>
      <point x="838.0" y="328.0" type="line"/>
      <point x="838.0" y="125.0"/>
      <point x="667.0" y="-35.0"/>
      <point x="426.0" y="-35.0" type="curve" smooth="yes"/>
      <point x="236.736328125" y="-35.0"/>
      <point x="70.0" y="45.109375"/>
      <point x="70.0" y="260.0" type="curve" smooth="yes"/>
      <point x="70.0" y="431.0078125"/>
      <point x="168.559645712" y="575.213334063"/>
      <point x="529.0" y="615.0" type="curve" smooth="yes"/>
      <point x="713.191803706" y="635.331734988"/>
      <point x="778.0" y="655.0"/>
      <point x="778.0" y="738.0" type="curve"/>
      <point x="818.0" y="618.0" type="line"/>
      <point x="818.0" y="555.0"/>
      <point x="726.447199786" y="524.015663328"/>
      <point x="556.0" y="500.0" type="curve" smooth="yes"/>
      <point x="331.513547388" y="468.370316002"/>
      <point x="260.0" y="380.081054688"/>
    </contour>
    <contour>
      <point x="778.0" y="208.0" type="curve" smooth="yes"/>
      <point x="778.0" y="788.0" type="line" smooth="yes"/>
      <point x="778.0" y="888.0"/>
      <point x="674.0" y="955.0"/>
      <point x="539.0" y="955.0" type="curve" smooth="yes"/>
      <point x="390.25390625" y="955.0"/>
      <point x="317.607421875" y="865.297851562"/>
      <point x="297.135742188" y="782.0" type="curve" smooth="yes"/>
      <point x="281.383789062" y="717.905273438"/>
      <point x="254.86328125" y="683.0"/>
      <point x="208.0" y="683.0" type="curve" smooth="yes"/>
      <point x="198.0" y="683.0" type="line" smooth="yes"/>
      <point x="150.93359375" y="683.0"/>
      <point x="114.053710938" y="717.416015625"/>
      <point x="127.853515625" y="782.0" type="curve" smooth="yes"/>
      <point x="165.030273438" y="955.990234375"/>
      <point x="292.381835938" y="1085.0"/>
      <point x="558.0" y="1085.0" type="curve" smooth="yes"/>
      <point x="818.0" y="1085.0"/>
      <point x="958.0" y="971.0"/>
      <point x="958.0" y="733.0" type="curve" smooth="yes"/>
      <point x="958.0" y="208.0" type="line" smooth="yes"/>
      <point x="958.0" y="133.612259255"/>
      <point x="970.341271738" y="90.6857432769"/>
      <point x="985.41796875" y="57.0" type="curve" smooth="yes"/>
      <point x="1018.02702085" y="-15.8581436978"/>
      <point x="965.610351562" y="-30.0"/>
      <point x="919.0" y="-30.0" type="curve" smooth="yes"/>
      <point x="915.0" y="-30.0" type="line" smooth="yes"/>
      <point x="871.68359375" y="-30.0"/>
      <point x="825.732082887" y="-8.63237194219"/>
      <point x="802.336914062" y="56.0" type="curve" smooth="yes"/>
      <point x="789.783741289" y="90.6798665072"/>
      <point x="778.0" y="112.835920156"/>
    </contour>
  </outline>
</glyph>
<glyph name="b" format="2">
  <advance height="1920" width="1135"/>
  <unicode hex="0062"/>
  <outline>
    <contour>
      <point x="210.0" y="1480.0" type="curve" smooth="yes"/>
      <point x="220.0" y="1480.0" type="line" smooth="yes"/>
      <point x="267.0" y="1480.0"/>
      <point x="310.0" y="1447.0"/>
      <point x="310.0" y="1380.0" type="curve" smooth="yes"/>
      <point x="310.0" y="185.0" type="line"/>
      <point x="253.0" y="65.0" type="line" smooth="yes"/>
      <point x="224.778320312" y="5.5869140625"/>
      <point x="197.0" y="-25.0"/>
      <point x="170.0" y="-25.0" type="curve" smooth="yes"/>
      <point x="169.0" y="-25.0" type="line" smooth="yes"/>
      <point x="142.0" y="-25.0"/>
      <point x="120.0" y="-12.0"/>
      <point x="120.0" y="35.0" type="curve" smooth="yes"/>
      <point x="120.0" y="1380.0" type="line" smooth="yes"/>
      <point x="120.0" y="1447.0"/>
      <point x="163.0" y="1480.0"/>
    </contour>
    <contour>
      <point x="240.0" y="633.0" type="line"/>
      <point x="240.0" y="923.0"/>
      <point x="427.0" y="1085.0"/>
      <point x="624.0" y="1085.0" type="curve" smooth="yes"/>
      <point x="831.0" y="1085.0"/>
      <point x="1060.0" y="943.0"/>
      <point x="1060.0" y="603.0" type="curve" smooth="yes"/>
      <point x="1060.0" y="447.0" type="line" smooth="yes"/>
      <point x="1060.0" y="127.0"/>
      <point x="841.0" y="-35.0"/>
      <point x="634.0" y="-35.0" type="curve" smooth="yes"/>
      <point x="407.0" y="-35.0"/>
      <point x="210.0" y="127.0"/>
      <point x="210.0" y="417.0" type="curve"/>
      <point x="310.0" y="437.0" type="line"/>
      <point x="310.0" y="227.0"/>
      <point x="427.0" y="105.0"/>
      <point x="584.0" y="105.0" type="curve" smooth="yes"/>
      <point x="731.0" y="105.0"/>
      <point x="870.0" y="207.0"/>
      <point x="870.0" y="417.0" type="curve" smooth="yes"/>
      <point x="870.0" y="633.0" type="line" smooth="yes"/>
      <point x="870.0" y="843.0"/>
      <point x="731.0" y="945.0"/>
      <point x="584.0" y="945.0" type="curve" smooth="yes"/>
      <point x="427.0" y="945.0"/>
      <point x="310.0" y="823.0"/>
      <point x="310.0" y="613.0" type="curve"/>
    </contour>
  </outline>
</glyph>
<glyph name="c" format="2">
  <advance height="1920" width="1000"/>
  <unicode hex="0063"/>
  <anchor x="530.0" y="0.0" name="bottom"/>
  <anchor x="524.0" y="1050.0" name="top"/>
  <outline>
    <contour>
      <point x="949.942172184" y="343.0" type="curve" smooth="yes"/>
      <point x="949.942172184" y="307.297412116"/>
      <point x="923.154331818" y="170.131180558"/>
      <point x="826.999999999" y="73.9768487378" type="curve" smooth="yes"/>
      <point x="764.481341937" y="11.4581906762"/>
      <point x="670.098171374" y="-35.0"/>
      <point x="530.0" y="-35.0" type="curve" smooth="yes"/>
      <point x="250.0" y="-35.0"/>
      <point x="65.0" y="151.0"/>
      <point x="65.0" y="448.0" type="curve" smooth="yes"/>
      <point x="65.0" y="603.0" type="line" smooth="yes"/>
      <point x="65.0" y="900.0"/>
      <point x="245.0" y="1085.0"/>
      <point x="525.0" y="1085.0" type="curve" smooth="yes"/>
      <point x="626.0" y="1085.0"/>
      <point x="744.236328125" y="1059.0"/>
      <point x="825.0" y="978.236328125" type="curve" smooth="yes"/>
      <point x="883.263670821" y="919.972657304"/>
      <point x="939.779385112" y="810.589263523"/>
      <point x="939.779385112" y="712.999996313" type="curve" smooth="yes"/>
      <point x="939.779385112" y="658.0"/>
      <point x="911.660027591" y="633.0"/>
      <point x="871.0" y="633.0" type="curve" smooth="yes"/>
      <point x="866.0" y="633.0" type="line" smooth="yes"/>
      <point x="809.041992188" y="633.0"/>
      <point x="788.415150287" y="667.284597626"/>
      <point x="774.58984375" y="740.0" type="curve" smooth="yes"/>
      <point x="769.558413551" y="766.463244811"/>
      <point x="754.837890625" y="831.0"/>
      <point x="708.0" y="877.837890625" type="curve" smooth="yes"/>
      <point x="672.760742188" y="913.077148438"/>
      <point x="601.811946611" y="945.0"/>
      <point x="520.0" y="945.0" type="curve" smooth="yes"/>
      <point x="366.0" y="945.0"/>
      <point x="255.0" y="833.0"/>
      <point x="255.0" y="633.0" type="curve" smooth="yes"/>
      <point x="255.0" y="418.0" type="line" smooth="yes"/>
      <point x="255.0" y="225.0"/>
      <point x="376.0" y="105.0"/>
      <point x="535.0" y="105.0" type="curve" smooth="yes"/>
      <point x="622.546072006" y="105.0"/>
      <point x="673.936523438" y="133.396484375"/>
      <point x="712.0" y="171.459960938" type="curve" smooth="yes"/>
      <point x="747.0" y="206.459960938"/>
      <point x="769.029717487" y="245.927926049"/>
      <point x="784.548828125" y="311.0" type="curve" smooth="yes"/>
      <point x="801.720596963" y="383.001716965"/>
      <point x="823.046875" y="418.0"/>
      <point x="870.0" y="418.0" type="curve" smooth="yes"/>
      <point x="880.0" y="418.0" type="line" smooth="yes"/>
      <point x="919.351612257" y="418.0"/>
      <point x="949.942172184" y="394.0"/>
    </contour>
  </outline>
</glyph>
<glyph name="d" format="2">
  <advance height="1920" width="1135"/>
  <unicode hex="0064"/>
  <outline>
    <contour>
      <point x="895.0" y="417.0" type="line"/>
      <point x="895.0" y="127.0"/>
      <point x="706.0" y="-35.0"/>
      <point x="509.0" y="-35.0" type="curve" smooth="yes"/>
      <point x="302.0" y="-35.0"/>
      <point x="75.0" y="107.0"/>
      <point x="75.0" y="447.0" type="curve" smooth="yes"/>
      <point x="75.0" y="603.0" type="line" smooth="yes"/>
      <point x="75.0" y="943.0"/>
      <point x="302.0" y="1085.0"/>
      <point x="509.0" y="1085.0" type="curve" smooth="yes"/>
      <point x="706.0" y="1085.0"/>
      <point x="895.0" y="923.0"/>
      <point x="895.0" y="633.0" type="curve"/>
      <point x="825.0" y="613.0" type="line"/>
      <point x="825.0" y="823.0"/>
      <point x="706.0" y="945.0"/>
      <point x="549.0" y="945.0" type="curve" smooth="yes"/>
      <point x="402.0" y="945.0"/>
      <point x="265.0" y="843.0"/>
      <point x="265.0" y="633.0" type="curve" smooth="yes"/>
      <point x="265.0" y="417.0" type="line" smooth="yes"/>
      <point x="265.0" y="207.0"/>
      <point x="402.0" y="105.0"/>
      <point x="549.0" y="105.0" type="curve" smooth="yes"/>
      <point x="706.0" y="105.0"/>
      <point x="825.0" y="227.0"/>
      <point x="825.0" y="437.0" type="curve"/>
    </contour>
    <contour>
      <point x="1015.0" y="1370.0" type="curve" smooth="yes"/>
      <point x="1015.0" y="80.0" type="line" smooth="yes"/>
      <point x="1015.0" y="13.0"/>
      <point x="977.0" y="-30.0"/>
      <point x="930.0" y="-30.0" type="curve" smooth="yes"/>
      <point x="925.0" y="-30.0" type="line" smooth="yes"/>
      <point x="878.0" y="-30.0"/>
      <point x="840.0" y="13.0"/>
      <point x="840.0" y="80.0" type="curve" smooth="yes"/>
      <point x="840.0" y="220.0" type="line"/>
      <point x="825.0" y="252.0" type="line"/>
      <point x="825.0" y="1370.0" type="line" smooth="yes"/>
      <point x="825.0" y="1437.0"/>
      <point x="868.0" y="1480.0"/>
      <point x="915.0" y="1480.0" type="curve" smooth="yes"/>
      <point x="925.0" y="1480.0" type="line" smooth="yes"/>
      <point x="972.0" y="1480.0"/>
      <point x="1015.0" y="1437.0"/>
    </contour>
  </outline>
</glyph>
<glyph name="e" format="2">
  <advance height="1920" width="1110"/>
  <unicode hex="0065"/>
  <anchor x="564.0" y="0.0" name="bottom"/>
  <anchor x="770.0" y="60.0" name="ogonek"/>
  <anchor x="565.0" y="1050.0" name="top"/>
  <outline>
    <contour>
      <point x="1004.94238281" y="293.0" type="curve" smooth="yes"/>
      <point x="1004.94238281" y="247.297851562"/>
      <point x="958.154296875" y="160.130859375"/>
      <point x="862.0" y="63.9765625" type="curve" smooth="yes"/>
      <point x="799.481445312" y="1.4580078125"/>
      <point x="702.098632812" y="-35.0"/>
      <point x="562.0" y="-35.0" type="curve" smooth="yes"/>
      <point x="293.0" y="-35.0"/>
      <point x="106.0" y="138.0"/>
      <point x="106.0" y="448.0" type="curve" smooth="yes"/>
      <point x="106.0" y="603.0" type="line" smooth="yes"/>
      <point x="106.0" y="903.0"/>
      <point x="293.0" y="1085.0"/>
      <point x="570.0" y="1085.0" type="curve" smooth="yes"/>
      <point x="837.0" y="1085.0"/>
      <point x="993.0" y="887.0"/>
      <point x="1016.0" y="674.0" type="curve" smooth="yes"/>
      <point x="1019.0" y="643.0"/>
      <point x="1023.0" y="607.0"/>
      <point x="1023.0" y="593.0" type="curve" smooth="yes"/>
      <point x="1023.0" y="518.0"/>
      <point x="991.0" y="485.0"/>
      <point x="914.0" y="485.0" type="curve" smooth="yes"/>
      <point x="230.0" y="485.0" type="line"/>
      <point x="230.0" y="605.0" type="line"/>
      <point x="840.0" y="605.0" type="line"/>
      <point x="835.0" y="832.0"/>
      <point x="733.0" y="955.0"/>
      <point x="570.0" y="955.0" type="curve" smooth="yes"/>
      <point x="413.0" y="955.0"/>
      <point x="296.0" y="843.0"/>
      <point x="296.0" y="633.0" type="curve" smooth="yes"/>
      <point x="296.0" y="418.0" type="line" smooth="yes"/>
      <point x="296.0" y="198.0"/>
      <point x="403.0" y="95.0"/>
      <point x="570.0" y="95.0" type="curve" smooth="yes"/>
      <point x="686.752878937" y="95.0"/>
      <point x="746.983081547" y="146.752032418"/>
      <point x="788.0" y="205.191054501" type="curve" smooth="yes"/>
      <point x="841.189533546" y="280.973059653"/>
      <point x="862.06974017" y="368.0"/>
      <point x="932.0" y="368.0" type="curve" smooth="yes"/>
      <point x="935.0" y="368.0" type="line" smooth="yes"/>
      <point x="974.3515625" y="368.0"/>
      <point x="1004.94238281" y="344.0"/>
    </contour>
  </outline>
</glyph>
<glyph name="f" format="2">
  <advance height="1920" width="620"/>
  <unicode hex="0066"/>
  <outline>
    <contour>
      <point x="510.0" y="910.0" type="curve" smooth="yes"/>
      <point x="140.0" y="910.0" type="line" smooth="yes"/>
      <point x="63.0" y="910.0"/>
      <point x="30.0" y="930.0"/>
      <point x="30.0" y="977.0" type="curve" smooth="yes"/>
      <point x="30.0" y="987.0" type="line" smooth="yes"/>
      <point x="30.0" y="1034.0"/>
      <point x="63.0" y="1050.0"/>
      <point x="140.0" y="1050.0" type="curve" smooth="yes"/>
      <point x="510.0" y="1050.0" type="line" smooth="yes"/>
      <point x="587.0" y="1050.0"/>
      <point x="620.0" y="1034.0"/>
      <point x="620.0" y="987.0" type="curve" smooth="yes"/>
      <point x="620.0" y="977.0" type="line" smooth="yes"/>
      <point x="620.0" y="930.0"/>
      <point x="587.0" y="910.0"/>
    </contour>
    <contour>
      <point x="180.0" y="1188.0" type="line" smooth="yes"/>
      <point x="180.0" y="1395.14532511"/>
      <point x="289.596901543" y="1453.34499298"/>
      <point x="508.0" y="1445.16601562" type="curve" smooth="yes"/>
      <point x="586.976784297" y="1442.20841413"/>
      <point x="620.0" y="1427.046875"/>
      <point x="620.0" y="1380.0" type="curve" smooth="yes"/>
      <point x="620.0" y="1370.0" type="line" smooth="yes"/>
      <point x="620.0" y="1323.15625"/>
      <point x="586.903389799" y="1320.8800896"/>
      <point x="504.0" y="1315.88964844" type="curve" smooth="yes"/>
      <point x="428.01200304" y="1311.31548532"/>
      <point x="365.0" y="1293.49478024"/>
      <point x="365.0" y="1168.0" type="curve" smooth="yes"/>
      <point x="365.0" y="80.0" type="line" smooth="yes"/>
      <point x="365.0" y="13.0"/>
      <point x="322.0" y="-30.0"/>
      <point x="275.0" y="-30.0" type="curve" smooth="yes"/>
      <point x="270.0" y="-30.0" type="line" smooth="yes"/>
      <point x="223.0" y="-30.0"/>
      <point x="180.0" y="13.0"/>
      <point x="180.0" y="80.0" type="curve" smooth="yes"/>
    </contour>
  </outline>
</glyph>
<glyph name="h" format="2">
  <advance height="1920" width="1110"/>
  <unicode hex="0068"/>
  <anchor x="554.0" y="0.0" name="bottom"/>
  <anchor x="221.0" y="1450.0" name="top"/>
  <outline>
    <contour>
      <point x="215.0" y="1480.0" type="curve" smooth="yes"/>
      <point x="225.0" y="1480.0" type="line" smooth="yes"/>
      <point x="272.0" y="1480.0"/>
      <point x="315.0" y="1447.0"/>
      <point x="315.0" y="1370.0" type="curve" smooth="yes"/>
      <point x="315.0" y="80.0" type="line" smooth="yes"/>
      <point x="315.0" y="3.0"/>
      <point x="271.595703125" y="-30.0"/>
      <point x="225.0" y="-30.0" type="curve" smooth="yes"/>
      <point x="215.0" y="-30.0" type="line" smooth="yes"/>
      <point x="168.0" y="-30.0"/>
      <point x="125.0" y="3.0"/>
      <point x="125.0" y="80.0" type="curve" smooth="yes"/>
      <point x="125.0" y="1370.0" type="line" smooth="yes"/>
      <point x="125.0" y="1447.0"/>
      <point x="168.0" y="1480.0"/>
    </contour>
    <contour>
      <point x="265.0" y="703.0" type="line"/>
      <point x="265.0" y="923.0"/>
      <point x="433.0" y="1085.0"/>
      <point x="640.0" y="1085.0" type="curve" smooth="yes"/>
      <point x="847.0" y="1085.0"/>
      <point x="985.0" y="963.0"/>
      <point x="985.0" y="763.0" type="curve" smooth="yes"/>
      <point x="985.0" y="80.0" type="line" smooth="yes"/>
      <point x="985.0" y="3.0"/>
      <point x="942.0" y="-30.0"/>
      <point x="895.0" y="-30.0" type="curve" smooth="yes"/>
      <point x="885.0" y="-30.0" type="line" smooth="yes"/>
      <point x="838.0" y="-30.0"/>
      <point x="795.0" y="3.0"/>
      <point x="795.0" y="80.0" type="curve" smooth="yes"/>
      <point x="795.0" y="763.0" type="line" smooth="yes"/>
      <point x="795.0" y="883.0"/>
      <point x="727.0" y="955.0"/>
      <point x="590.0" y="955.0" type="curve" smooth="yes"/>
      <point x="423.0" y="955.0"/>
      <point x="315.0" y="833.0"/>
      <point x="315.0" y="623.0" type="curve"/>
    </contour>
  </outline>
</glyph>
<glyph name="i" format="2">
  <advance height="1920" width="445"/>
  <unicode hex="0069"/>
  <anchor x="224.0" y="0.0" name="bottom"/>
  <anchor x="224.0" y="0.0" name="ogonek"/>
  <outline>
    <contour>
      <point x="348.0" y="1335.0" type="curve" smooth="yes"/>
      <point x="348.0" y="1325.0" type="line" smooth="yes"/>
      <point x="348.0" y="1260.76660156"/>
      <point x="298.072265625" y="1210.0"/>
      <point x="228.0" y="1210.0" type="curve" smooth="yes"/>
      <point x="218.0" y="1210.0" type="line" smooth="yes"/>
      <point x="147.927734375" y="1210.0"/>
      <point x="98.0" y="1260.76660156"/>
      <point x="98.0" y="1325.0" type="curve" smooth="yes"/>
      <point x="98.0" y="1335.0" type="line" smooth="yes"/>
      <point x="98.0" y="1399.23339844"/>
      <point x="147.927734375" y="1450.0"/>
      <point x="218.0" y="1450.0" type="curve" smooth="yes"/>
      <point x="228.0" y="1450.0" type="line" smooth="yes"/>
      <point x="298.072265625" y="1450.0"/>
      <point x="348.0" y="1399.23339844"/>
    </contour>
    <contour>
      <point x="318.0" y="970.0" type="curve" smooth="yes"/>
      <point x="318.0" y="80.0" type="line" smooth="yes"/>
      <point x="318.0" y="3.0"/>
      <point x="275.0" y="-30.0"/>
      <point x="228.0" y="-30.0" type="curve" smooth="yes"/>
      <point x="218.0" y="-30.0" type="line" smooth="yes"/>
      <point x="171.0" y="-30.0"/>
      <point x="128.0" y="3.0"/>
      <point x="128.0" y="80.0" type="curve" smooth="yes"/>
      <point x="128.0" y="970.0" type="line" smooth="yes"/>
      <point x="128.0" y="1047.0"/>
      <point x="171.0" y="1080.0"/>
      <point x="218.0" y="1080.0" type="curve" smooth="yes"/>
      <point x="228.0" y="1080.0" type="line" smooth="yes"/>
      <point x="275.0" y="1080.0"/>
      <point x="318.0" y="1047.0"/>
    </contour>
  </outline>
</glyph>
<glyph name="l" format="2">
  <advance height="1920" width="445"/>
  <unicode hex="006C"/>
  <outline>
    <contour>
      <point x="218.0" y="1480.0" type="curve" smooth="yes"/>
      <point x="228.0" y="1480.0" type="line" smooth="yes"/>
      <point x="275.0" y="1480.0"/>
      <point x="318.0" y="1447.0"/>
      <point x="318.0" y="1370.0" type="curve" smooth="yes"/>
      <point x="318.0" y="80.0" type="line" smooth="yes"/>
      <point x="318.0" y="3.0"/>
      <point x="274.595703125" y="-30.0"/>
      <point x="228.0" y="-30.0" type="curve" smooth="yes"/>
      <point x="218.0" y="-30.0" type="line" smooth="yes"/>
      <point x="171.0" y="-30.0"/>
      <point x="128.0" y="3.0"/>
      <point x="128.0" y="80.0" type="curve" smooth="yes"/>
      <point x="128.0" y="1370.0" type="line" smooth="yes"/>
      <point x="128.0" y="1447.0"/>
      <point x="171.0" y="1480.0"/>
    </contour>
  </outline>
</glyph>
<glyph name="m" format="2">
  <advance height="1920" width="1665"/>
  <unicode hex="006D"/>
  <outline>
    <contour>
      <point x="858.0" y="703.0" type="line"/>
      <point x="858.0" y="923.0"/>
      <point x="1035.0" y="1085.0"/>
      <point x="1222.0" y="1085.0" type="curve" smooth="yes"/>
      <point x="1409.0" y="1085.0"/>
      <point x="1538.0" y="962.991378922"/>
      <point x="1538.0" y="763.0" type="curve" smooth="yes"/>
      <point x="1538.0" y="80.0" type="line" smooth="yes"/>
      <point x="1538.0" y="3.0"/>
      <point x="1495.0" y="-30.0"/>
      <point x="1448.0" y="-30.0" type="curve" smooth="yes"/>
      <point x="1438.0" y="-30.0" type="line" smooth="yes"/>
      <point x="1391.0" y="-30.0"/>
      <point x="1348.0" y="3.0"/>
      <point x="1348.0" y="80.0" type="curve" smooth="yes"/>
      <point x="1348.0" y="763.0" type="line" smooth="yes"/>
      <point x="1348.0" y="882.999370063"/>
      <point x="1289.0" y="955.0"/>
      <point x="1172.0" y="955.0" type="curve" smooth="yes"/>
      <point x="1025.0" y="955.0"/>
      <point x="928.0" y="833.0"/>
      <point x="928.0" y="623.0" type="curve"/>
    </contour>
    <contour>
      <point x="213.0" y="1080.0" type="curve" smooth="yes"/>
      <point x="223.0" y="1080.0" type="line" smooth="yes"/>
      <point x="270.0" y="1080.0"/>
      <point x="308.0" y="1047.0"/>
      <point x="308.0" y="970.0" type="curve" smooth="yes"/>
      <point x="308.0" y="852.0" type="line"/>
      <point x="318.0" y="825.0" type="line"/>
      <point x="318.0" y="80.0" type="line" smooth="yes"/>
      <point x="318.0" y="3.0"/>
      <point x="275.0" y="-30.0"/>
      <point x="228.0" y="-30.0" type="curve" smooth="yes"/>
      <point x="218.0" y="-30.0" type="line" smooth="yes"/>
      <point x="171.0" y="-30.0"/>
      <point x="128.0" y="3.0"/>
      <point x="128.0" y="80.0" type="curve" smooth="yes"/>
      <point x="128.0" y="970.0" type="line" smooth="yes"/>
      <point x="128.0" y="1047.0"/>
      <point x="166.0" y="1080.0"/>
    </contour>
    <contour>
      <point x="268.0" y="703.0" type="line"/>
      <point x="268.0" y="923.0"/>
      <point x="425.0" y="1085.0"/>
      <point x="612.0" y="1085.0" type="curve" smooth="yes"/>
      <point x="799.0" y="1085.0"/>
      <point x="928.0" y="962.994233362"/>
      <point x="928.0" y="763.0" type="curve" smooth="yes"/>
      <point x="928.0" y="80.0" type="line" smooth="yes"/>
      <point x="928.0" y="3.0"/>
      <point x="885.0" y="-30.0"/>
      <point x="838.0" y="-30.0" type="curve" smooth="yes"/>
      <point x="828.0" y="-30.0" type="line" smooth="yes"/>
      <point x="781.0" y="-30.0"/>
      <point x="738.0" y="3.0"/>
      <point x="738.0" y="80.0" type="curve" smooth="yes"/>
      <point x="738.0" y="763.0" type="line" smooth="yes"/>
      <point x="738.0" y="882.999785107"/>
      <point x="679.0" y="955.0"/>
      <point x="562.0" y="955.0" type="curve" smooth="yes"/>
      <point x="415.0" y="955.0"/>
      <point x="318.0" y="833.0"/>
      <point x="318.0" y="623.0" type="curve"/>
    </contour>
  </outline>
</glyph>
<glyph name="n" format="2">
  <advance height="1920" width="1110"/>
  <unicode hex="006E"/>
  <anchor x="554.0" y="0.0" name="bottom"/>
  <anchor x="555.0" y="1050.0" name="top"/>
  <outline>
    <contour>
      <point x="210.0" y="1080.0" type="curve" smooth="yes"/>
      <point x="220.0" y="1080.0" type="line" smooth="yes"/>
      <point x="267.0" y="1080.0"/>
      <point x="305.0" y="1047.0"/>
      <point x="305.0" y="970.0" type="curve" smooth="yes"/>
      <point x="305.0" y="837.0" type="line"/>
      <point x="315.0" y="810.0" type="line"/>
      <point x="315.0" y="80.0" type="line" smooth="yes"/>
      <point x="315.0" y="3.0"/>
      <point x="272.0" y="-30.0"/>
      <point x="225.0" y="-30.0" type="curve" smooth="yes"/>
      <point x="215.0" y="-30.0" type="line" smooth="yes"/>
      <point x="168.0" y="-30.0"/>
      <point x="125.0" y="3.0"/>
      <point x="125.0" y="80.0" type="curve" smooth="yes"/>
      <point x="125.0" y="970.0" type="line" smooth="yes"/>
      <point x="125.0" y="1047.0"/>
      <point x="163.0" y="1080.0"/>
    </contour>
    <contour>
      <point x="265.0" y="703.0" type="line"/>
      <point x="265.0" y="923.0"/>
      <point x="433.0" y="1085.0"/>
      <point x="640.0" y="1085.0" type="curve" smooth="yes"/>
      <point x="847.0" y="1085.0"/>
      <point x="985.0" y="962.995075946"/>
      <point x="985.0" y="763.0" type="curve" smooth="yes"/>
      <point x="985.0" y="80.0" type="line" smooth="yes"/>
      <point x="985.0" y="3.0"/>
      <point x="942.0" y="-30.0"/>
      <point x="895.0" y="-30.0" type="curve" smooth="yes"/>
      <point x="885.0" y="-30.0" type="line" smooth="yes"/>
      <point x="838.0" y="-30.0"/>
      <point x="795.0" y="3.0"/>
      <point x="795.0" y="80.0" type="curve" smooth="yes"/>
      <point x="795.0" y="763.0" type="line" smooth="yes"/>
      <point x="795.0" y="883.0"/>
      <point x="727.0" y="955.0"/>
      <point x="590.0" y="955.0" type="curve" smooth="yes"/>
      <point x="423.0" y="955.0"/>
      <point x="315.0" y="833.0"/>
      <point x="315.0" y="623.0" type="curve"/>
    </contour>
  </outline>
</glyph>
<glyph name="o" format="2">
  <advance height="1920" width="1110"/>
  <unicode hex="006F"/>
  <anchor x="554.0" y="0.0" name="bottom"/>
  <anchor x="555.0" y="1050.0" name="top"/>
  <outline>
    <contour>
      <point x="90.0" y="448.0" type="curve" smooth="yes"/>
      <point x="90.0" y="603.0" type="line" smooth="yes"/>
      <point x="90.0" y="893.0"/>
      <point x="278.0" y="1085.0"/>
      <point x="555.0" y="1085.0" type="curve" smooth="yes"/>
      <point x="832.0" y="1085.0"/>
      <point x="1020.0" y="893.0"/>
      <point x="1020.0" y="603.0" type="curve" smooth="yes"/>
      <point x="1020.0" y="448.0" type="line" smooth="yes"/>
      <point x="1020.0" y="158.0"/>
      <point x="832.0" y="-35.0"/>
      <point x="555.0" y="-35.0" type="curve" smooth="yes"/>
      <point x="278.0" y="-35.0"/>
      <point x="90.0" y="158.0"/>
    </contour>
    <contour>
      <point x="285.0" y="418.0" type="line" smooth="yes"/>
      <point x="285.0" y="228.0"/>
      <point x="368.0" y="95.0"/>
      <point x="555.0" y="95.0" type="curve" smooth="yes"/>
      <point x="742.0" y="95.0"/>
      <point x="825.0" y="228.0"/>
      <point x="825.0" y="418.0" type="curve" smooth="yes"/>
      <point x="825.0" y="633.0" type="line" smooth="yes"/>
      <point x="825.0" y="823.0"/>
      <point x="742.0" y="955.0"/>
      <point x="555.0" y="955.0" type="curve" smooth="yes"/>
      <point x="368.0" y="955.0"/>
      <point x="285.0" y="823.0"/>
      <point x="285.0" y="633.0" type="curve" smooth="yes"/>
    </contour>
  </outline>
</glyph>
<glyph name="p" format="2">
  <advance height="1920" width="1135"/>
  <unicode hex="0070"/>
  <outline>
    <contour>
      <point x="240.0" y="633.0" type="line"/>
      <point x="240.0" y="923.0"/>
      <point x="449.0" y="1085.0"/>
      <point x="646.0" y="1085.0" type="curve" smooth="yes"/>
      <point x="853.0" y="1085.0"/>
      <point x="1060.0" y="943.0"/>
      <point x="1060.0" y="603.0" type="curve" smooth="yes"/>
      <point x="1060.0" y="447.0" type="line" smooth="yes"/>
      <point x="1060.0" y="107.0"/>
      <point x="853.0" y="-35.0"/>
      <point x="646.0" y="-35.0" type="curve" smooth="yes"/>
      <point x="449.0" y="-35.0"/>
      <point x="240.0" y="127.0"/>
      <point x="240.0" y="417.0" type="curve"/>
      <point x="310.0" y="437.0" type="line"/>
      <point x="310.0" y="227.0"/>
      <point x="449.0" y="105.0"/>
      <point x="606.0" y="105.0" type="curve" smooth="yes"/>
      <point x="753.0" y="105.0"/>
      <point x="870.0" y="207.0"/>
      <point x="870.0" y="417.0" type="curve" smooth="yes"/>
      <point x="870.0" y="633.0" type="line" smooth="yes"/>
      <point x="870.0" y="843.0"/>
      <point x="753.0" y="945.0"/>
      <point x="606.0" y="945.0" type="curve" smooth="yes"/>
      <point x="449.0" y="945.0"/>
      <point x="310.0" y="823.0"/>
      <point x="310.0" y="613.0" type="curve"/>
    </contour>
    <contour>
      <point x="120.0" y="-280.0" type="curve" smooth="yes"/>
      <point x="120.0" y="970.0" type="line" smooth="yes"/>
      <point x="120.0" y="1037.0"/>
      <point x="158.0" y="1080.0"/>
      <point x="205.0" y="1080.0" type="curve" smooth="yes"/>
      <point x="210.0" y="1080.0" type="line" smooth="yes"/>
      <point x="257.0" y="1080.0"/>
      <point x="295.0" y="1037.0"/>
      <point x="295.0" y="970.0" type="curve" smooth="yes"/>
      <point x="295.0" y="830.0" type="line"/>
      <point x="310.0" y="798.0" type="line"/>
      <point x="310.0" y="-280.0" type="line" smooth="yes"/>
      <point x="310.0" y="-347.0"/>
      <point x="267.0" y="-390.0"/>
      <point x="220.0" y="-390.0" type="curve" smooth="yes"/>
      <point x="210.0" y="-390.0" type="line" smooth="yes"/>
      <point x="163.0" y="-390.0"/>
      <point x="120.0" y="-347.0"/>
    </contour>
  </outline>
</glyph>
<glyph name="r" format="2">
  <advance height="1920" width="715"/>
  <unicode hex="0072"/>
  <anchor x="224.0" y="0.0" name="bottom"/>
  <anchor x="375.0" y="1050.0" name="top"/>
  <outline>
    <contour>
      <point x="200.0" y="1080.0" type="curve" smooth="yes"/>
      <point x="215.0" y="1080.0" type="line" smooth="yes"/>
      <point x="262.0" y="1080.0"/>
      <point x="295.0" y="1047.0"/>
      <point x="295.0" y="970.0" type="curve" smooth="yes"/>
      <point x="295.0" y="774.0" type="line"/>
      <point x="310.0" y="765.0" type="line"/>
      <point x="310.0" y="80.0" type="line" smooth="yes"/>
      <point x="310.0" y="3.0"/>
      <point x="267.0" y="-30.0"/>
      <point x="220.0" y="-30.0" type="curve" smooth="yes"/>
      <point x="210.0" y="-30.0" type="line" smooth="yes"/>
      <point x="163.0" y="-30.0"/>
      <point x="120.0" y="3.0"/>
      <point x="120.0" y="80.0" type="curve" smooth="yes"/>
      <point x="120.0" y="970.0" type="line" smooth="yes"/>
      <point x="120.0" y="1047.0"/>
      <point x="153.0" y="1080.0"/>
    </contour>
    <contour>
      <point x="270.0" y="723.0" type="line"/>
      <point x="270.0" y="908.681735595"/>
      <point x="410.2734375" y="1047.61621094"/>
      <point x="581.0" y="1074.02832031" type="curve" smooth="yes"/>
      <point x="661.059570312" y="1086.4140625"/>
      <point x="705.0" y="1047.26171875"/>
      <point x="705.0" y="1000.0" type="curve" smooth="yes"/>
      <point x="705.0" y="990.0" type="line" smooth="yes"/>
      <point x="705.0" y="943.345703125"/>
      <point x="660.647460938" y="919.697265625"/>
      <point x="578.0" y="904.64453125" type="curve" smooth="yes"/>
      <point x="462.42578125" y="883.595703125"/>
      <point x="310.0" y="809.542808017"/>
      <point x="310.0" y="663.0" type="curve"/>
    </contour>
  </outline>
</glyph>
<glyph name="t" format="2">
  <advance height="1920" width="625"/>
  <unicode hex="0074"/>
  <anchor x="354.0" y="0.0" name="bottom"/>
  <outline>
    <contour>
      <point x="500.0" y="910.0" type="curve" smooth="yes"/>
      <point x="110.0" y="910.0" type="line" smooth="yes"/>
      <point x="33.0" y="910.0"/>
      <point x="-2.877919978e-15" y="928.0"/>
      <point x="0.0" y="975.0" type="curve" smooth="yes"/>
      <point x="0.0" y="985.0" type="line" smooth="yes"/>
      <point x="-2.877919978e-15" y="1032.0"/>
      <point x="33.0" y="1050.0"/>
      <point x="110.0" y="1050.0" type="curve" smooth="yes"/>
      <point x="500.0" y="1050.0" type="line" smooth="yes"/>
      <point x="577.0" y="1050.0"/>
      <point x="610.0" y="1032.0"/>
      <point x="610.0" y="985.0" type="curve" smooth="yes"/>
      <point x="610.0" y="975.0" type="line" smooth="yes"/>
      <point x="610.0" y="928.0"/>
      <point x="577.0" y="910.0"/>
    </contour>
    <contour>
      <point x="625.0" y="70.0" type="curve" smooth="yes"/>
      <point x="625.0" y="60.0" type="line" smooth="yes"/>
      <point x="625.0" y="12.9619140625"/>
      <point x="581.917694347" y="-3.61012549374"/>
      <point x="505.0" y="-8.30859375" type="curve" smooth="yes"/>
      <point x="285.118259939" y="-21.7399294729"/>
      <point x="160.0" y="44.3721379873"/>
      <point x="160.0" y="252.0" type="curve" smooth="yes"/>
      <point x="160.0" y="1220.0" type="line" smooth="yes"/>
      <point x="160.0" y="1297.0"/>
      <point x="203.0" y="1340.0"/>
      <point x="250.0" y="1340.0" type="curve" smooth="yes"/>
      <point x="255.0" y="1340.0" type="line" smooth="yes"/>
      <point x="302.0" y="1340.0"/>
      <point x="345.0" y="1297.0"/>
      <point x="345.0" y="1220.0" type="curve" smooth="yes"/>
      <point x="345.0" y="272.0" type="line" smooth="yes"/>
      <point x="345.0" y="144.507012174"/>
      <point x="424.985351562" y="124.44140625"/>
      <point x="506.0" y="125.901367188" type="curve" smooth="yes"/>
      <point x="582.038085938" y="127.271484375"/>
      <point x="625.0" y="116.951171875"/>
    </contour>
  </outline>
</glyph>
<glyph name="u" format="2">
  <advance height="1920" width="1110"/>
  <unicode hex="0075"/>
  <anchor x="554.0" y="0.0" name="bottom"/>
  <anchor x="870.0" y="0.0" name="ogonek"/>
  <anchor x="555.0" y="1050.0" name="top"/>
  <outline>
    <contour>
      <point x="902.0" y="-30.0" type="curve" smooth="yes"/>
      <point x="887.0" y="-30.0" type="line" smooth="yes"/>
      <point x="840.0" y="-30.0"/>
      <point x="807.0" y="3.0"/>
      <point x="807.0" y="80.0" type="curve" smooth="yes"/>
      <point x="807.0" y="193.0" type="line"/>
      <point x="792.0" y="250.0" type="line"/>
      <point x="792.0" y="970.0" type="line" smooth="yes"/>
      <point x="792.0" y="1047.0"/>
      <point x="835.0" y="1080.0"/>
      <point x="882.0" y="1080.0" type="curve" smooth="yes"/>
      <point x="892.0" y="1080.0" type="line" smooth="yes"/>
      <point x="939.0" y="1080.0"/>
      <point x="982.0" y="1047.0"/>
      <point x="982.0" y="970.0" type="curve" smooth="yes"/>
      <point x="982.0" y="80.0" type="line" smooth="yes"/>
      <point x="982.0" y="3.0"/>
      <point x="949.0" y="-30.0"/>
    </contour>
    <contour>
      <point x="842.0" y="347.0" type="line"/>
      <point x="842.0" y="127.0"/>
      <point x="675.0" y="-35.0"/>
      <point x="468.0" y="-35.0" type="curve" smooth="yes"/>
      <point x="261.0" y="-35.0"/>
      <point x="122.0" y="87.0231529633"/>
      <point x="122.0" y="287.0" type="curve" smooth="yes"/>
      <point x="122.0" y="970.0" type="line" smooth="yes"/>
      <point x="122.0" y="1047.0"/>
      <point x="165.0" y="1080.0"/>
      <point x="212.0" y="1080.0" type="curve" smooth="yes"/>
      <point x="222.0" y="1080.0" type="line" smooth="yes"/>
      <point x="269.0" y="1080.0"/>
      <point x="312.0" y="1047.0"/>
      <point x="312.0" y="970.0" type="curve" smooth="yes"/>
      <point x="312.0" y="287.0" type="line" smooth="yes"/>
      <point x="313.572312153" y="167.032582705"/>
      <point x="381.0" y="95.0"/>
      <point x="518.0" y="95.0" type="curve" smooth="yes"/>
      <point x="685.0" y="95.0"/>
      <point x="792.0" y="217.0"/>
      <point x="792.0" y="427.0" type="curve"/>
    </contour>
  </outline>
</glyph>
<glyph name="v" format="2">
  <advance height="1920" width="1000"/>
  <unicode hex="0076"/>
  <outline>
    <contour>
      <point x="510.0" y="158.0" type="line"/>
      <point x="784.0" y="970.0" type="line" smooth="yes"/>
      <point x="807.53112388" y="1039.7345715"/>
      <point x="835.0" y="1080.0"/>
      <point x="882.0" y="1080.0" type="curve" smooth="yes"/>
      <point x="892.0" y="1080.0" type="line" smooth="yes"/>
      <point x="949.0" y="1080.0"/>
      <point x="977.462375139" y="1038.67125416"/>
      <point x="952.0" y="970.0" type="curve" smooth="yes"/>
      <point x="622.0" y="80.0" type="line" smooth="yes"/>
      <point x="589.692230855" y="-7.13307436182"/>
      <point x="549.0" y="-30.0"/>
      <point x="502.0" y="-30.0" type="curve" smooth="yes"/>
      <point x="488.0" y="-30.0" type="line" smooth="yes"/>
      <point x="441.0" y="-30.0"/>
      <point x="400.379564716" y="-6.73233725988"/>
      <point x="369.0" y="80.0" type="curve" smooth="yes"/>
      <point x="47.0" y="970.0" type="line" smooth="yes"/>
      <point x="22.1345994124" y="1038.72734945"/>
      <point x="71.0" y="1080.0"/>
      <point x="118.0" y="1080.0" type="curve" smooth="yes"/>
      <point x="128.0" y="1080.0" type="line" smooth="yes"/>
      <point x="175.0" y="1080.0"/>
      <point x="212.46887612" y="1039.7345715"/>
      <point x="236.0" y="970.0" type="curve" smooth="yes"/>
    </contour>
  </outline>
</glyph>
<glyph name="w" format="2">
  <advance height="1920" width="1445"/>
  <unicode hex="0077"/>
  <outline>
    <contour>
      <point x="1040.0" y="208.0" type="line"/>
      <point x="1229.0" y="970.0" type="line" smooth="yes"/>
      <point x="1247.1075492" y="1043.00503962"/>
      <point x="1268.35449219" y="1080.0"/>
      <point x="1315.0" y="1080.0" type="curve" smooth="yes"/>
      <point x="1325.0" y="1080.0" type="line" smooth="yes"/>
      <point x="1372.34570312" y="1080.0"/>
      <point x="1408.42610443" y="1041.29110956"/>
      <point x="1388.0" y="970.0" type="curve" smooth="yes"/>
      <point x="1133.0" y="80.0" type="line" smooth="yes"/>
      <point x="1112.53584006" y="8.57606921987"/>
      <point x="1077.02832031" y="-30.0"/>
      <point x="1030.0" y="-30.0" type="curve" smooth="yes"/>
      <point x="1025.0" y="-30.0" type="line" smooth="yes"/>
      <point x="978.034179688" y="-30.0"/>
      <point x="941.972616836" y="7.2064015835"/>
      <point x="922.0" y="80.0" type="curve" smooth="yes"/>
      <point x="725.0" y="798.0" type="line"/>
      <point x="533.0" y="80.0" type="line" smooth="yes"/>
      <point x="513.400614016" y="6.70646283019"/>
      <point x="477.028320312" y="-30.0"/>
      <point x="430.0" y="-30.0" type="curve" smooth="yes"/>
      <point x="415.0" y="-30.0" type="line" smooth="yes"/>
      <point x="368.034179688" y="-30.0"/>
      <point x="332.734375" y="7.34765625"/>
      <point x="312.0" y="80.0" type="curve" smooth="yes"/>
      <point x="69.0" y="930.0" type="line" smooth="yes"/>
      <point x="40.4928928513" y="1029.71621842"/>
      <point x="88.0" y="1080.0"/>
      <point x="145.0" y="1080.0" type="curve" smooth="yes"/>
      <point x="155.0" y="1080.0" type="line" smooth="yes"/>
      <point x="201.965820312" y="1080.0"/>
      <point x="227.179444422" y="1043.40142351"/>
      <point x="245.0" y="970.0" type="curve" smooth="yes"/>
      <point x="430.0" y="208.0" type="line"/>
      <point x="637.0" y="970.0" type="line" smooth="yes"/>
      <point x="656.68615659" y="1042.46788078"/>
      <point x="687.971679688" y="1080.0"/>
      <point x="735.0" y="1080.0" type="curve" smooth="yes"/>
      <point x="740.0" y="1080.0" type="line" smooth="yes"/>
      <point x="786.965820312" y="1080.0"/>
      <point x="818.730670503" y="1042.68925286"/>
      <point x="838.0" y="970.0" type="curve" smooth="yes"/>
    </contour>
  </outline>
</glyph>
<glyph name="x" format="2">
  <advance height="1920" width="1000"/>
  <unicode hex="0078"/>
  <outline>
    <contour>
      <point x="165.0" y="-30.0" type="curve" smooth="yes"/>
      <point x="160.0" y="-30.0" type="line" smooth="yes"/>
      <point x="93.0" y="-30.0"/>
      <point x="75.8038450531" y="51.4561128058"/>
      <point x="137.0" y="140.0" type="curve" smooth="yes"/>
      <point x="410.0" y="535.0" type="line"/>
      <point x="132.0" y="940.0" type="line" smooth="yes"/>
      <point x="79.9773108031" y="1015.78845009"/>
      <point x="138.0" y="1080.0"/>
      <point x="195.0" y="1080.0" type="curve" smooth="yes"/>
      <point x="200.0" y="1080.0" type="line" smooth="yes"/>
      <point x="247.05859375" y="1080.0"/>
      <point x="274.773325103" y="1048.81313348"/>
      <point x="325.0" y="970.0" type="curve" smooth="yes"/>
      <point x="513.0" y="675.0" type="line"/>
      <point x="692.0" y="970.0" type="line" smooth="yes"/>
      <point x="741.067580059" y="1050.8655649"/>
      <point x="767.890625" y="1080.0"/>
      <point x="805.0" y="1080.0" type="curve" smooth="yes"/>
      <point x="810.0" y="1080.0" type="line" smooth="yes"/>
      <point x="867.0" y="1080.0"/>
      <point x="909.714794659" y="1007.54889475"/>
      <point x="848.0" y="920.0" type="curve" smooth="yes"/>
      <point x="590.0" y="554.0" type="line"/>
      <point x="855.0" y="150.0" type="line" smooth="yes"/>
      <point x="919.624642258" y="51.4779038788"/>
      <point x="892.0" y="-30.0"/>
      <point x="825.0" y="-30.0" type="curve" smooth="yes"/>
      <point x="815.0" y="-30.0" type="line" smooth="yes"/>
      <point x="766.94140625" y="-30.0"/>
      <point x="735.177895972" y="15.4346582574"/>
      <point x="694.0" y="80.0" type="curve" smooth="yes"/>
      <point x="488.0" y="403.0" type="line"/>
      <point x="289.0" y="80.0" type="line" smooth="yes"/>
      <point x="244.305730494" y="7.45603492285"/>
      <point x="212.109375" y="-30.0"/>
    </contour>
  </outline>
</glyph>
<glyph name="y" format="2">
  <advance height="1920" width="1000"/>
  <unicode hex="0079"/>
  <anchor x="505.0" y="1050.0" name="top"/>
  <outline>
    <contour>
      <point x="497.0" y="208.0" type="line"/>
      <point x="767.0" y="970.0" type="line" smooth="yes"/>
      <point x="788.315197677" y="1030.15622456"/>
      <point x="817.971679688" y="1080.0"/>
      <point x="865.0" y="1080.0" type="curve" smooth="yes"/>
      <point x="870.0" y="1080.0" type="line" smooth="yes"/>
      <point x="927.0" y="1080.0"/>
      <point x="947.590860453" y="1016.85164792"/>
      <point x="919.0" y="940.0" type="curve" smooth="yes"/>
      <point x="528.0" y="-111.0" type="line" smooth="yes"/>
      <point x="423.07252976" y="-392.99257627"/>
      <point x="314.513689933" y="-387.379218572"/>
      <point x="196.0" y="-373.859375" type="curve" smooth="yes"/>
      <point x="114.385302916" y="-364.548906831"/>
      <point x="81.0" y="-337.043945312"/>
      <point x="81.0" y="-300.0" type="curve" smooth="yes"/>
      <point x="81.0" y="-295.0" type="line" smooth="yes"/>
      <point x="81.0" y="-248.088867188"/>
      <point x="111.022917894" y="-228.552360381"/>
      <point x="192.0" y="-239.418945312" type="curve" smooth="yes"/>
      <point x="266.172853867" y="-249.372448145"/>
      <point x="328.777650783" y="-234.548537599"/>
      <point x="402.0" y="-10.0" type="curve"/>
      <point x="74.0" y="940.0" type="line" smooth="yes"/>
      <point x="47.0322037418" y="1018.10794648"/>
      <point x="88.0" y="1080.0"/>
      <point x="145.0" y="1080.0" type="curve" smooth="yes"/>
      <point x="155.0" y="1080.0" type="line" smooth="yes"/>
      <point x="202.0" y="1080.0"/>
      <point x="231.411820519" y="1030.67558034"/>
      <point x="251.0" y="970.0" type="curve" smooth="yes"/>
    </contour>
  </outline>
</glyph>
<glyph name="z" format="2">
  <advance height="1920" width="1000"/>
  <unicode hex="007A"/>
  <anchor x="525.0" y="1050.0" name="top"/>
  <outline>
    <contour>
      <point x="135.0" y="160.0" type="curve" smooth="yes"/>
      <point x="709.0" y="900.0" type="line"/>
      <point x="242.0" y="900.0" type="line" smooth="yes"/>
      <point x="163.48046875" y="900.0"/>
      <point x="132.0" y="921.404296875"/>
      <point x="132.0" y="970.0" type="curve" smooth="yes"/>
      <point x="132.0" y="980.0" type="line" smooth="yes"/>
      <point x="132.0" y="1028.52050781"/>
      <point x="163.404296875" y="1050.0"/>
      <point x="242.0" y="1050.0" type="curve" smooth="yes"/>
      <point x="832.0" y="1050.0" type="line" smooth="yes"/>
      <point x="929.0" y="1050.0"/>
      <point x="948.77423119" y="969.264762699"/>
      <point x="903.0" y="910.0" type="curve" smooth="yes"/>
      <point x="316.0" y="150.0" type="line"/>
      <point x="882.0" y="150.0" type="line" smooth="yes"/>
      <point x="959.0" y="150.0"/>
      <point x="992.0" y="127.0"/>
      <point x="992.0" y="80.0" type="curve" smooth="yes"/>
      <point x="992.0" y="70.0" type="line" smooth="yes"/>
      <point x="992.0" y="23.015625"/>
      <point x="959.0" y="-9.42978035343e-15"/>
      <point x="882.0" y="0.0" type="curve" smooth="yes"/>
      <point x="192.0" y="0.0" type="line" smooth="yes"/>
      <point x="106.0" y="0.0"/>
      <point x="78.4637147189" y="87.1134998118"/>
    </contour>
  </outline>
</glyph>
<glyph name="braceleft" format="2">
  <advance height="2048" width="575"/>
  <unicode hex="007B"/>
  <outline>
    <contour>
      <point x="155.0" y="1278.0" type="line" smooth="yes"/>
      <point x="155.0" y="1505.0"/>
      <point x="217.0" y="1600.0"/>
      <point x="395.0" y="1600.0" type="curve" smooth="yes"/>
      <point x="472.0" y="1600.0"/>
      <point x="505.0" y="1577.0"/>
      <point x="505.0" y="1550.0" type="curve" smooth="yes"/>
      <point x="505.0" y="1540.0" type="line" smooth="yes"/>
      <point x="505.0" y="1503.0"/>
      <point x="451.0" y="1510.0"/>
      <point x="414.0" y="1500.0" type="curve" smooth="yes"/>
      <point x="375.0" y="1489.0"/>
      <point x="330.0" y="1452.0"/>
      <point x="330.0" y="1278.0" type="curve" smooth="yes"/>
      <point x="330.0" y="956.0" type="line" smooth="yes"/>
      <point x="330.0" y="771.0"/>
      <point x="302.0" y="668.0"/>
      <point x="146.0" y="620.0" type="curve"/>
      <point x="302.0" y="572.0"/>
      <point x="330.0" y="469.0"/>
      <point x="330.0" y="284.0" type="curve" smooth="yes"/>
      <point x="330.0" y="-38.0" type="line" smooth="yes"/>
      <point x="330.0" y="-212.0"/>
      <point x="375.0" y="-249.0"/>
      <point x="414.0" y="-260.0" type="curve" smooth="yes"/>
      <point x="451.0" y="-270.0"/>
      <point x="505.0" y="-263.0"/>
      <point x="505.0" y="-300.0" type="curve" smooth="yes"/>
      <point x="505.0" y="-310.0" type="line" smooth="yes"/>
      <point x="505.0" y="-337.0"/>
      <point x="472.0" y="-360.0"/>
      <point x="395.0" y="-360.0" type="curve" smooth="yes"/>
      <point x="217.0" y="-360.0"/>
      <point x="155.0" y="-265.0"/>
      <point x="155.0" y="-38.0" type="curve" smooth="yes"/>
      <point x="155.0" y="284.0" type="line" smooth="yes"/>
      <point x="155.0" y="457.0"/>
      <point x="125.434272314" y="504.423216403"/>
      <point x="52.0" y="542.0" type="curve" smooth="yes"/>
      <point x="17.4462380863" y="559.681379456"/>
      <point x="-2.26559657842e-15" y="579.0"/>
      <point x="0.0" y="616.0" type="curve" smooth="yes"/>
      <point x="0.0" y="624.0" type="line" smooth="yes"/>
      <point x="-2.26559657842e-15" y="661.0"/>
      <point x="16.7371207052" y="681.421417904"/>
      <point x="50.0" y="697.0" type="curve" smooth="yes"/>
      <point x="128.020628719" y="733.540756406"/>
      <point x="155.0" y="782.0"/>
      <point x="155.0" y="956.0" type="curve" smooth="yes"/>
    </contour>
  </outline>
</glyph>
<glyph name="bar" format="2">
  <advance height="1920" width="415"/>
  <unicode hex="007C"/>
  <outline>
    <contour>
      <point x="203.0" y="1630.0" type="curve" smooth="yes"/>
      <point x="213.0" y="1630.0" type="line" smooth="yes"/>
      <point x="260.0" y="1630.0"/>
      <point x="288.0" y="1597.0"/>
      <point x="288.0" y="1520.0" type="curve" smooth="yes"/>
      <point x="288.0" y="-280.0" type="line" smooth="yes"/>
      <point x="288.0" y="-357.0"/>
      <point x="259.595703125" y="-390.0"/>
      <point x="213.0" y="-390.0" type="curve" smooth="yes"/>
      <point x="203.0" y="-390.0" type="line" smooth="yes"/>
      <point x="156.0" y="-390.0"/>
      <point x="128.0" y="-357.0"/>
      <point x="128.0" y="-280.0" type="curve" smooth="yes"/>
      <point x="128.0" y="1520.0" type="line" smooth="yes"/>
      <point x="128.0" y="1597.0"/>
      <point x="156.0" y="1630.0"/>
    </contour>
  </outline>
</glyph>
<glyph name="braceright" format="2">
  <advance height="2048" width="575"/>
  <unicode hex="007D"/>
  <outline>
    <contour>
      <point x="420.0" y="-38.0" type="line" smooth="yes"/>
      <point x="420.0" y="-265.0"/>
      <point x="358.0" y="-360.0"/>
      <point x="180.0" y="-360.0" type="curve" smooth="yes"/>
      <point x="103.0" y="-360.0"/>
      <point x="70.0" y="-337.0"/>
      <point x="70.0" y="-310.0" type="curve" smooth="yes"/>
      <point x="70.0" y="-300.0" type="line" smooth="yes"/>
      <point x="70.0" y="-263.0"/>
      <point x="124.0" y="-270.0"/>
      <point x="161.0" y="-260.0" type="curve" smooth="yes"/>
      <point x="200.0" y="-249.0"/>
      <point x="245.0" y="-212.0"/>
      <point x="245.0" y="-38.0" type="curve" smooth="yes"/>
      <point x="245.0" y="284.0" type="line" smooth="yes"/>
      <point x="245.0" y="469.0"/>
      <point x="273.0" y="572.0"/>
      <point x="429.0" y="620.0" type="curve"/>
      <point x="273.0" y="668.0"/>
      <point x="245.0" y="771.0"/>
      <point x="245.0" y="956.0" type="curve" smooth="yes"/>
      <point x="245.0" y="1278.0" type="line" smooth="yes"/>
      <point x="245.0" y="1452.0"/>
      <point x="200.0" y="1489.0"/>
      <point x="161.0" y="1500.0" type="curve" smooth="yes"/>
      <point x="124.0" y="1510.0"/>
      <point x="70.0" y="1503.0"/>
      <point x="70.0" y="1540.0" type="curve" smooth="yes"/>
      <point x="70.0" y="1550.0" type="line" smooth="yes"/>
      <point x="70.0" y="1577.0"/>
      <point x="103.0" y="1600.0"/>
      <point x="180.0" y="1600.0" type="curve" smooth="yes"/>
      <point x="358.0" y="1600.0"/>
      <point x="420.0" y="1505.0"/>
      <point x="420.0" y="1278.0" type="curve" smooth="yes"/>
      <point x="420.0" y="956.0" type="line" smooth="yes"/>
      <point x="420.0" y="783.0"/>
      <point x="449.565429688" y="735.577148438"/>
      <point x="523.0" y="698.0" type="curve" smooth="yes"/>
      <point x="557.553710938" y="680.318359375"/>
      <point x="575.0" y="661.0"/>
      <point x="575.0" y="624.0" type="curve" smooth="yes"/>
      <point x="575.0" y="616.0" type="line" smooth="yes"/>
      <point x="575.0" y="579.0"/>
      <point x="558.262695312" y="558.578125"/>
      <point x="525.0" y="543.0" type="curve" smooth="yes"/>
      <point x="446.979492188" y="506.458984375"/>
      <point x="420.0" y="458.0"/>
      <point x="420.0" y="284.0" type="curve" smooth="yes"/>
    </contour>
  </outline>
</glyph>
<glyph name="asciitilde" format="2">
  <advance height="2048" width="1330"/>
  <unicode hex="007E"/>
  <outline>
    <contour>
      <point x="422.0" y="659.0" type="curve" smooth="yes"/>
      <point x="329.912721746" y="659.0"/>
      <point x="280.324523271" y="589.900301893"/>
      <point x="270.083984375" y="517.0" type="curve" smooth="yes"/>
      <point x="259.511669357" y="441.737851747"/>
      <point x="236.9140625" y="408.0"/>
      <point x="180.0" y="408.0" type="curve" smooth="yes"/>
      <point x="170.0" y="408.0" type="line" smooth="yes"/>
      <point x="122.911132812" y="408.0"/>
      <point x="102.263335182" y="441.402884212"/>
      <point x="110.088867188" y="517.0" type="curve" smooth="yes"/>
      <point x="124.418279052" y="655.426653571"/>
      <point x="251.445623234" y="809.0"/>
      <point x="422.0" y="809.0" type="curve" smooth="yes"/>
      <point x="661.0" y="809.0"/>
      <point x="757.0" y="552.0"/>
      <point x="909.0" y="552.0" type="curve" smooth="yes"/>
      <point x="1000.87221347" y="552.0"/>
      <point x="1050.59788121" y="610.772364152"/>
      <point x="1060.89550781" y="693.0" type="curve" smooth="yes"/>
      <point x="1070.46386446" y="769.404338269"/>
      <point x="1089.10644531" y="803.0"/>
      <point x="1146.0" y="803.0" type="curve" smooth="yes"/>
      <point x="1155.0" y="803.0" type="line" smooth="yes"/>
      <point x="1202.109375" y="803.0"/>
      <point x="1225.68530677" y="769.783757138"/>
      <point x="1219.890625" y="693.0" type="curve" smooth="yes"/>
      <point x="1209.48189832" y="555.076784782"/>
      <point x="1079.28150859" y="402.0"/>
      <point x="909.0" y="402.0" type="curve" smooth="yes"/>
      <point x="670.0" y="402.0"/>
      <point x="574.0" y="659.0"/>
    </contour>
  </outline>
</glyph>
<glyph name="exclamdown" format="2">
  <advance height="1920" width="540"/>
  <unicode hex="00A1"/>
  <outline>
    <contour>
      <point x="266.0" y="1085.0" type="curve" smooth="yes"/>
      <point x="276.0" y="1085.0" type="line" smooth="yes"/>
      <point x="353.258789062" y="1085.0"/>
      <point x="406.0" y="1022.25878906"/>
      <point x="406.0" y="955.0" type="curve" smooth="yes"/>
      <point x="406.0" y="945.0" type="line" smooth="yes"/>
      <point x="406.0" y="877.741210938"/>
      <point x="353.258789062" y="815.0"/>
      <point x="276.0" y="815.0" type="curve" smooth="yes"/>
      <point x="266.0" y="815.0" type="line" smooth="yes"/>
      <point x="188.741210938" y="815.0"/>
      <point x="136.0" y="877.741210938"/>
      <point x="136.0" y="945.0" type="curve" smooth="yes"/>
      <point x="136.0" y="955.0" type="line" smooth="yes"/>
      <point x="136.0" y="1022.25878906"/>
      <point x="188.741210938" y="1085.0"/>
    </contour>
    <contour>
      <point x="366.0" y="25.0" type="curve" smooth="yes"/>
      <point x="366.0" y="-315.0" type="line" smooth="yes"/>
      <point x="366.0" y="-392.0"/>
      <point x="323.0" y="-425.0"/>
      <point x="276.0" y="-425.0" type="curve" smooth="yes"/>
      <point x="266.0" y="-425.0" type="line" smooth="yes"/>
      <point x="219.0" y="-425.0"/>
      <point x="176.0" y="-392.0"/>
      <point x="176.0" y="-315.0" type="curve" smooth="yes"/>
      <point x="176.0" y="25.0" type="line" smooth="yes"/>
      <point x="176.0" y="72.0"/>
      <point x="179.482421875" y="148.65625"/>
      <point x="185.0" y="195.0" type="curve" smooth="yes"/>
      <point x="230.0" y="575.0" type="line" smooth="yes"/>
      <point x="236.65625" y="631.211914062"/>
      <point x="253.0" y="645.0"/>
      <point x="270.0" y="645.0" type="curve" smooth="yes"/>
      <point x="272.0" y="645.0" type="line" smooth="yes"/>
      <point x="289.0" y="645.0"/>
      <point x="305.34375" y="631.211914062"/>
      <point x="312.0" y="575.0" type="curve" smooth="yes"/>
      <point x="357.0" y="195.0" type="line" smooth="yes"/>
      <point x="362.517578125" y="148.65625"/>
      <point x="366.0" y="72.0"/>
    </contour>
  </outline>
</glyph>
<glyph name="cent" format="2">
  <advance height="1920" width="1000"/>
  <unicode hex="00A2"/>
  <outline>
    <contour>
      <point x="515.0" y="1240.0" type="curve" smooth="yes"/>
      <point x="525.0" y="1240.0" type="line" smooth="yes"/>
      <point x="542.0" y="1240.0"/>
      <point x="560.0" y="1227.0"/>
      <point x="560.0" y="1190.0" type="curve" smooth="yes"/>
      <point x="560.0" y="-140.0" type="line" smooth="yes"/>
      <point x="560.0" y="-177.0"/>
      <point x="542.0" y="-190.0"/>
      <point x="525.0" y="-190.0" type="curve" smooth="yes"/>
      <point x="515.0" y="-190.0" type="line" smooth="yes"/>
      <point x="498.0" y="-190.0"/>
      <point x="480.0" y="-177.0"/>
      <point x="480.0" y="-140.0" type="curve" smooth="yes"/>
      <point x="480.0" y="1190.0" type="line" smooth="yes"/>
      <point x="480.0" y="1227.0"/>
      <point x="498.0" y="1240.0"/>
    </contour>
    <component base="c"/>
  </outline>
</glyph>
<glyph name="sterling" format="2">
  <advance height="1920" width="1280"/>
  <unicode hex="00A3"/>
  <outline>
    <contour>
      <point x="20.0" y="690.0" type="curve" smooth="yes"/>
      <point x="20.0" y="695.0" type="line" smooth="yes"/>
      <point x="20.0" y="732.0"/>
      <point x="43.0" y="750.0"/>
      <point x="120.0" y="750.0" type="curve" smooth="yes"/>
      <point x="660.0" y="750.0" type="line" smooth="yes"/>
      <point x="737.0" y="750.0"/>
      <point x="760.0" y="732.0"/>
      <point x="760.0" y="695.0" type="curve" smooth="yes"/>
      <point x="760.0" y="690.0" type="line" smooth="yes"/>
      <point x="760.0" y="653.0"/>
      <point x="737.0" y="635.0"/>
      <point x="660.0" y="635.0" type="curve" smooth="yes"/>
      <point x="120.0" y="635.0" type="line" smooth="yes"/>
      <point x="43.0" y="635.0"/>
      <point x="20.0" y="653.0"/>
    </contour>
    <contour>
      <point x="134.0" y="199.0" type="curve" smooth="yes"/>
      <point x="250.140625" y="290.639648438"/>
      <point x="328.0" y="345.0"/>
      <point x="328.0" y="514.35546875" type="curve" smooth="yes"/>
      <point x="328.0" y="712.5078125"/>
      <point x="140.0" y="794.966796875"/>
      <point x="140.0" y="1043.0" type="curve" smooth="yes"/>
      <point x="140.0" y="1273.0"/>
      <point x="288.0" y="1435.0"/>
      <point x="575.0" y="1435.0" type="curve" smooth="yes"/>
      <point x="869.171875" y="1435.0"/>
      <point x="993.347194481" y="1266.34127396"/>
      <point x="1024.68945312" y="1041.0" type="curve" smooth="yes"/>
      <point x="1035.43498548" y="963.742901949"/>
      <point x="1002.04394531" y="923.0"/>
      <point x="955.0" y="923.0" type="curve" smooth="yes"/>
      <point x="945.0" y="923.0" type="line" smooth="yes"/>
      <point x="898.072265625" y="923.0"/>
      <point x="866.560210933" y="963.872142656"/>
      <point x="854.927734375" y="1041.0" type="curve" smooth="yes"/>
      <point x="834.547639461" y="1176.12797944"/>
      <point x="759.612304688" y="1295.0"/>
      <point x="585.0" y="1295.0" type="curve" smooth="yes"/>
      <point x="408.0" y="1295.0"/>
      <point x="320.0" y="1223.0"/>
      <point x="320.0" y="1063.0" type="curve" smooth="yes"/>
      <point x="320.0" y="871.723632812"/>
      <point x="488.0" y="740.0"/>
      <point x="488.0" y="514.35546875" type="curve" smooth="yes"/>
      <point x="488.0" y="332.653320312"/>
      <point x="357.922851562" y="241.385742188"/>
      <point x="238.950195312" y="155.0" type="curve"/>
      <point x="960.0" y="155.0" type="line" smooth="yes"/>
      <point x="1037.0" y="155.0"/>
      <point x="1070.0" y="132.0"/>
      <point x="1070.0" y="85.0" type="curve" smooth="yes"/>
      <point x="1070.0" y="70.0" type="line" smooth="yes"/>
      <point x="1070.0" y="23.0"/>
      <point x="1037.0" y="-9.42978035343e-15"/>
      <point x="960.0" y="0.0" type="curve" smooth="yes"/>
      <point x="160.0" y="0.0" type="line" smooth="yes"/>
      <point x="83.0" y="0.0"/>
      <point x="50.0" y="28.0"/>
      <point x="50.0" y="75.0" type="curve" smooth="yes"/>
      <point x="50.0" y="85.0" type="line" smooth="yes"/>
      <point x="50.0" y="129.28125"/>
      <point x="72.9278789737" y="150.811627497"/>
    </contour>
  </outline>
</glyph>
<glyph name="currency" format="2">
  <advance width="1112"/>
  <unicode hex="00A4"/>
  <outline>
    <contour>
      <point x="1021.99414062" y="1183.02929688" type="curve" smooth="yes"/>
      <point x="1025.52929688" y="1179.49414062" type="line" smooth="yes"/>
      <point x="1058.76367188" y="1146.25976562"/>
      <point x="1051.69238281" y="1106.66210938"/>
      <point x="997.245117188" y="1052.21484375" type="curve" smooth="yes"/>
      <point x="884.108398438" y="939.077148438" type="line" smooth="yes"/>
      <point x="879.158203125" y="934.127929688"/>
      <point x="874.916015625" y="934.127929688"/>
      <point x="869.965820312" y="939.077148438" type="curve" smooth="yes"/>
      <point x="781.577148438" y="1027.46582031" type="line" smooth="yes"/>
      <point x="776.627929688" y="1032.41601562"/>
      <point x="776.627929688" y="1036.65820312"/>
      <point x="781.577148438" y="1041.60839844" type="curve" smooth="yes"/>
      <point x="894.71484375" y="1154.74511719" type="line" smooth="yes"/>
      <point x="949.162109375" y="1209.19238281"/>
      <point x="988.759765625" y="1216.26367188"/>
    </contour>
    <contour>
      <point x="230.034179688" y="475.922851562" type="curve" smooth="yes"/>
      <point x="318.422851562" y="387.534179688" type="line" smooth="yes"/>
      <point x="323.372070312" y="382.583984375"/>
      <point x="323.372070312" y="378.341796875"/>
      <point x="318.422851562" y="373.391601562" type="curve" smooth="yes"/>
      <point x="205.28515625" y="260.254882812" type="line" smooth="yes"/>
      <point x="150.837890625" y="205.807617188"/>
      <point x="111.240234375" y="198.736328125"/>
      <point x="78.005859375" y="231.970703125" type="curve" smooth="yes"/>
      <point x="74.470703125" y="235.505859375" type="line" smooth="yes"/>
      <point x="41.236328125" y="268.740234375"/>
      <point x="48.3076171875" y="308.337890625"/>
      <point x="102.754882812" y="362.78515625" type="curve" smooth="yes"/>
      <point x="215.891601562" y="475.922851562" type="line" smooth="yes"/>
      <point x="220.841796875" y="480.872070312"/>
      <point x="225.083984375" y="480.872070312"/>
    </contour>
    <contour>
      <point x="74.470703125" y="1179.49414062" type="curve" smooth="yes"/>
      <point x="78.005859375" y="1183.02929688" type="line" smooth="yes"/>
      <point x="111.240234375" y="1216.26367188"/>
      <point x="150.837890625" y="1209.19238281"/>
      <point x="205.28515625" y="1154.74511719" type="curve" smooth="yes"/>
      <point x="318.422851562" y="1041.60839844" type="line" smooth="yes"/>
      <point x="323.372070312" y="1036.65820312"/>
      <point x="323.372070312" y="1032.41601562"/>
      <point x="318.422851562" y="1027.46582031" type="curve" smooth="yes"/>
      <point x="230.034179688" y="939.077148438" type="line" smooth="yes"/>
      <point x="225.083984375" y="934.127929688"/>
      <point x="220.841796875" y="934.127929688"/>
      <point x="215.891601562" y="939.077148438" type="curve" smooth="yes"/>
      <point x="102.754882812" y="1052.21484375" type="line" smooth="yes"/>
      <point x="48.3076171875" y="1106.66210938"/>
      <point x="41.236328125" y="1146.25976562"/>
    </contour>
    <contour>
      <point x="781.577148438" y="387.534179688" type="curve" smooth="yes"/>
      <point x="869.965820312" y="475.922851562" type="line" smooth="yes"/>
      <point x="874.916015625" y="480.872070312"/>
      <point x="879.158203125" y="480.872070312"/>
      <point x="884.108398438" y="475.922851562" type="curve" smooth="yes"/>
      <point x="997.245117188" y="362.78515625" type="line" smooth="yes"/>
      <point x="1051.69238281" y="308.337890625"/>
      <point x="1058.76367188" y="268.740234375"/>
      <point x="1025.52929688" y="235.505859375" type="curve" smooth="yes"/>
      <point x="1021.99414062" y="231.970703125" type="line" smooth="yes"/>
      <point x="988.759765625" y="198.736328125"/>
      <point x="949.162109375" y="205.807617188"/>
      <point x="894.71484375" y="260.254882812" type="curve" smooth="yes"/>
      <point x="781.577148438" y="373.391601562" type="line" smooth="yes"/>
      <point x="776.627929688" y="378.341796875"/>
      <point x="776.627929688" y="382.583984375"/>
    </contour>
    <contour>
      <point x="63.0" y="710.0" type="curve" smooth="yes"/>
      <point x="63.0" y="979.0"/>
      <point x="284.0" y="1200.0"/>
      <point x="553.0" y="1200.0" type="curve" smooth="yes"/>
      <point x="822.0" y="1200.0"/>
      <point x="1043.0" y="979.0"/>
      <point x="1043.0" y="710.0" type="curve" smooth="yes"/>
      <point x="1043.0" y="441.0"/>
      <point x="822.0" y="220.0"/>
      <point x="553.0" y="220.0" type="curve" smooth="yes"/>
      <point x="284.0" y="220.0"/>
      <point x="63.0" y="441.0"/>
    </contour>
    <contour>
      <point x="223.0" y="710.0" type="curve" smooth="yes"/>
      <point x="223.0" y="521.0"/>
      <point x="364.0" y="370.0"/>
      <point x="553.0" y="370.0" type="curve" smooth="yes"/>
      <point x="742.0" y="370.0"/>
      <point x="883.0" y="521.0"/>
      <point x="883.0" y="710.0" type="curve" smooth="yes"/>
      <point x="883.0" y="899.0"/>
      <point x="742.0" y="1050.0"/>
      <point x="553.0" y="1050.0" type="curve" smooth="yes"/>
      <point x="364.0" y="1050.0"/>
      <point x="223.0" y="899.0"/>
    </contour>
  </outline>
</glyph>
<glyph name="yen" format="2">
  <advance height="1920" width="1280"/>
  <unicode hex="00A5"/>
  <outline>
    <contour>
      <point x="190.0" y="285.0" type="curve" smooth="yes"/>
      <point x="190.0" y="390.0" type="line" smooth="yes"/>
      <point x="190.0" y="397.0"/>
      <point x="193.0" y="400.0"/>
      <point x="200.0" y="400.0" type="curve" smooth="yes"/>
      <point x="1080.0" y="400.0" type="line" smooth="yes"/>
      <point x="1087.0" y="400.0"/>
      <point x="1090.0" y="397.0"/>
      <point x="1090.0" y="390.0" type="curve" smooth="yes"/>
      <point x="1090.0" y="285.0" type="line" smooth="yes"/>
      <point x="1090.0" y="278.0"/>
      <point x="1087.0" y="275.0"/>
      <point x="1080.0" y="275.0" type="curve" smooth="yes"/>
      <point x="200.0" y="275.0" type="line" smooth="yes"/>
      <point x="193.0" y="275.0"/>
      <point x="190.0" y="278.0"/>
    </contour>
    <contour>
      <point x="190.0" y="555.0" type="curve" smooth="yes"/>
      <point x="190.0" y="660.0" type="line" smooth="yes"/>
      <point x="190.0" y="667.0"/>
      <point x="193.0" y="670.0"/>
      <point x="200.0" y="670.0" type="curve" smooth="yes"/>
      <point x="1080.0" y="670.0" type="line" smooth="yes"/>
      <point x="1087.0" y="670.0"/>
      <point x="1090.0" y="667.0"/>
      <point x="1090.0" y="660.0" type="curve" smooth="yes"/>
      <point x="1090.0" y="555.0" type="line" smooth="yes"/>
      <point x="1090.0" y="548.0"/>
      <point x="1087.0" y="545.0"/>
      <point x="1080.0" y="545.0" type="curve" smooth="yes"/>
      <point x="200.0" y="545.0" type="line" smooth="yes"/>
      <point x="193.0" y="545.0"/>
      <point x="190.0" y="548.0"/>
    </contour>
    <component base="Y"/>
  </outline>
</glyph>
<glyph name="brokenbar" format="2">
  <advance height="1920" width="415"/>
  <unicode hex="00A6"/>
  <outline>
    <contour>
      <point x="203.0" y="460.0" type="curve" smooth="yes"/>
      <point x="213.0" y="460.0" type="line" smooth="yes"/>
      <point x="260.0" y="460.0"/>
      <point x="288.0" y="427.0"/>
      <point x="288.0" y="350.0" type="curve" smooth="yes"/>
      <point x="288.0" y="-280.0" type="line" smooth="yes"/>
      <point x="288.0" y="-357.0"/>
      <point x="260.0" y="-390.0"/>
      <point x="213.0" y="-390.0" type="curve" smooth="yes"/>
      <point x="203.0" y="-390.0" type="line" smooth="yes"/>
      <point x="156.0" y="-390.0"/>
      <point x="128.0" y="-357.0"/>
      <point x="128.0" y="-280.0" type="curve" smooth="yes"/>
      <point x="128.0" y="350.0" type="line" smooth="yes"/>
      <point x="128.0" y="427.0"/>
      <point x="156.0" y="460.0"/>
    </contour>
    <contour>
      <point x="203.0" y="1630.0" type="curve" smooth="yes"/>
      <point x="213.0" y="1630.0" type="line" smooth="yes"/>
      <point x="260.0" y="1630.0"/>
      <point x="288.0" y="1597.0"/>
      <point x="288.0" y="1520.0" type="curve" smooth="yes"/>
      <point x="288.0" y="890.0" type="line" smooth="yes"/>
      <point x="288.0" y="813.0"/>
      <point x="260.0" y="780.0"/>
      <point x="213.0" y="780.0" type="curve" smooth="yes"/>
      <point x="203.0" y="780.0" type="line" smooth="yes"/>
      <point x="156.0" y="780.0"/>
      <point x="128.0" y="813.0"/>
      <point x="128.0" y="890.0" type="curve" smooth="yes"/>
      <point x="128.0" y="1520.0" type="line" smooth="yes"/>
      <point x="128.0" y="1597.0"/>
      <point x="156.0" y="1630.0"/>
    </contour>
  </outline>
</glyph>
<glyph name="section" format="2">
  <advance height="1920" width="1086"/>
  <unicode hex="00A7"/>
  <outline>
    <contour>
      <point x="483.0" y="850.0" type="line"/>
      <point x="338.0" y="850.0"/>
      <point x="245.0" y="736.0"/>
      <point x="245.0" y="618.0" type="curve" smooth="yes"/>
      <point x="245.0" y="511.0"/>
      <point x="308.229492188" y="424.002929688"/>
      <point x="490.0" y="321.0" type="curve" smooth="yes"/>
      <point x="730.0" y="185.0"/>
      <point x="875.0" y="67.0"/>
      <point x="875.0" y="-93.0" type="curve" smooth="yes"/>
      <point x="875.0" y="-275.0"/>
      <point x="740.0" y="-400.0"/>
      <point x="513.0" y="-400.0" type="curve" smooth="yes"/>
      <point x="279.0" y="-400.0"/>
      <point x="190.0" y="-267.465820312"/>
      <point x="170.0" y="-127.0" type="curve" smooth="yes"/>
      <point x="159.287109375" y="-51.7587890625"/>
      <point x="188.0" y="-18.0"/>
      <point x="235.0" y="-18.0" type="curve" smooth="yes"/>
      <point x="244.0" y="-18.0" type="line" smooth="yes"/>
      <point x="291.0" y="-18.0"/>
      <point x="310.014648438" y="-53.6318359375"/>
      <point x="330.0" y="-128.0" type="curve" smooth="yes"/>
      <point x="351.698242188" y="-208.740234375"/>
      <point x="392.0" y="-265.0"/>
      <point x="515.0" y="-265.0" type="curve" smooth="yes"/>
      <point x="643.0" y="-265.0"/>
      <point x="705.0" y="-210.0"/>
      <point x="705.0" y="-110.0" type="curve" smooth="yes"/>
      <point x="705.0" y="-32.0"/>
      <point x="605.0" y="71.0"/>
      <point x="440.0" y="162.0" type="curve" smooth="yes"/>
      <point x="156.844726562" y="318.1640625"/>
      <point x="75.0" y="406.0"/>
      <point x="75.0" y="563.0" type="curve" smooth="yes"/>
      <point x="75.0" y="785.0"/>
      <point x="230.0" y="930.0"/>
      <point x="494.0" y="930.0" type="curve"/>
    </contour>
    <contour>
      <point x="603.0" y="185.0" type="line"/>
      <point x="748.0" y="185.0"/>
      <point x="841.0" y="299.0"/>
      <point x="841.0" y="417.0" type="curve" smooth="yes"/>
      <point x="841.0" y="524.0"/>
      <point x="777.770507812" y="610.997070312"/>
      <point x="596.0" y="714.0" type="curve" smooth="yes"/>
      <point x="356.0" y="850.0"/>
      <point x="211.0" y="968.0"/>
      <point x="211.0" y="1128.0" type="curve" smooth="yes"/>
      <point x="211.0" y="1310.0"/>
      <point x="346.0" y="1435.0"/>
      <point x="573.0" y="1435.0" type="curve" smooth="yes"/>
      <point x="807.0" y="1435.0"/>
      <point x="896.0" y="1302.4661493"/>
      <point x="916.0" y="1162.0" type="curve" smooth="yes"/>
      <point x="926.713064701" y="1086.75885272"/>
      <point x="898.0" y="1053.0"/>
      <point x="851.0" y="1053.0" type="curve" smooth="yes"/>
      <point x="842.0" y="1053.0" type="line" smooth="yes"/>
      <point x="795.0" y="1053.0"/>
      <point x="775.985345337" y="1088.63209044"/>
      <point x="756.0" y="1163.0" type="curve" smooth="yes"/>
      <point x="734.302069507" y="1243.74064797"/>
      <point x="694.0" y="1300.0"/>
      <point x="571.0" y="1300.0" type="curve" smooth="yes"/>
      <point x="443.0" y="1300.0"/>
      <point x="381.0" y="1245.0"/>
      <point x="381.0" y="1145.0" type="curve" smooth="yes"/>
      <point x="381.0" y="1067.0"/>
      <point x="481.0" y="964.0"/>
      <point x="646.0" y="873.0" type="curve" smooth="yes"/>
      <point x="929.155273438" y="716.8359375"/>
      <point x="1011.0" y="629.0"/>
      <point x="1011.0" y="472.0" type="curve" smooth="yes"/>
      <point x="1011.0" y="250.0"/>
      <point x="856.0" y="105.0"/>
      <point x="592.0" y="105.0" type="curve"/>
    </contour>
  </outline>
</glyph>
<glyph name="copyright" format="2">
  <advance width="1484"/>
  <unicode hex="00A9"/>
  <outline>
    <contour>
      <point x="1073.0" y="500.799804688" type="curve" smooth="yes"/>
      <point x="1040.9921875" y="349.247070312"/>
      <point x="936.200195312" y="229.0"/>
      <point x="734.0" y="229.0" type="curve" smooth="yes"/>
      <point x="501.799804688" y="229.0"/>
      <point x="377.0" y="392.799804688"/>
      <point x="377.0" y="620.799804688" type="curve" smooth="yes"/>
      <point x="377.0" y="719.799804688" type="line" smooth="yes"/>
      <point x="377.0" y="947.799804688"/>
      <point x="501.799804688" y="1111.0"/>
      <point x="734.0" y="1111.0" type="curve" smooth="yes"/>
      <point x="930.200195312" y="1111.0"/>
      <point x="1024.31054688" y="1009.27929688"/>
      <point x="1055.0" y="887.799804688" type="curve" smooth="yes"/>
      <point x="1065.09375" y="847.845703125"/>
      <point x="1041.20019531" y="815.799804688"/>
      <point x="1013.0" y="815.799804688" type="curve" smooth="yes"/>
      <point x="1007.0" y="815.799804688" type="line" smooth="yes"/>
      <point x="972.799804688" y="815.799804688"/>
      <point x="963.451171875" y="848.225585938"/>
      <point x="951.799804688" y="887.799804688" type="curve" smooth="yes"/>
      <point x="927.818359375" y="969.25390625"/>
      <point x="846.200195312" y="1027.0"/>
      <point x="740.0" y="1027.0" type="curve" smooth="yes"/>
      <point x="585.799804688" y="1027.0"/>
      <point x="497.0" y="887.799804688"/>
      <point x="497.0" y="725.799804688" type="curve" smooth="yes"/>
      <point x="497.0" y="614.799804688" type="line" smooth="yes"/>
      <point x="497.0" y="452.799804688"/>
      <point x="573.799804688" y="313.0"/>
      <point x="740.0" y="313.0" type="curve" smooth="yes"/>
      <point x="870.200195312" y="313.0"/>
      <point x="947.252929688" y="391.262695312"/>
      <point x="971.0" y="500.799804688" type="curve" smooth="yes"/>
      <point x="978.458007812" y="535.202148438"/>
      <point x="990.799804688" y="566.799804688"/>
      <point x="1025.0" y="566.799804688" type="curve" smooth="yes"/>
      <point x="1031.0" y="566.799804688" type="line" smooth="yes"/>
      <point x="1065.20019531" y="566.799804688"/>
      <point x="1080.28515625" y="535.295898438"/>
    </contour>
    <contour>
      <point x="1439.0" y="668.0" type="curve" smooth="yes"/>
      <point x="1439.0" y="284.0"/>
      <point x="1125.0" y="-28.0"/>
      <point x="741.0" y="-28.0" type="curve" smooth="yes"/>
      <point x="357.0" y="-28.0"/>
      <point x="45.0" y="284.0"/>
      <point x="45.0" y="668.0" type="curve" smooth="yes"/>
      <point x="45.0" y="1052.0"/>
      <point x="357.0" y="1366.0"/>
      <point x="741.0" y="1366.0" type="curve" smooth="yes"/>
      <point x="1125.0" y="1366.0"/>
      <point x="1439.0" y="1052.0"/>
    </contour>
    <contour>
      <point x="1353.0" y="668.0" type="curve" smooth="yes"/>
      <point x="1353.0" y="1006.0"/>
      <point x="1079.0" y="1280.0"/>
      <point x="741.0" y="1280.0" type="curve" smooth="yes"/>
      <point x="403.0" y="1280.0"/>
      <point x="131.0" y="1006.0"/>
      <point x="131.0" y="668.0" type="curve" smooth="yes"/>
      <point x="131.0" y="330.0"/>
      <point x="403.0" y="58.0"/>
      <point x="741.0" y="58.0" type="curve" smooth="yes"/>
      <point x="1079.0" y="58.0"/>
      <point x="1353.0" y="330.0"/>
    </contour>
  </outline>
</glyph>
<glyph name="ordfeminine" format="2">
  <advance height="1920" width="847"/>
  <unicode hex="00AA"/>
  <outline>
    <contour>
      <point x="245.0" y="854.0" type="curve" smooth="yes"/>
      <point x="245.0" y="790.0"/>
      <point x="282.0" y="739.0"/>
      <point x="370.0" y="739.0" type="curve" smooth="yes"/>
      <point x="454.0" y="739.0"/>
      <point x="558.0" y="806.0"/>
      <point x="558.0" y="952.0" type="curve"/>
      <point x="618.0" y="902.0" type="line"/>
      <point x="618.0" y="759.0"/>
      <point x="517.0" y="609.0"/>
      <point x="326.0" y="609.0" type="curve" smooth="yes"/>
      <point x="167.0" y="609.0"/>
      <point x="70.0" y="699.0"/>
      <point x="70.0" y="834.0" type="curve" smooth="yes"/>
      <point x="70.0" y="985.0"/>
      <point x="163.0" y="1080.0"/>
      <point x="399.0" y="1119.0" type="curve" smooth="yes"/>
      <point x="524.0" y="1139.0"/>
      <point x="558.0" y="1159.0"/>
      <point x="558.0" y="1242.0" type="curve"/>
      <point x="598.0" y="1122.0" type="line"/>
      <point x="598.0" y="1059.0"/>
      <point x="539.0" y="1027.0"/>
      <point x="426.0" y="1004.0" type="curve" smooth="yes"/>
      <point x="288.0" y="977.0"/>
      <point x="245.0" y="914.0"/>
    </contour>
    <contour>
      <point x="558.0" y="852.0" type="curve" smooth="yes"/>
      <point x="558.0" y="1262.0" type="line" smooth="yes"/>
      <point x="558.0" y="1322.0"/>
      <point x="514.0" y="1359.0"/>
      <point x="419.0" y="1359.0" type="curve" smooth="yes"/>
      <point x="320.0" y="1359.0"/>
      <point x="291.388970241" y="1320.97823335"/>
      <point x="278.0" y="1276.0" type="curve" smooth="yes"/>
      <point x="261.77022116" y="1221.4784971"/>
      <point x="235.0" y="1197.0"/>
      <point x="198.0" y="1197.0" type="curve" smooth="yes"/>
      <point x="187.0" y="1197.0" type="line" smooth="yes"/>
      <point x="150.0" y="1197.0"/>
      <point x="114.380859375" y="1231.71777344"/>
      <point x="133.0" y="1296.0" type="curve" smooth="yes"/>
      <point x="159.900259023" y="1388.8726293"/>
      <point x="222.0" y="1489.0"/>
      <point x="438.0" y="1489.0" type="curve" smooth="yes"/>
      <point x="648.0" y="1489.0"/>
      <point x="718.0" y="1395.0"/>
      <point x="718.0" y="1187.0" type="curve" smooth="yes"/>
      <point x="718.0" y="852.0" type="line" smooth="yes"/>
      <point x="718.0" y="778.0"/>
      <point x="722.876165844" y="751.700453274"/>
      <point x="745.0" y="701.0" type="curve" smooth="yes"/>
      <point x="769.0" y="646.0"/>
      <point x="719.0" y="624.0"/>
      <point x="682.0" y="624.0" type="curve" smooth="yes"/>
      <point x="678.0" y="624.0" type="line" smooth="yes"/>
      <point x="641.0" y="624.0"/>
      <point x="605.562810058" y="646.220565675"/>
      <point x="582.0" y="700.0" type="curve" smooth="yes"/>
      <point x="563.410604881" y="742.428180318"/>
      <point x="558.0" y="777.0"/>
    </contour>
  </outline>
</glyph>
<glyph name="logicalnot" format="2">
  <advance height="2048" width="1150"/>
  <unicode hex="00AC"/>
  <outline>
    <contour>
      <point x="100.0" y="670.0" type="curve" smooth="yes"/>
      <point x="100.0" y="675.0" type="line" smooth="yes"/>
      <point x="100.0" y="722.0"/>
      <point x="133.0" y="750.0"/>
      <point x="210.0" y="750.0" type="curve" smooth="yes"/>
      <point x="880.0" y="750.0" type="line" smooth="yes"/>
      <point x="987.0" y="750.0"/>
      <point x="1030.0" y="707.0"/>
      <point x="1030.0" y="600.0" type="curve" smooth="yes"/>
      <point x="1030.0" y="395.0" type="line" smooth="yes"/>
      <point x="1030.0" y="318.0"/>
      <point x="1002.0" y="285.0"/>
      <point x="965.0" y="285.0" type="curve" smooth="yes"/>
      <point x="955.0" y="285.0" type="line" smooth="yes"/>
      <point x="918.0" y="285.0"/>
      <point x="890.0" y="318.0"/>
      <point x="890.0" y="395.0" type="curve" smooth="yes"/>
      <point x="890.0" y="595.0" type="line"/>
      <point x="210.0" y="595.0" type="line" smooth="yes"/>
      <point x="133.0" y="595.0"/>
      <point x="100.0" y="623.0"/>
    </contour>
  </outline>
</glyph>
<glyph name="registered" format="2">
  <advance width="1484"/>
  <unicode hex="00AE"/>
  <outline>
    <contour>
      <point x="538.0" y="1030.0" type="line"/>
      <point x="538.0" y="754.0" type="line"/>
      <point x="778.0" y="754.0" type="line" smooth="yes"/>
      <point x="878.0" y="754.0"/>
      <point x="931.0" y="795.0"/>
      <point x="931.0" y="867.0" type="curve" smooth="yes"/>
      <point x="931.0" y="917.0" type="line" smooth="yes"/>
      <point x="931.0" y="989.0"/>
      <point x="878.0" y="1030.0"/>
      <point x="778.0" y="1030.0" type="curve" smooth="yes"/>
    </contour>
    <contour>
      <point x="778.0" y="1120.0" type="line" smooth="yes"/>
      <point x="932.0" y="1120.0"/>
      <point x="1051.0" y="1049.0"/>
      <point x="1051.0" y="905.0" type="curve" smooth="yes"/>
      <point x="1051.0" y="891.0" type="line" smooth="yes"/>
      <point x="1051.0" y="747.0"/>
      <point x="932.0" y="688.0"/>
      <point x="778.0" y="688.0" type="curve"/>
      <point x="778.0" y="724.0" type="line"/>
      <point x="932.0" y="724.0"/>
      <point x="1045.0" y="677.0"/>
      <point x="1045.0" y="533.0" type="curve" smooth="yes"/>
      <point x="1045.0" y="477.0" type="line" smooth="yes"/>
      <point x="1045.0" y="409.0"/>
      <point x="1061.0" y="370.0"/>
      <point x="1080.0" y="335.0" type="curve" smooth="yes"/>
      <point x="1088.0" y="320.0"/>
      <point x="1091.0" y="308.0"/>
      <point x="1091.0" y="300.0" type="curve" smooth="yes"/>
      <point x="1091.0" y="297.0" type="line" smooth="yes"/>
      <point x="1091.0" y="275.0"/>
      <point x="1070.0" y="262.0"/>
      <point x="1042.0" y="262.0" type="curve" smooth="yes"/>
      <point x="1036.0" y="262.0" type="line" smooth="yes"/>
      <point x="1005.0" y="262.0"/>
      <point x="978.0" y="280.0"/>
      <point x="966.0" y="303.0" type="curve" smooth="yes"/>
      <point x="938.0" y="356.0"/>
      <point x="931.0" y="425.0"/>
      <point x="931.0" y="477.0" type="curve" smooth="yes"/>
      <point x="931.0" y="551.0" type="line" smooth="yes"/>
      <point x="931.0" y="623.0"/>
      <point x="878.0" y="664.0"/>
      <point x="778.0" y="664.0" type="curve" smooth="yes"/>
      <point x="538.0" y="664.0" type="line"/>
      <point x="538.0" y="334.0" type="line" smooth="yes"/>
      <point x="538.0" y="288.0"/>
      <point x="518.0" y="262.0"/>
      <point x="484.0" y="262.0" type="curve" smooth="yes"/>
      <point x="478.0" y="262.0" type="line" smooth="yes"/>
      <point x="444.0" y="262.0"/>
      <point x="424.0" y="288.0"/>
      <point x="424.0" y="334.0" type="curve" smooth="yes"/>
      <point x="424.0" y="1024.0" type="line" smooth="yes"/>
      <point x="424.0" y="1088.0"/>
      <point x="456.0" y="1120.0"/>
      <point x="520.0" y="1120.0" type="curve" smooth="yes"/>
    </contour>
    <contour>
      <point x="1439.0" y="668.0" type="curve" smooth="yes"/>
      <point x="1439.0" y="284.0"/>
      <point x="1125.0" y="-28.0"/>
      <point x="741.0" y="-28.0" type="curve" smooth="yes"/>
      <point x="357.0" y="-28.0"/>
      <point x="45.0" y="284.0"/>
      <point x="45.0" y="668.0" type="curve" smooth="yes"/>
      <point x="45.0" y="1052.0"/>
      <point x="357.0" y="1366.0"/>
      <point x="741.0" y="1366.0" type="curve" smooth="yes"/>
      <point x="1125.0" y="1366.0"/>
      <point x="1439.0" y="1052.0"/>
    </contour>
    <contour>
      <point x="1353.0" y="668.0" type="curve" smooth="yes"/>
      <point x="1353.0" y="1006.0"/>
      <point x="1079.0" y="1280.0"/>
      <point x="741.0" y="1280.0" type="curve" smooth="yes"/>
      <point x="403.0" y="1280.0"/>
      <point x="131.0" y="1006.0"/>
      <point x="131.0" y="668.0" type="curve" smooth="yes"/>
      <point x="131.0" y="330.0"/>
      <point x="403.0" y="58.0"/>
      <point x="741.0" y="58.0" type="curve" smooth="yes"/>
      <point x="1079.0" y="58.0"/>
      <point x="1353.0" y="330.0"/>
    </contour>
  </outline>
</glyph>
